{
.appVersion = "3316";
.formatVersion = 3;
axes = (
{
name = Weight;
tag = wght;
}
);
classes = (
{
automatic = 1;
code = "A Aacute Abreve Acircumflex Adieresis Agrave Amacron Aogonek Aring Atilde AE B C Cacute Ccaron Ccedilla Cdotaccent D Eth Dcaron Dcroat E Eacute Ecaron Ecircumflex Edieresis Edotaccent Egrave Emacron Eogonek F G Gbreve Gcommaaccent Gdotaccent H Hbar I IJ Iacute Icircumflex Idieresis Idotaccent Igrave Imacron Iogonek J Jacute K Kcommaaccent L Lacute Lcaron Lcommaaccent Lslash M N Nacute Ncaron Ncommaaccent Ntilde Eng O Oacute Ocircumflex Odieresis Ograve Ohungarumlaut Omacron Oslash Otilde OE P Thorn Q R Racute Rcaron Rcommaaccent S Sacute Scaron Scedilla Scommaaccent Germandbls T Tcaron Tcommaaccent U Uacute Ubreve Ucircumflex Udieresis Ugrave Uhungarumlaut Umacron Uogonek Uring V W Wacute Wcircumflex Wdieresis Wgrave X Y Yacute Ycircumflex Ydieresis Ygrave Z Zacute Zcaron Zdotaccent";
name = Uppercase;
}
);
customParameters = (
{
name = fsType;
value = (
);
},
{
name = "Use Typo Metrics";
value = 1;
},
{
name = "Axis Mappings";
value = {
wght = {
300 = 90;
400 = 108;
500 = 132;
700 = 162;
800 = 180;
};
};
},
{
name = "Variable Font Origin";
value = "A931EBE4-BC38-4F2A-894C-3FB7E511A35E";
}
);
date = "2024-05-11 08:03:47 +0000";
familyName = "Funnel Display";
featurePrefixes = (
{
automatic = 1;
code = "languagesystem DFLT dflt;

languagesystem latn dflt;
languagesystem latn AZE;
languagesystem latn CRT;
languagesystem latn KAZ;
languagesystem latn TAT;
languagesystem latn TRK;
languagesystem latn ROM;
languagesystem latn MOL;
languagesystem latn CAT;
languagesystem latn NLD;
";
name = Languagesystems;
}
);
features = (
{
automatic = 1;
code = "feature locl;
feature sups;
feature frac;
feature ordn;
feature pnum;
feature tnum;
feature case;
";
tag = aalt;
},
{
automatic = 1;
code = "lookup ccmp_DFLT_1 {

glyphs = (
{
glyphname = A;
kernLeft = A;
kernRight = A;
lastChange = "2024-05-08 12:15:40 +0000";
layers = (
{
anchors = (
{
name = bottom;
pos = (440,0);
},
{
name = ogonek;
pos = (874,0);
},
{
name = top;
pos = (443,810);
}
);
background = {
shapes = (
{
closed = 1;
nodes = (
(150,0,l),
(248,256,l),
(569,256,l),
(668,0,l),
(764,0,l),
(453,810,l),
(369,810,l),
(56,0,l)
);
},
{
closed = 1;
nodes = (
(412,691,l),
(541,340,l),
(279,340,l)
);
}
);
};
guides = (
{
angle = 112.5897;
pos = (554,340);
},
{
angle = 247.1695;
pos = (330,340);
}
);
layerId = "3CBDEB72-8799-4680-B3B3-51A575E4F961";
shapes = (
{
closed = 1;
nodes = (
(193,0,l),
(271,184,l),
(604,184,l),
(681,0,l),
(874,0,l),
(537,810,l),
(347,810,l),
(6,0,l)
);
},
{
closed = 1;
nodes = (
(440,608,l),
(445,608,l),
(554,340,l),
(330,340,l)
);
}
);
userData = {
com.schriftgestaltung.Glyphs.category = Letter;
com.schriftgestaltung.Glyphs.script = latin;
com.schriftgestaltung.Glyphs.subCategory = Uppercase;
};
width = 880;
},
{
anchors = (
{
name = bottom;
pos = (410,0);
},
{
name = ogonek;
pos = (814,0);
},
{
name = top;
pos = (411,810);
}
);
background = {
shapes = (
{
closed = 1;
nodes = (
(120,0,l),
(218,256,l),
(539,256,l),
(638,0,l),
(734,0,l),
(423,810,l),
(339,810,l),
(26,0,l)
);
},
{
closed = 1;
nodes = (
(382,691,l),
(511,340,l),
(249,340,l)
);
}
);
};
guides = (
{
angle = 113.2498;
pos = (577,340);
},
{
angle = 246.6905;
pos = (241,340);
}
);
layerId = "A931EBE4-BC38-4F2A-894C-3FB7E511A35E";
shapes = (
{
closed = 1;
nodes = (
(100,0,l),
(210,256,l),
(608,256,l),
(718,0,l),
(814,0,l),
(466,810,l),
(355,810,l),
(6,0,l)
);
},
{
closed = 1;
nodes = (
(407,726,l),
(412,726,l),
(577,340,l),
(241,340,l)
);
}
);
userData = {
com.schriftgestaltung.Glyphs.category = Letter;
com.schriftgestaltung.Glyphs.script = latin;
com.schriftgestaltung.Glyphs.subCategory = Uppercase;
};
width = 820;
}
);
unicode = 65;
},
{
glyphname = AE;
kernLeft = A;
kernRight = A;
lastChange = "2024-06-01 10:14:29 +0000";
layers = (
{
anchors = (
{
name = bottom;
pos = (584,0);
},
{
name = top;
pos = (595,810);
}
);
layerId = "3CBDEB72-8799-4680-B3B3-51A575E4F961";
shapes = (
{
closed = 1;
nodes = (
(193,0,l),
(271,184,l),
(604,184,l),
(681,0,l),
(1224,0,l),
(1165,164,l),
(806,164,l),
(733,340,l),
(1071,340,l),
(1014,500,l),
(666,500,l),
(605,646,l),
(995,646,l),
(936,810,l),
(347,810,l),
(6,0,l)
);
},
{
closed = 1;
nodes = (
(440,608,l),
(445,608,l),
(554,340,l),
(330,340,l)
);
}
);
userData = {
com.schriftgestaltung.Glyphs.category = Letter;
com.schriftgestaltung.Glyphs.script = latin;
com.schriftgestaltung.Glyphs.subCategory = Uppercase;
};
width = 1200;
},
{
anchors = (
{
name = bottom;
pos = (580,0);
},
{
name = top;
pos = (587,810);
}
);
guides = (
{
angle = 111.189;
pos = (587,405);
},
{
angle = 113.2498;
pos = (1154,0);
}
);
layerId = "A931EBE4-BC38-4F2A-894C-3FB7E511A35E";
shapes = (
{
closed = 1;
nodes = (
(100,0,l),
(210,256,l),
(608,256,l),
(718,0,l),
(1214,0,l),
(1183,82,l),
(779,82,l),
(651,380,l),
(1052,380,l),
(1022,460,l),
(616,460,l),
(501,728,l),
(943,728,l),
(912,810,l),
(355,810,l),
(6,0,l)
);
},
{
closed = 1;
nodes = (
(407,726,l),
(412,726,l),
(577,340,l),
(241,340,l)
);
}
);
userData = {
com.schriftgestaltung.Glyphs.category = Letter;
com.schriftgestaltung.Glyphs.script = latin;
com.schriftgestaltung.Glyphs.subCategory = Uppercase;
};
width = 1190;
}
);
unicode = 198;
},
{
glyphname = B;
kernLeft = B;
kernRight = B;
lastChange = "2024-05-08 12:15:40 +0000";
layers = (
{
anchors = (
{
name = bottom;
pos = (413,0);
},
{
name = center;
pos = (413,405);
},
{
name = top;
pos = (413,810);
}
);
background = {
shapes = (
{
closed = 1;
nodes = (
(110,0,l),
(385,0,ls),
(555,0,o),
(664,80,o),
(664,228,cs),
(664,349,o),
(589,402,o),
(484,419,c),
(484,425,l),
(583,443,o),
(637,509,o),
(637,603,cs),
(637,747,o),
(536,801,o),
(336,801,cs),
(110,801,l)
);
},
{
closed = 1;
nodes = (
(203,721,l),
(341,721,ls),
(480,721,o),
(541,683,o),
(541,593,cs),
(541,504,o),
(495,457,o),
(356,457,cs),
(203,457,l)
);
},
{
closed = 1;
nodes = (
(361,379,l),
(510,379,o),
(565,325,o),
(565,234,cs),
(565,140,o),
(511,79,o),
(369,79,cs),
(203,79,l),
(203,379,l)
);
}
);
};
guides = (
{
pos = (447,164);
},
{
angle = 180;
pos = (323,646);
},
{
pos = (323,500);
},
{
angle = 180;
pos = (327,340);
},
{
angle = 90;
pos = (252,252);
}
);
layerId = "3CBDEB72-8799-4680-B3B3-51A575E4F961";
name = "Bold alt";
shapes = (
{
closed = 1;
nodes = (
(522,0,ls),
(683,0,o),
(792,94,o),
(792,232,cs),
(792,329,o),
(735,405,o),
(640,434,c),
(640,438,l),
(712,468,o),
(752,527,o),
(752,604,cs),
(752,726,o),
(651,810,o),
(504,810,cs),
(80,810,l),
(80,0,l)
);
},
{
closed = 1;
nodes = (
(268,346,l),
(491,346,ls),
(564,346,o),
(604,314,o),
(604,256,cs),
(604,197,o),
(564,164,o),
(490,164,cs),
(268,164,l)
);
},
{
closed = 1;
nodes = (
(268,646,l),
(477,646,ls),
(534,646,o),
(564,620,o),
(564,570,cs),
(564,520,o),
(534,494,o),
(477,494,cs),
(268,494,l)
);
}
);
userData = {
com.schriftgestaltung.Glyphs.category = Letter;
com.schriftgestaltung.Glyphs.script = latin;
com.schriftgestaltung.Glyphs.subCategory = Uppercase;
};
width = 830;
},
{
anchors = (
{
name = bottom;
pos = (403,0);
},
{
name = center;
pos = (403,405);
},
{
name = top;
pos = (403,810);
}
);
background = {
shapes = (
{
closed = 1;
nodes = (
(110,0,l),
(385,0,ls),
(555,0,o),
(664,80,o),
(664,228,cs),
(664,349,o),
(589,402,o),
(484,419,c),
(484,425,l),
(583,443,o),
(637,509,o),
(637,603,cs),
(637,747,o),
(536,801,o),
(336,801,cs),
(110,801,l)
);
},
{
closed = 1;
nodes = (
(203,721,l),
(341,721,ls),
(480,721,o),
(541,683,o),
(541,593,cs),
(541,504,o),
(495,457,o),
(356,457,cs),
(203,457,l)
);
},
{
closed = 1;
nodes = (
(361,379,l),
(510,379,o),
(565,325,o),
(565,234,cs),
(565,140,o),
(511,79,o),
(369,79,cs),
(203,79,l),
(203,379,l)
);
}
);
};
layerId = "A931EBE4-BC38-4F2A-894C-3FB7E511A35E";
name = "Light alt";
shapes = (
{
closed = 1;
nodes = (
(507,0,ls),
(655,0,o),
(760,88,o),
(760,227,cs),
(760,359,o),
(656,421,o),
(576,429,c),
(576,433,l),
(651,448,o),
(720,509,o),
(720,603,cs),
(720,731,o),
(628,810,o),
(489,810,cs),
(104,810,l),
(104,0,l)
);
},
{
closed = 1;
nodes = (
(200,380,l),
(486,380,ls),
(596,380,o),
(664,330,o),
(664,232,cs),
(664,134,o),
(595,82,o),
(485,82,cs),
(200,82,l)
);
},
{
closed = 1;
nodes = (
(200,728,l),
(478,728,ls),
(569,728,o),
(624,680,o),
(624,594,cs),
(624,508,o),
(569,460,o),
(478,460,cs),
(200,460,l)
);
}
);
userData = {
com.schriftgestaltung.Glyphs.category = Letter;
com.schriftgestaltung.Glyphs.script = latin;
com.schriftgestaltung.Glyphs.subCategory = Uppercase;
};
width = 810;
}
);
unicode = 66;
},
{
glyphname = C;
kernLeft = C;
kernRight = C;
lastChange = "2024-05-08 12:15:40 +0000";
layers = (
{
anchors = (
{
name = bottom;
pos = (457,0);
},
{
name = top;
pos = (457,810);
}
);
layerId = "3CBDEB72-8799-4680-B3B3-51A575E4F961";
shapes = (
{
closed = 1;
nodes = (
(660,-16,o),
(803,96,o),
(830,279,c),
(634,279,l),
(621,198,o),
(553,150,o),
(457,150,cs),
(318,150,o),
(232,244,o),
(232,403,cs),
(232,562,o),
(318,656,o),
(457,656,cs),
(553,656,o),
(621,608,o),
(634,527,c),
(830,527,l),
(803,710,o),
(660,822,o),
(457,822,cs),
(207,822,o),
(44,658,o),
(44,403,cs),
(44,148,o),
(207,-16,o),
(457,-16,cs)
);
}
);
userData = {
com.schriftgestaltung.Glyphs.category = Letter;
com.schriftgestaltung.Glyphs.script = latin;
com.schriftgestaltung.Glyphs.subCategory = Uppercase;
};
width = 840;
},
{
anchors = (
{
name = bottom;
pos = (458,0);
},
{
name = top;
pos = (458,810);
}
);
background = {
shapes = (
{
closed = 1;
nodes = (
(522,730,o),
(584,710,o),
(635,687,c),
(672,766,l),
(611,796,o),
(534,812,o),
(453,812,cs),
(206,812,o),
(68,643,o),
(68,401,cs),
(68,149,o),
(191,-11,o),
(436,-11,cs),
(524,-11,o),
(584,-1,o),
(642,21,c),
(642,102,l),
(583,84,o),
(520,71,o),
(449,71,cs),
(261,71,o),
(166,199,o),
(166,401,cs),
(166,603,o),
(275,730,o),
(452,730,cs)
);
}
);
};
layerId = "A931EBE4-BC38-4F2A-894C-3FB7E511A35E";
shapes = (
{
closed = 1;
nodes = (
(641,-12,o),
(767,80,o),
(802,240,c),
(706,240,l),
(681,132,o),
(592,72,o),
(458,72,cs),
(265,72,o),
(148,198,o),
(148,405,cs),
(148,612,o),
(265,738,o),
(458,738,cs),
(592,738,o),
(681,678,o),
(706,570,c),
(802,570,l),
(767,730,o),
(641,822,o),
(458,822,cs),
(213,822,o),
(54,658,o),
(54,405,cs),
(54,152,o),
(213,-12,o),
(458,-12,cs)
);
}
);
userData = {
com.schriftgestaltung.Glyphs.category = Letter;
com.schriftgestaltung.Glyphs.script = latin;
com.schriftgestaltung.Glyphs.subCategory = Uppercase;
};
width = 830;
}
);
unicode = 67;
},
{
glyphname = D;
kernLeft = B;
kernRight = D;
lastChange = "2024-05-08 12:15:40 +0000";
layers = (
{
anchors = (
{
name = bottom;
pos = (369,0);
},
{
name = center;
pos = (174,405);
},
{
name = top;
pos = (369,810);
}
);
background = {
shapes = (
{
closed = 1;
nodes = (
(625,-12,o),
(786,150,o),
(786,405,cs),
(786,662,o),
(626,822,o),
(405,822,cs),
(185,822,o),
(24,660,o),
(24,405,cs),
(24,151,o),
(185,-12,o),
(405,-12,cs)
);
},
{
closed = 1;
nodes = (
(286,152,o),
(208,252,o),
(208,405,cs),
(208,559,o),
(286,658,o),
(405,658,cs),
(524,658,o),
(602,559,o),
(602,405,cs),
(602,252,o),
(524,152,o),
(405,152,cs)
);
}
);
};
layerId = "3CBDEB72-8799-4680-B3B3-51A575E4F961";
shapes = (
{
closed = 1;
nodes = (
(408,0,ls),
(670,0,o),
(836,157,o),
(836,405,cs),
(836,655,o),
(671,810,o),
(408,810,cs),
(80,810,l),
(80,0,l)
);
},
{
closed = 1;
nodes = (
(268,650,l),
(408,650,ls),
(567,650,o),
(648,552,o),
(648,405,cs),
(648,259,o),
(567,160,o),
(408,160,cs),
(268,160,l)
);
}
);
userData = {
com.schriftgestaltung.Glyphs.category = Letter;
com.schriftgestaltung.Glyphs.script = latin;
com.schriftgestaltung.Glyphs.subCategory = Uppercase;
};
width = 880;
},
{
anchors = (
{
name = bottom;
pos = (411,0);
},
{
name = center;
pos = (154,405);
},
{
name = top;
pos = (411,810);
}
);
background = {
shapes = (
{
closed = 1;
nodes = (
(745,665,o),
(595,801,o),
(351,801,cs),
(110,801,l),
(110,0,l),
(327,0,ls),
(593,0,o),
(745,138,o),
(745,408,cs)
);
},
{
closed = 1;
nodes = (
(647,189,o),
(537,80,o),
(316,80,cs),
(203,80,l),
(203,721,l),
(337,721,ls),
(537,721,o),
(647,620,o),
(647,405,cs)
);
}
);
};
layerId = "A931EBE4-BC38-4F2A-894C-3FB7E511A35E";
shapes = (
{
closed = 1;
nodes = (
(388,0,ls),
(650,0,o),
(814,154,o),
(814,405,cs),
(814,657,o),
(652,810,o),
(388,810,cs),
(104,810,l),
(104,0,l)
);
},
{
closed = 1;
nodes = (
(200,728,l),
(388,728,ls),
(594,728,o),
(715,611,o),
(715,405,cs),
(715,200,o),
(593,82,o),
(388,82,cs),
(200,82,l)
);
}
);
userData = {
com.schriftgestaltung.Glyphs.category = Letter;
com.schriftgestaltung.Glyphs.script = latin;
com.schriftgestaltung.Glyphs.subCategory = Uppercase;
};
width = 870;
}
);
unicode = 68;
},
{
glyphname = Eth;
kernLeft = B;
kernRight = D;
lastChange = "2024-05-08 12:15:40 +0000";
layers = (
{
layerId = "3CBDEB72-8799-4680-B3B3-51A575E4F961";
shapes = (
{
closed = 1;
nodes = (
(438,0,ls),
(700,0,o),
(866,157,o),
(866,405,cs),
(866,655,o),
(701,810,o),
(438,810,cs),
(110,810,l),
(110,495,l),
(30,495,l),
(30,345,l),
(110,345,l),
(110,0,l)
);
},
{
closed = 1;
nodes = (
(298,345,l),
(506,345,l),
(506,495,l),
(298,495,l),
(298,650,l),
(438,650,ls),
(597,650,o),
(678,552,o),
(678,405,cs),
(678,259,o),
(597,160,o),
(438,160,cs),
(298,160,l)
);
}
);
userData = {
com.schriftgestaltung.Glyphs.category = Letter;
com.schriftgestaltung.Glyphs.script = latin;
com.schriftgestaltung.Glyphs.subCategory = Uppercase;
};
width = 910;
},
{
layerId = "A931EBE4-BC38-4F2A-894C-3FB7E511A35E";
shapes = (
{
closed = 1;
nodes = (
(418,0,ls),
(680,0,o),
(844,154,o),
(844,405,cs),
(844,657,o),
(682,810,o),
(418,810,cs),
(134,810,l),
(134,457,l),
(30,457,l),
(30,383,l),
(134,383,l),
(134,0,l)
);
},
{
closed = 1;
nodes = (
(230,383,l),
(504,383,l),
(504,457,l),
(230,457,l),
(230,728,l),
(418,728,ls),
(624,728,o),
(745,611,o),
(745,405,cs),
(745,200,o),
(623,82,o),
(418,82,cs),
(230,82,l)
);
}
);
userData = {
com.schriftgestaltung.Glyphs.category = Letter;
com.schriftgestaltung.Glyphs.script = latin;
com.schriftgestaltung.Glyphs.subCategory = Uppercase;
};
width = 870;
}
);
unicode = 208;
},
{
glyphname = E;
kernLeft = B;
kernRight = E;
lastChange = "2024-05-08 12:15:40 +0000";
layers = (
{
anchors = (
{
name = bottom;
pos = (382,0);
},
{
name = ogonek;
pos = (680,0);
},
{
name = top;
pos = (382,810);
},
{
name = topleft;
pos = (-20,810);
}
);
background = {
shapes = (
{
closed = 1;
nodes = (
(560,82,l),
(200,82,l),
(200,380,l),
(540,380,l),
(540,460,l),
(200,460,l),
(200,728,l),
(560,728,l),
(560,810,l),
(108,810,l),
(108,0,l),
(560,0,l)
);
}
);
};
layerId = "3CBDEB72-8799-4680-B3B3-51A575E4F961";
shapes = (
{
closed = 1;
nodes = (
(680,164,l),
(268,164,l),
(268,340,l),
(644,340,l),
(644,500,l),
(268,500,l),
(268,646,l),
(680,646,l),
(680,810,l),
(80,810,l),
(80,0,l),
(680,0,l)
);
}
);
userData = {
com.schriftgestaltung.Glyphs.category = Letter;
com.schriftgestaltung.Glyphs.script = latin;
com.schriftgestaltung.Glyphs.subCategory = Uppercase;
};
width = 730;
},
{
anchors = (
{
name = bottom;
pos = (380,0);
},
{
name = ogonek;
pos = (656,0);
},
{
name = top;
pos = (380,810);
},
{
name = topleft;
pos = (-24,810);
}
);
background = {
shapes = (
{
closed = 1;
nodes = (
(556,82,l),
(196,82,l),
(196,380,l),
(536,380,l),
(536,460,l),
(196,460,l),
(196,728,l),
(556,728,l),
(556,810,l),
(104,810,l),
(104,0,l),
(556,0,l)
);
}
);
};
layerId = "A931EBE4-BC38-4F2A-894C-3FB7E511A35E";
shapes = (
{
closed = 1;
nodes = (
(660,82,l),
(200,82,l),
(200,380,l),
(639,380,l),
(639,460,l),
(200,460,l),
(200,728,l),
(660,728,l),
(660,810,l),
(104,810,l),
(104,0,l),
(660,0,l)
);
}
);
userData = {
com.schriftgestaltung.Glyphs.category = Letter;
com.schriftgestaltung.Glyphs.script = latin;
com.schriftgestaltung.Glyphs.subCategory = Uppercase;
};
width = 710;
}
);
unicode = 69;
},
{
glyphname = F;
kernLeft = B;
kernRight = F;
lastChange = "2024-05-08 12:15:40 +0000";
layers = (
{
anchors = (
{
name = bottom;
pos = (174,0);
},
{
name = top;
pos = (375,810);
}
);
background = {
shapes = (
{
closed = 1;
nodes = (
(200,367,l),
(529,367,l),
(529,449,l),
(200,449,l),
(200,728,l),
(550,728,l),
(550,810,l),
(108,810,l),
(108,0,l),
(200,0,l)
);
}
);
};
layerId = "3CBDEB72-8799-4680-B3B3-51A575E4F961";
shapes = (
{
closed = 1;
nodes = (
(268,326,l),
(634,326,l),
(634,490,l),
(268,490,l),
(268,646,l),
(670,646,l),
(670,810,l),
(80,810,l),
(80,0,l),
(268,0,l)
);
}
);
userData = {
com.schriftgestaltung.Glyphs.category = Letter;
com.schriftgestaltung.Glyphs.script = latin;
com.schriftgestaltung.Glyphs.subCategory = Uppercase;
};
width = 690;
},
{
anchors = (
{
name = bottom;
pos = (327,0);
},
{
name = top;
pos = (327,810);
}
);
background = {
shapes = (
{
closed = 1;
nodes = (
(196,367,l),
(525,367,l),
(525,449,l),
(196,449,l),
(196,728,l),
(546,728,l),
(546,810,l),
(104,810,l),
(104,0,l),
(196,0,l)
);
}
);
};
layerId = "A931EBE4-BC38-4F2A-894C-3FB7E511A35E";
shapes = (
{
closed = 1;
nodes = (
(200,367,l),
(626,367,l),
(626,449,l),
(200,449,l),
(200,728,l),
(650,728,l),
(650,810,l),
(104,810,l),
(104,0,l),
(200,0,l)
);
}
);
userData = {
com.schriftgestaltung.Glyphs.category = Letter;
com.schriftgestaltung.Glyphs.script = latin;
com.schriftgestaltung.Glyphs.subCategory = Uppercase;
};
width = 670;
}
);
unicode = 70;
},
{
glyphname = G;
kernLeft = C;
kernRight = G;
lastChange = "2024-05-08 12:40:43 +0000";
layers = (
{
anchors = (
{
name = bottom;
pos = (475,0);
},
{
name = top;
pos = (457,810);
}
);
background = {
shapes = (
{
closed = 1;
nodes = (
(657,-12,o),
(818,150,o),
(818,405,cs),
(818,662,o),
(658,822,o),
(437,822,cs),
(217,822,o),
(56,660,o),
(56,405,cs),
(56,151,o),
(217,-12,o),
(437,-12,cs)
);
},
{
closed = 1;
nodes = (
(318,164,o),
(240,259,o),
(240,405,cs),
(240,552,o),
(318,646,o),
(437,646,cs),
(556,646,o),
(634,552,o),
(634,405,cs),
(634,259,o),
(556,164,o),
(437,164,cs)
);
}
);
};
guides = (
{
angle = 270;
pos = (623,267);
},
{
pos = (687,570);
}
);
layerId = "3CBDEB72-8799-4680-B3B3-51A575E4F961";
name = "Bold alt";
shapes = (
{
closed = 1;
nodes = (
(548,-12,o),
(620,21,o),
(659,86,c),
(664,86,l),
(664,0,l),
(836,0,l),
(836,312,ls),
(836,396,o),
(792,438,o),
(704,438,cs),
(453,438,l),
(453,294,l),
(652,294,l),
(652,270,ls),
(652,198,o),
(573,144,o),
(468,144,cs),
(323,144,o),
(232,244,o),
(232,402,cs),
(232,557,o),
(321,656,o),
(462,656,cs),
(560,656,o),
(627,608,o),
(640,527,c),
(836,527,l),
(809,710,o),
(667,822,o),
(462,822,cs),
(211,822,o),
(44,655,o),
(44,404,cs),
(44,157,o),
(206,-12,o),
(443,-12,cs)
);
}
);
userData = {
com.schriftgestaltung.Glyphs.category = Letter;
com.schriftgestaltung.Glyphs.script = latin;
com.schriftgestaltung.Glyphs.subCategory = Uppercase;
};
width = 900;
},
{
anchors = (
{
name = bottom;
pos = (453,0);
},
{
name = top;
pos = (435,810);
}
);
background = {
shapes = (
{
closed = 1;
nodes = (
(452,336,l),
(639,336,l),
(639,91,l),
(596,79,o),
(547,70,o),
(475,70,cs),
(258,70,o),
(165,200,o),
(165,400,cs),
(165,602,o),
(281,731,o),
(477,731,cs),
(553,731,o),
(626,710,o),
(685,684,c),
(721,765,l),
(652,795,o),
(572,812,o),
(482,812,cs),
(221,812,o),
(68,649,o),
(68,400,cs),
(68,146,o),
(204,-11,o),
(453,-11,cs),
(563,-11,o),
(647,3,o),
(732,31,c),
(732,419,l),
(452,419,l)
);
}
);
};
layerId = "A931EBE4-BC38-4F2A-894C-3FB7E511A35E";
name = "Light alt";
shapes = (
{
closed = 1;
nodes = (
(568,-12,o),
(674,43,o),
(708,126,c),
(713,126,l),
(713,0,l),
(806,0,l),
(806,312,ls),
(806,369,o),
(770,402,o),
(710,402,cs),
(444,402,l),
(444,322,l),
(712,322,l),
(712,264,ls),
(712,152,o),
(600,67,o),
(456,67,cs),
(279,67,o),
(154,203,o),
(154,405,cs),
(154,609,o),
(277,738,o),
(465,738,cs),
(599,738,o),
(685,679,o),
(706,570,c),
(806,570,l),
(775,731,o),
(651,822,o),
(465,822,cs),
(221,822,o),
(56,655,o),
(56,405,cs),
(56,155,o),
(214,-12,o),
(447,-12,cs)
);
}
);
userData = {
com.schriftgestaltung.Glyphs.category = Letter;
com.schriftgestaltung.Glyphs.script = latin;
com.schriftgestaltung.Glyphs.subCategory = Uppercase;
};
width = 870;
}
);
unicode = 71;
},
{
glyphname = H;
kernLeft = B;
kernRight = H;
lastChange = "2024-05-08 12:15:40 +0000";
layers = (
{
anchors = (
{
name = bottom;
pos = (456,0);
},
{
name = center;
pos = (456,405);
},
{
name = top;
pos = (456,810);
},
{
name = topleft;
pos = (-17,810);
}
);
background = {
shapes = (
{
closed = 1;
nodes = (
(731,810,l),
(639,810,l),
(639,461,l),
(209,461,l),
(209,810,l),
(117,810,l),
(117,0,l),
(209,0,l),
(209,379,l),
(639,379,l),
(639,0,l),
(731,0,l)
);
}
);
};
guides = (
{
pos = (120,405);
},
{
pos = (212,420);
}
);
layerId = "3CBDEB72-8799-4680-B3B3-51A575E4F961";
shapes = (
{
closed = 1;
nodes = (
(268,0,l),
(268,338,l),
(642,338,l),
(642,0,l),
(830,0,l),
(830,810,l),
(642,810,l),
(642,502,l),
(268,502,l),
(268,810,l),
(80,810,l),
(80,0,l)
);
}
);
userData = {
com.schriftgestaltung.Glyphs.category = Letter;
com.schriftgestaltung.Glyphs.script = latin;
com.schriftgestaltung.Glyphs.subCategory = Uppercase;
};
width = 910;
},
{
anchors = (
{
name = bottom;
pos = (445,0);
},
{
name = center;
pos = (445,405);
},
{
name = top;
pos = (445,810);
},
{
name = topleft;
pos = (20,810);
}
);
background = {
shapes = (
{
closed = 1;
nodes = (
(730,810,l),
(638,810,l),
(638,461,l),
(208,461,l),
(208,810,l),
(116,810,l),
(116,0,l),
(208,0,l),
(208,379,l),
(638,379,l),
(638,0,l),
(730,0,l)
);
}
);
};
guides = (
{
pos = (423,461);
}
);
layerId = "A931EBE4-BC38-4F2A-894C-3FB7E511A35E";
shapes = (
{
closed = 1;
nodes = (
(200,0,l),
(200,379,l),
(690,379,l),
(690,0,l),
(786,0,l),
(786,810,l),
(690,810,l),
(690,461,l),
(200,461,l),
(200,810,l),
(104,810,l),
(104,0,l)
);
}
);
userData = {
com.schriftgestaltung.Glyphs.category = Letter;
com.schriftgestaltung.Glyphs.script = latin;
com.schriftgestaltung.Glyphs.subCategory = Uppercase;
};
width = 890;
}
);
unicode = 72;
},
{
glyphname = Hbar;
kernLeft = B;
kernRight = H;
lastChange = "2024-05-08 12:16:42 +0000";
layers = (
{
layerId = "3CBDEB72-8799-4680-B3B3-51A575E4F961";
shapes = (
{
closed = 1;
nodes = (
(298,0,l),
(298,308,l),
(672,308,l),
(672,0,l),
(860,0,l),
(860,603,l),
(950,603,l),
(950,717,l),
(860,717,l),
(860,810,l),
(672,810,l),
(672,717,l),
(298,717,l),
(298,810,l),
(110,810,l),
(110,717,l),
(30,717,l),
(30,603,l),
(110,603,l),
(110,0,l)
);
},
{
closed = 1;
nodes = (
(298,603,l),
(672,603,l),
(672,472,l),
(298,472,l)
);
}
);
userData = {
com.schriftgestaltung.Glyphs.category = Letter;
com.schriftgestaltung.Glyphs.script = latin;
com.schriftgestaltung.Glyphs.subCategory = Uppercase;
};
width = 980;
},
{
layerId = "A931EBE4-BC38-4F2A-894C-3FB7E511A35E";
shapes = (
{
closed = 1;
nodes = (
(230,0,l),
(230,349,l),
(720,349,l),
(720,0,l),
(816,0,l),
(816,627,l),
(920,627,l),
(920,693,l),
(816,693,l),
(816,810,l),
(720,810,l),
(720,693,l),
(230,693,l),
(230,810,l),
(134,810,l),
(134,693,l),
(30,693,l),
(30,627,l),
(134,627,l),
(134,0,l)
);
},
{
closed = 1;
nodes = (
(230,627,l),
(720,627,l),
(720,431,l),
(230,431,l)
);
}
);
userData = {
com.schriftgestaltung.Glyphs.category = Letter;
com.schriftgestaltung.Glyphs.script = latin;
com.schriftgestaltung.Glyphs.subCategory = Uppercase;
};
width = 950;
}
);
unicode = 294;
},
{
glyphname = I;
kernLeft = B;
kernRight = H;
lastChange = "2024-05-08 12:15:40 +0000";
layers = (
{
anchors = (
{
name = bottom;
pos = (180,0);
},
{
name = ogonek;
pos = (272,0);
},
{
name = top;
pos = (180,810);
},
{
name = topleft;
pos = (-19,810);
}
);
layerId = "3CBDEB72-8799-4680-B3B3-51A575E4F961";
shapes = (
{
closed = 1;
nodes = (
(274,0,l),
(274,810,l),
(86,810,l),
(86,0,l)
);
}
);
userData = {
com.schriftgestaltung.Glyphs.category = Letter;
com.schriftgestaltung.Glyphs.glyph.leftMetricsKey = H;
com.schriftgestaltung.Glyphs.glyph.rightMetricsKey = H;
com.schriftgestaltung.Glyphs.script = latin;
com.schriftgestaltung.Glyphs.subCategory = Uppercase;
};
width = 360;
},
{
anchors = (
{
name = bottom;
pos = (155,0);
},
{
name = ogonek;
pos = (203,0);
},
{
name = top;
pos = (155,810);
},
{
name = topleft;
pos = (-19,810);
}
);
layerId = "A931EBE4-BC38-4F2A-894C-3FB7E511A35E";
shapes = (
{
closed = 1;
nodes = (
(203,0,l),
(203,810,l),
(107,810,l),
(107,0,l)
);
}
);
userData = {
com.schriftgestaltung.Glyphs.category = Letter;
com.schriftgestaltung.Glyphs.glyph.leftMetricsKey = H;
com.schriftgestaltung.Glyphs.glyph.rightMetricsKey = H;
com.schriftgestaltung.Glyphs.script = latin;
com.schriftgestaltung.Glyphs.subCategory = Uppercase;
};
width = 310;
}
);
unicode = 73;
},
{
glyphname = J;
kernLeft = B;
kernRight = H;
lastChange = "2024-05-30 11:31:46 +0000";
layers = (
{
anchors = (
{
name = bottom;
pos = (227,0);
},
{
name = top;
pos = (299,810);
}
);
background = {
shapes = (
{
closed = 1;
nodes = (
(394,0,l),
(394,810,l),
(206,810,l),
(206,0,l)
);
}
);
};
layerId = "3CBDEB72-8799-4680-B3B3-51A575E4F961";
shapes = (
{
closed = 1;
nodes = (
(246,0,ls),
(341,0,o),
(394,46,o),
(394,144,cs),
(394,810,l),
(206,810,l),
(206,164,l),
(24,164,l),
(24,0,l)
);
}
);
userData = {
com.schriftgestaltung.Glyphs.category = Letter;
com.schriftgestaltung.Glyphs.script = latin;
com.schriftgestaltung.Glyphs.subCategory = Uppercase;
};
width = 480;
},
{
anchors = (
{
name = bottom;
pos = (208,0);
},
{
name = top;
pos = (275,810);
}
);
layerId = "A931EBE4-BC38-4F2A-894C-3FB7E511A35E";
shapes = (
{
closed = 1;
nodes = (
(229,0,ls),
(287,0,o),
(323,30,o),
(323,90,cs),
(323,810,l),
(227,810,l),
(227,82,l),
(20,82,l),
(20,0,l)
);
}
);
userData = {
com.schriftgestaltung.Glyphs.category = Letter;
com.schriftgestaltung.Glyphs.script = latin;
com.schriftgestaltung.Glyphs.subCategory = Uppercase;
};
width = 430;
},
{
anchors = (
{
name = bottom;
pos = (88,-180);
},
{
name = top;
pos = (155,810);
}
);
associatedMasterId = "A931EBE4-BC38-4F2A-894C-3FB7E511A35E";
layerId = "139C5103-A409-496C-BBE7-26824493295D";
name = "30 May 24 at 13:23";
shapes = (
{
closed = 1;
nodes = (
(109,-180,ls),
(167,-180,o),
(203,-150,o),
(203,-90,cs),
(203,810,l),
(107,810,l),
(107,-100,l),
(-28,-100,l),
(-28,-180,l)
);
}
);
userData = {
com.schriftgestaltung.Glyphs.category = Letter;
com.schriftgestaltung.Glyphs.script = latin;
com.schriftgestaltung.Glyphs.subCategory = Uppercase;
};
width = 310;
},
{
anchors = (
{
name = bottom;
pos = (164,0);
},
{
name = top;
pos = (179,810);
}
);
associatedMasterId = "3CBDEB72-8799-4680-B3B3-51A575E4F961";
background = {
shapes = (
{
closed = 1;
nodes = (
(274,0,l),
(274,810,l),
(86,810,l),
(86,0,l)
);
}
);
};
layerId = "C8D9FA7C-2BA4-44C6-84AB-E6231CAF34D0";
name = "30 May 24 at 13:23";
shapes = (
{
closed = 1;
nodes = (
(126,-210,ls),
(221,-210,o),
(274,-164,o),
(274,-66,cs),
(274,810,l),
(86,810,l),
(86,-60,l),
(-27,-60,l),
(-27,-210,l)
);
}
);
userData = {
com.schriftgestaltung.Glyphs.category = Letter;
com.schriftgestaltung.Glyphs.script = latin;
com.schriftgestaltung.Glyphs.subCategory = Uppercase;
};
width = 360;
}
);
unicode = 74;
},
{
glyphname = K;
kernLeft = B;
kernRight = K;
lastChange = "2024-05-08 12:15:40 +0000";
layers = (
{
anchors = (
{
name = bottom;
pos = (421,0);
},
{
name = top;
pos = (420,810);
}
);
guides = (
{
angle = 126.247;
pos = (836,0);
},
{
angle = -53.962;
pos = (616,0);
},
{
angle = 223.2212;
pos = (827,810);
}
);
layerId = "3CBDEB72-8799-4680-B3B3-51A575E4F961";
shapes = (
{
closed = 1;
nodes = (
(268,0,l),
(268,300,l),
(350,366,l),
(614,0,l),
(836,0,l),
(482,483,l),
(830,810,l),
(600,810,l),
(272,498,l),
(268,498,l),
(268,810,l),
(80,810,l),
(80,0,l)
);
}
);
userData = {
com.schriftgestaltung.Glyphs.category = Letter;
com.schriftgestaltung.Glyphs.script = latin;
com.schriftgestaltung.Glyphs.subCategory = Uppercase;
};
width = 840;
},
{
anchors = (
{
name = bottom;
pos = (425,0);
},
{
name = top;
pos = (418,810);
}
);
background = {
shapes = (
{
closed = 1;
nodes = (
(736,810,l),
(644,810,l),
(644,461,l),
(206,461,l),
(206,810,l),
(114,810,l),
(114,0,l),
(206,0,l),
(206,379,l),
(644,379,l),
(644,0,l),
(736,0,l)
);
}
);
};
guides = (
{
angle = 226.959;
pos = (590,810);
},
{
angle = 127.4226;
pos = (601,0);
},
{
angle = 130.5601;
pos = (654,-11);
},
{
angle = 223.3477;
pos = (753,810);
}
);
layerId = "A931EBE4-BC38-4F2A-894C-3FB7E511A35E";
name = Light;
shapes = (
{
closed = 1;
nodes = (
(200,0,l),
(200,317,l),
(304,399,l),
(645,0,l),
(766,0,l),
(377,455,l),
(753,810,l),
(632,810,l),
(204,406,l),
(200,406,l),
(200,810,l),
(104,810,l),
(104,0,l)
);
}
);
userData = {
com.schriftgestaltung.Glyphs.category = Letter;
com.schriftgestaltung.Glyphs.script = latin;
com.schriftgestaltung.Glyphs.subCategory = Uppercase;
};
width = 780;
}
);
unicode = 75;
},
{
glyphname = L;
kernLeft = B;
kernRight = L;
lastChange = "2024-05-30 11:25:14 +0000";
layers = (
{
anchors = (
{
name = bottom;
pos = (379,0);
},
{
name = center;
pos = (174,405);
},
{
name = top;
pos = (174,810);
},
{
name = topright;
pos = (268,810);
}
);
layerId = "3CBDEB72-8799-4680-B3B3-51A575E4F961";
shapes = (
{
closed = 1;
nodes = (
(676,0,l),
(676,164,l),
(268,164,l),
(268,810,l),
(80,810,l),
(80,0,l)
);
}
);
userData = {
com.schriftgestaltung.Glyphs.category = Letter;
com.schriftgestaltung.Glyphs.script = latin;
com.schriftgestaltung.Glyphs.subCategory = Uppercase;
};
width = 700;
},
{
anchors = (
{
name = bottom;
pos = (376,0);
},
{
name = center;
pos = (152,405);
},
{
name = top;
pos = (152,810);
},
{
name = topright;
pos = (198,810);
}
);
layerId = "A931EBE4-BC38-4F2A-894C-3FB7E511A35E";
shapes = (
{
closed = 1;
nodes = (
(650,0,l),
(650,82,l),
(200,82,l),
(200,810,l),
(104,810,l),
(104,0,l)
);
}
);
userData = {
com.schriftgestaltung.Glyphs.category = Letter;
com.schriftgestaltung.Glyphs.script = latin;
com.schriftgestaltung.Glyphs.subCategory = Uppercase;
};
width = 670;
}
);
unicode = 76;
},
{
glyphname = Lslash;
kernLeft = B;
kernRight = L;
lastChange = "2024-05-08 12:15:40 +0000";
layers = (
{
background = {
shapes = (
{
closed = 1;
nodes = (
(588,0,l),
(588,83,l),
(233,83,l),
(233,336,l),
(428,451,l),
(391,516,l),
(233,422,l),
(233,801,l),
(140,801,l),
(140,367,l),
(44,309,l),
(81,248,l),
(140,281,l),
(140,0,l)
);
}
);
};
guides = (
{
angle = 206.0954;
pos = (258,341);
},
{
angle = 206.0954;
pos = (258,499);
}
);
layerId = "3CBDEB72-8799-4680-B3B3-51A575E4F961";
shapes = (
{
closed = 1;
nodes = (
(706,0,l),
(706,164,l),
(298,164,l),
(298,357,l),
(510,461,l),
(510,619,l),
(298,515,l),
(298,810,l),
(110,810,l),
(110,423,l),
(20,379,l),
(20,221,l),
(110,265,l),
(110,0,l)
);
}
);
userData = {
com.schriftgestaltung.Glyphs.category = Letter;
com.schriftgestaltung.Glyphs.script = latin;
com.schriftgestaltung.Glyphs.subCategory = Uppercase;
};
width = 730;
},
{
guides = (
{
angle = 206.0935;
pos = (257,379);
}
);
layerId = "A931EBE4-BC38-4F2A-894C-3FB7E511A35E";
shapes = (
{
closed = 1;
nodes = (
(680,0,l),
(680,83,l),
(230,83,l),
(230,362,l),
(508,498,l),
(508,580,l),
(230,444,l),
(230,810,l),
(134,810,l),
(134,397,l),
(20,341,l),
(20,259,l),
(134,315,l),
(134,0,l)
);
}
);
userData = {
com.schriftgestaltung.Glyphs.category = Letter;
com.schriftgestaltung.Glyphs.script = latin;
com.schriftgestaltung.Glyphs.subCategory = Uppercase;
};
width = 694;
}
);
unicode = 321;
},
{
glyphname = M;
kernLeft = B;
kernRight = H;
lastChange = "2024-05-08 12:15:40 +0000";
layers = (
{
anchors = (
{
name = bottom;
pos = (560,0);
},
{
name = top;
pos = (560,810);
}
);
background = {
shapes = (
{
closed = 1;
nodes = (
(262,0,l),
(262,755,l),
(172,755,l),
(447,0,l),
(601,0,l),
(876,754,l),
(786,754,l),
(786,0,l),
(970,0,l),
(970,810,l),
(729,810,l),
(475,113,l),
(587,113,l),
(332,810,l),
(90,810,l),
(90,0,l)
);
}
);
};
layerId = "3CBDEB72-8799-4680-B3B3-51A575E4F961";
shapes = (
{
closed = 1;
nodes = (
(256,0,l),
(256,538,l),
(260,538,l),
(473,0,l),
(635,0,l),
(848,538,l),
(852,538,l),
(852,0,l),
(1040,0,l),
(1040,810,l),
(788,810,l),
(563,266,l),
(559,266,l),
(333,810,l),
(80,810,l),
(80,0,l)
);
}
);
userData = {
com.schriftgestaltung.Glyphs.category = Letter;
com.schriftgestaltung.Glyphs.script = latin;
com.schriftgestaltung.Glyphs.subCategory = Uppercase;
};
width = 1120;
},
{
anchors = (
{
name = bottom;
pos = (542,0);
},
{
name = top;
pos = (546,810);
}
);
layerId = "A931EBE4-BC38-4F2A-894C-3FB7E511A35E";
shapes = (
{
closed = 1;
nodes = (
(194,0,l),
(194,710,l),
(198,710,l),
(504,0,l),
(580,0,l),
(886,709,l),
(890,709,l),
(890,0,l),
(986,0,l),
(986,810,l),
(842,810,l),
(547,130,l),
(543,130,l),
(249,810,l),
(104,810,l),
(104,0,l)
);
}
);
userData = {
com.schriftgestaltung.Glyphs.category = Letter;
com.schriftgestaltung.Glyphs.script = latin;
com.schriftgestaltung.Glyphs.subCategory = Uppercase;
};
width = 1090;
}
);
unicode = 77;
},
{
glyphname = N;
kernLeft = B;
kernRight = H;
lastChange = "2024-05-08 12:15:40 +0000";
layers = (
{
anchors = (
{
name = bottom;
pos = (459,0);
},
{
name = top;
pos = (478,810);
}
);
background = {
shapes = (
{
closed = 1;
nodes = (
(745,801,l),
(658,801,l),
(658,337,ls),
(658,266,o),
(663,168,o),
(665,130,c),
(661,130,l),
(226,801,l),
(120,801,l),
(120,0,l),
(206,0,l),
(206,460,ls),
(206,540,o),
(201,618,o),
(197,672,c),
(202,672,l),
(638,0,l),
(745,0,l)
);
}
);
};
layerId = "3CBDEB72-8799-4680-B3B3-51A575E4F961";
shapes = (
{
closed = 1;
nodes = (
(860,810,l),
(680,810,l),
(680,265,l),
(676,265,l),
(271,810,l),
(80,810,l),
(80,0,l),
(260,0,l),
(260,530,l),
(264,530,l),
(661,0,l),
(860,0,l)
);
}
);
userData = {
com.schriftgestaltung.Glyphs.category = Letter;
com.schriftgestaltung.Glyphs.script = latin;
com.schriftgestaltung.Glyphs.subCategory = Uppercase;
};
width = 940;
},
{
anchors = (
{
name = bottom;
pos = (455,0);
},
{
name = top;
pos = (477,810);
}
);
background = {
shapes = (
{
closed = 1;
nodes = (
(745,801,l),
(658,801,l),
(658,337,ls),
(658,266,o),
(663,168,o),
(665,130,c),
(661,130,l),
(226,801,l),
(120,801,l),
(120,0,l),
(206,0,l),
(206,460,ls),
(206,540,o),
(201,618,o),
(197,672,c),
(202,672,l),
(638,0,l),
(745,0,l)
);
}
);
};
layerId = "A931EBE4-BC38-4F2A-894C-3FB7E511A35E";
shapes = (
{
closed = 1;
nodes = (
(826,810,l),
(736,810,l),
(736,119,l),
(732,119,l),
(217,810,l),
(104,810,l),
(104,0,l),
(194,0,l),
(194,691,l),
(198,691,l),
(715,0,l),
(826,0,l)
);
}
);
userData = {
com.schriftgestaltung.Glyphs.category = Letter;
com.schriftgestaltung.Glyphs.script = latin;
com.schriftgestaltung.Glyphs.subCategory = Uppercase;
};
width = 930;
}
);
unicode = 78;
},
{
glyphname = Eng;
kernLeft = B;
kernRight = H;
lastChange = "2024-05-08 12:15:40 +0000";
layers = (
{
anchors = (
{
name = bottom;
pos = (459,0);
},
{
name = top;
pos = (478,810);
}
);
layerId = "3CBDEB72-8799-4680-B3B3-51A575E4F961";
shapes = (
{
closed = 1;
nodes = (
(716,-210,ls),
(809,-210,o),
(860,-164,o),
(860,-66,cs),
(860,810,l),
(680,810,l),
(680,295,l),
(676,295,l),
(271,810,l),
(80,810,l),
(80,0,l),
(260,0,l),
(260,530,l),
(264,530,l),
(684,0,l),
(684,-60,l),
(526,-60,l),
(526,-210,l)
);
}
);
userData = {
com.schriftgestaltung.Glyphs.category = Letter;
com.schriftgestaltung.Glyphs.script = latin;
com.schriftgestaltung.Glyphs.subCategory = Uppercase;
};
width = 940;
},
{
anchors = (
{
name = bottom;
pos = (440,-180);
},
{
name = top;
pos = (450,810);
}
);
layerId = "A931EBE4-BC38-4F2A-894C-3FB7E511A35E";
shapes = (
{
closed = 1;
nodes = (
(736,-180,ls),
(792,-180,o),
(826,-150,o),
(826,-90,cs),
(826,810,l),
(736,810,l),
(736,149,l),
(732,149,l),
(217,810,l),
(104,810,l),
(104,0,l),
(194,0,l),
(194,691,l),
(198,691,l),
(736,0,l),
(736,-100,l),
(561,-100,l),
(561,-180,l)
);
}
);
userData = {
com.schriftgestaltung.Glyphs.category = Letter;
com.schriftgestaltung.Glyphs.script = latin;
com.schriftgestaltung.Glyphs.subCategory = Uppercase;
};
width = 930;
}
);
unicode = 330;
},
{
glyphname = O;
kernLeft = C;
kernRight = D;
lastChange = "2024-05-08 12:15:40 +0000";
layers = (
{
anchors = (
{
name = bottom;
pos = (460,0);
},
{
name = center;
pos = (460,405);
},
{
name = ogonek;
pos = (787,10);
},
{
name = top;
pos = (460,810);
},
{
name = topleft;
pos = (-1,810);
},
{
name = topright;
pos = (920,810);
}
);
background = {
shapes = (
{
closed = 1;
nodes = (
(804,652,o),
(676,813,o),
(439,813,cs),
(189,813,o),
(68,648,o),
(68,402,cs),
(68,156,o),
(188,-11,o),
(437,-11,cs),
(677,-11,o),
(804,154,o),
(804,401,cs)
);
},
{
closed = 1;
nodes = (
(166,606,o),
(252,731,o),
(439,731,cs),
(622,731,o),
(706,608,o),
(706,401,cs),
(706,197,o),
(623,70,o),
(437,70,cs),
(252,70,o),
(166,198,o),
(166,401,cs)
);
}
);
};
layerId = "3CBDEB72-8799-4680-B3B3-51A575E4F961";
shapes = (
{
closed = 1;
nodes = (
(710,-12,o),
(876,150,o),
(876,405,cs),
(876,662,o),
(711,822,o),
(460,822,cs),
(210,822,o),
(44,660,o),
(44,405,cs),
(44,151,o),
(210,-12,o),
(460,-12,cs)
);
},
{
closed = 1;
nodes = (
(314,152,o),
(232,252,o),
(232,405,cs),
(232,559,o),
(314,658,o),
(460,658,cs),
(606,658,o),
(688,559,o),
(688,405,cs),
(688,252,o),
(606,152,o),
(460,152,cs)
);
}
);
userData = {
com.schriftgestaltung.Glyphs.category = Letter;
com.schriftgestaltung.Glyphs.script = latin;
com.schriftgestaltung.Glyphs.subCategory = Uppercase;
};
width = 920;
},
{
anchors = (
{
name = bottom;
pos = (460,0);
},
{
name = center;
pos = (460,405);
},
{
name = ogonek;
pos = (511,0);
},
{
name = top;
pos = (460,810);
},
{
name = topleft;
pos = (-21,810);
},
{
name = topright;
pos = (940,810);
}
);
background = {
shapes = (
{
closed = 1;
nodes = (
(804,652,o),
(676,813,o),
(439,813,cs),
(189,813,o),
(68,648,o),
(68,402,cs),
(68,156,o),
(188,-11,o),
(437,-11,cs),
(677,-11,o),
(804,154,o),
(804,401,cs)
);
},
{
closed = 1;
nodes = (
(166,606,o),
(252,731,o),
(439,731,cs),
(622,731,o),
(706,608,o),
(706,401,cs),
(706,197,o),
(623,70,o),
(437,70,cs),
(252,70,o),
(166,198,o),
(166,401,cs)
);
}
);
};
layerId = "A931EBE4-BC38-4F2A-894C-3FB7E511A35E";
shapes = (
{
closed = 1;
nodes = (
(705,-12,o),
(864,152,o),
(864,405,cs),
(864,659,o),
(706,822,o),
(460,822,cs),
(215,822,o),
(56,658,o),
(56,405,cs),
(56,152,o),
(216,-12,o),
(460,-12,cs)
);
},
{
closed = 1;
nodes = (
(271,72,o),
(154,197,o),
(154,405,cs),
(154,613,o),
(271,738,o),
(460,738,cs),
(650,738,o),
(766,613,o),
(766,405,cs),
(766,198,o),
(649,72,o),
(460,72,cs)
);
}
);
userData = {
com.schriftgestaltung.Glyphs.category = Letter;
com.schriftgestaltung.Glyphs.script = latin;
com.schriftgestaltung.Glyphs.subCategory = Uppercase;
};
width = 920;
}
);
unicode = 79;
},
{
glyphname = Oslash;
kernLeft = C;
kernRight = D;
lastChange = "2024-05-08 12:15:40 +0000";
layers = (
{
anchors = (
{
name = bottom;
pos = (460,0);
},
{
name = top;
pos = (460,810);
}
);
guides = (
{
angle = 144.8658;
pos = (730,822);
}
);
layerId = "3CBDEB72-8799-4680-B3B3-51A575E4F961";
shapes = (
{
closed = 1;
nodes = (
(262,29,l),
(319,2,o),
(386,-12,o),
(460,-12,cs),
(710,-12,o),
(876,150,o),
(876,405,cs),
(876,538,o),
(832,645,o),
(754,717,c),
(800,781,l),
(706,847,l),
(659,781,l),
(602,808,o),
(535,822,o),
(460,822,cs),
(210,822,o),
(44,660,o),
(44,405,cs),
(44,273,o),
(89,166,o),
(166,94,c),
(120,29,l),
(214,-37,l)
);
},
{
closed = 1;
nodes = (
(246,286,o),
(232,341,o),
(232,405,cs),
(232,559,o),
(314,658,o),
(460,658,cs),
(497,658,o),
(529,652,o),
(558,640,c),
(274,244,l)
);
},
{
closed = 1;
nodes = (
(423,152,o),
(391,158,o),
(362,170,c),
(646,566,l),
(674,524,o),
(688,469,o),
(688,405,cs),
(688,252,o),
(606,152,o),
(460,152,cs)
);
}
);
userData = {
com.schriftgestaltung.Glyphs.category = Letter;
com.schriftgestaltung.Glyphs.script = latin;
com.schriftgestaltung.Glyphs.subCategory = Uppercase;
};
width = 920;
},
{
anchors = (
{
name = bottom;
pos = (460,0);
},
{
name = top;
pos = (460,810);
}
);
layerId = "A931EBE4-BC38-4F2A-894C-3FB7E511A35E";
shapes = (
{
closed = 1;
nodes = (
(244,42,l),
(304,7,o),
(377,-12,o),
(460,-12,cs),
(705,-12,o),
(864,152,o),
(864,405,cs),
(864,543,o),
(817,654,o),
(735,727,c),
(800,817,l),
(740,859,l),
(676,769,l),
(616,804,o),
(543,822,o),
(460,822,cs),
(215,822,o),
(56,658,o),
(56,405,cs),
(56,268,o),
(103,157,o),
(185,84,c),
(120,-7,l),
(179,-49,l)
);
},
{
closed = 1;
nodes = (
(184,216,o),
(154,300,o),
(154,405,cs),
(154,613,o),
(271,738,o),
(460,738,cs),
(524,738,o),
(579,724,o),
(624,698,c),
(238,158,l)
);
},
{
closed = 1;
nodes = (
(396,72,o),
(341,86,o),
(295,113,c),
(682,652,l),
(736,595,o),
(766,511,o),
(766,405,cs),
(766,198,o),
(649,72,o),
(460,72,cs)
);
}
);
userData = {
com.schriftgestaltung.Glyphs.category = Letter;
com.schriftgestaltung.Glyphs.script = latin;
com.schriftgestaltung.Glyphs.subCategory = Uppercase;
};
width = 920;
}
);
unicode = 216;
},
{
glyphname = OE;
kernLeft = C;
kernRight = E;
lastChange = "2024-05-08 12:15:40 +0000";
layers = (
{
anchors = (
{
name = bottom;
pos = (844,0);
},
{
name = top;
pos = (844,810);
}
);
background = {
shapes = (
{
closed = 1;
nodes = (
(657,-12,o),
(818,150,o),
(818,405,cs),
(818,662,o),
(658,822,o),
(437,822,cs),
(217,822,o),
(56,660,o),
(56,405,cs),
(56,151,o),
(217,-12,o),
(437,-12,cs)
);
},
{
closed = 1;
nodes = (
(318,152,o),
(240,252,o),
(240,405,cs),
(240,559,o),
(318,658,o),
(437,658,cs),
(556,658,o),
(634,559,o),
(634,405,cs),
(634,252,o),
(556,152,o),
(437,152,cs)
);
},
{
closed = 1;
nodes = (
(1512,164,l),
(1146,164,l),
(1146,340,l),
(1480,340,l),
(1480,500,l),
(1146,500,l),
(1146,646,l),
(1512,646,l),
(1512,810,l),
(962,810,l),
(962,0,l),
(1512,0,l)
);
}
);
};
layerId = "3CBDEB72-8799-4680-B3B3-51A575E4F961";
shapes = (
{
closed = 1;
nodes = (
(552,-12,o),
(630,23,o),
(670,86,c),
(674,86,l),
(674,0,l),
(1260,0,l),
(1260,164,l),
(850,164,l),
(850,340,l),
(1227,340,l),
(1227,500,l),
(850,500,l),
(850,646,l),
(1260,646,l),
(1260,810,l),
(674,810,l),
(674,722,l),
(670,722,l),
(630,785,o),
(552,820,o),
(443,820,cs),
(210,820,o),
(44,647,o),
(44,404,cs),
(44,161,o),
(210,-12,o),
(443,-12,cs)
);
},
{
closed = 1;
nodes = (
(328,144,o),
(232,246,o),
(232,406,cs),
(232,562,o),
(328,664,o),
(468,664,cs),
(577,664,o),
(662,609,o),
(662,518,cs),
(662,290,ls),
(662,199,o),
(577,144,o),
(468,144,cs)
);
}
);
userData = {
com.schriftgestaltung.Glyphs.category = Letter;
com.schriftgestaltung.Glyphs.script = latin;
com.schriftgestaltung.Glyphs.subCategory = Uppercase;
};
width = 1310;
},
{
anchors = (
{
name = bottom;
pos = (832,0);
},
{
name = top;
pos = (832,810);
}
);
background = {
shapes = (
{
closed = 1;
nodes = (
(648,-12,o),
(804,150,o),
(804,405,cs),
(804,662,o),
(649,822,o),
(435,822,cs),
(222,822,o),
(66,660,o),
(66,405,cs),
(66,151,o),
(222,-12,o),
(435,-12,cs)
);
},
{
closed = 1;
nodes = (
(267,72,o),
(160,204,o),
(160,405,cs),
(160,607,o),
(267,738,o),
(435,738,cs),
(603,738,o),
(710,607,o),
(710,405,cs),
(710,204,o),
(603,72,o),
(435,72,cs)
);
},
{
closed = 1;
nodes = (
(1490,82,l),
(1076,82,l),
(1076,380,l),
(1470,380,l),
(1470,460,l),
(1076,460,l),
(1076,728,l),
(1490,728,l),
(1490,810,l),
(984,810,l),
(984,0,l),
(1490,0,l)
);
}
);
};
layerId = "A931EBE4-BC38-4F2A-894C-3FB7E511A35E";
shapes = (
{
closed = 1;
nodes = (
(581,-12,o),
(681,47,o),
(713,126,c),
(717,126,l),
(717,0,l),
(1270,0,l),
(1270,82,l),
(812,82,l),
(812,380,l),
(1249,380,l),
(1249,460,l),
(812,460,l),
(812,728,l),
(1270,728,l),
(1270,810,l),
(717,810,l),
(717,684,l),
(713,684,l),
(681,763,o),
(581,822,o),
(451,822,cs),
(219,822,o),
(56,650,o),
(56,405,cs),
(56,160,o),
(219,-12,o),
(451,-12,cs)
);
},
{
closed = 1;
nodes = (
(283,67,o),
(154,210,o),
(154,405,cs),
(154,600,o),
(283,743,o),
(460,743,cs),
(607,743,o),
(716,657,o),
(716,526,cs),
(716,284,ls),
(716,153,o),
(607,67,o),
(460,67,cs)
);
}
);
userData = {
com.schriftgestaltung.Glyphs.category = Letter;
com.schriftgestaltung.Glyphs.script = latin;
com.schriftgestaltung.Glyphs.subCategory = Uppercase;
};
width = 1320;
}
);
unicode = 338;
},
{
glyphname = P;
kernLeft = B;
kernRight = P;
lastChange = "2024-05-08 12:15:40 +0000";
layers = (
{
anchors = (
{
name = bottom;
pos = (350,0);
},
{
name = top;
pos = (389,810);
}
);
layerId = "3CBDEB72-8799-4680-B3B3-51A575E4F961";
shapes = (
{
closed = 1;
nodes = (
(268,0,l),
(268,288,l),
(473,288,ls),
(655,288,o),
(764,387,o),
(764,549,cs),
(764,712,o),
(656,810,o),
(473,810,cs),
(80,810,l),
(80,0,l)
);
},
{
closed = 1;
nodes = (
(268,646,l),
(461,646,ls),
(535,646,o),
(576,611,o),
(576,549,cs),
(576,487,o),
(535,452,o),
(461,452,cs),
(268,452,l)
);
}
);
userData = {
com.schriftgestaltung.Glyphs.category = Letter;
com.schriftgestaltung.Glyphs.script = latin;
com.schriftgestaltung.Glyphs.subCategory = Uppercase;
};
width = 790;
},
{
anchors = (
{
name = bottom;
pos = (135,0);
},
{
name = top;
pos = (369,810);
}
);
background = {
shapes = (
{
closed = 1;
nodes = (
(110,801,l),
(110,0,l),
(203,0,l),
(203,315,l),
(300,315,ls),
(533,315,o),
(617,430,o),
(617,567,cs),
(617,717,o),
(525,801,o),
(319,801,cs)
);
},
{
closed = 1;
nodes = (
(455,721,o),
(520,670,o),
(520,563,cs),
(520,440,o),
(443,395,o),
(290,395,cs),
(203,395,l),
(203,721,l),
(310,721,ls)
);
}
);
};
layerId = "A931EBE4-BC38-4F2A-894C-3FB7E511A35E";
shapes = (
{
closed = 1;
nodes = (
(200,0,l),
(200,318,l),
(459,318,ls),
(638,318,o),
(738,413,o),
(738,564,cs),
(738,716,o),
(639,810,o),
(459,810,cs),
(104,810,l),
(104,0,l)
);
},
{
closed = 1;
nodes = (
(200,730,l),
(455,730,ls),
(577,730,o),
(642,666,o),
(642,564,cs),
(642,462,o),
(577,398,o),
(455,398,cs),
(200,398,l)
);
}
);
userData = {
com.schriftgestaltung.Glyphs.category = Letter;
com.schriftgestaltung.Glyphs.script = latin;
com.schriftgestaltung.Glyphs.subCategory = Uppercase;
};
width = 770;
}
);
unicode = 80;
},
{
glyphname = Thorn;
kernLeft = B;
kernRight = D;
lastChange = "2024-05-08 12:15:40 +0000";
layers = (
{
anchors = (
{
name = bottom;
pos = (375,0);
},
{
name = top;
pos = (375,810);
}
);
guides = (
{
angle = 90;
pos = (268,414);
}
);
layerId = "3CBDEB72-8799-4680-B3B3-51A575E4F961";
shapes = (
{
closed = 1;
nodes = (
(268,0,l),
(268,153,l),
(473,153,ls),
(655,153,o),
(764,252,o),
(764,414,cs),
(764,577,o),
(656,675,o),
(473,675,cs),
(268,675,l),
(268,810,l),
(80,810,l),
(80,0,l)
);
},
{
closed = 1;
nodes = (
(268,511,l),
(461,511,ls),
(535,511,o),
(576,476,o),
(576,414,cs),
(576,352,o),
(535,317,o),
(461,317,cs),
(268,317,l)
);
}
);
userData = {
com.schriftgestaltung.Glyphs.category = Letter;
com.schriftgestaltung.Glyphs.script = latin;
com.schriftgestaltung.Glyphs.subCategory = Uppercase;
};
width = 790;
},
{
anchors = (
{
name = bottom;
pos = (365,0);
},
{
name = top;
pos = (365,810);
}
);
layerId = "A931EBE4-BC38-4F2A-894C-3FB7E511A35E";
shapes = (
{
closed = 1;
nodes = (
(200,0,l),
(200,168,l),
(459,168,ls),
(638,168,o),
(738,263,o),
(738,414,cs),
(738,566,o),
(639,660,o),
(459,660,cs),
(200,660,l),
(200,810,l),
(104,810,l),
(104,0,l)
);
},
{
closed = 1;
nodes = (
(200,580,l),
(455,580,ls),
(577,580,o),
(642,516,o),
(642,414,cs),
(642,312,o),
(577,248,o),
(455,248,cs),
(200,248,l)
);
}
);
userData = {
com.schriftgestaltung.Glyphs.category = Letter;
com.schriftgestaltung.Glyphs.script = latin;
com.schriftgestaltung.Glyphs.subCategory = Uppercase;
};
width = 770;
}
);
unicode = 222;
},
{
glyphname = Q;
kernLeft = C;
kernRight = D;
lastChange = "2024-05-08 12:15:40 +0000";
layers = (
{
anchors = (
{
name = bottom;
pos = (470,0);
},
{
name = top;
pos = (461,810);
}
);
background = {
shapes = (
{
closed = 1;
nodes = (
(711,-12,o),
(877,150,o),
(877,405,cs),
(877,662,o),
(712,822,o),
(461,822,cs),
(211,822,o),
(45,660,o),
(45,405,cs),
(45,151,o),
(211,-12,o),
(461,-12,cs)
);
},
{
closed = 1;
nodes = (
(315,152,o),
(233,252,o),
(233,405,cs),
(233,559,o),
(315,658,o),
(461,658,cs),
(607,658,o),
(689,559,o),
(689,405,cs),
(689,252,o),
(607,152,o),
(461,152,cs)
);
}
);
};
layerId = "3CBDEB72-8799-4680-B3B3-51A575E4F961";
shapes = (
{
closed = 1;
nodes = (
(758,-210,l),
(758,-60,l),
(550,-60,l),
(550,-2,l),
(753,36,o),
(876,186,o),
(876,405,cs),
(876,662,o),
(711,822,o),
(460,822,cs),
(210,822,o),
(44,660,o),
(44,405,cs),
(44,187,o),
(167,36,o),
(370,-2,c),
(370,-66,ls),
(370,-164,o),
(423,-210,o),
(518,-210,cs)
);
},
{
closed = 1;
nodes = (
(314,152,o),
(232,252,o),
(232,405,cs),
(232,559,o),
(314,658,o),
(460,658,cs),
(606,658,o),
(688,559,o),
(688,405,cs),
(688,252,o),
(606,152,o),
(460,152,cs)
);
}
);
userData = {
com.schriftgestaltung.Glyphs.category = Letter;
com.schriftgestaltung.Glyphs.script = latin;
com.schriftgestaltung.Glyphs.subCategory = Uppercase;
};
width = 920;
},
{
anchors = (
{
name = bottom;
pos = (515,-180);
},
{
name = top;
pos = (460,810);
}
);
layerId = "A931EBE4-BC38-4F2A-894C-3FB7E511A35E";
shapes = (
{
closed = 1;
nodes = (
(754,-180,l),
(754,-96,l),
(506,-96,l),
(506,-9,l),
(727,12,o),
(864,171,o),
(864,405,cs),
(864,659,o),
(706,822,o),
(460,822,cs),
(215,822,o),
(56,658,o),
(56,405,cs),
(56,170,o),
(195,11,o),
(416,-10,c),
(416,-90,ls),
(416,-148,o),
(450,-180,o),
(509,-180,cs)
);
},
{
closed = 1;
nodes = (
(271,70,o),
(154,196,o),
(154,405,cs),
(154,615,o),
(270,740,o),
(460,740,cs),
(650,740,o),
(766,615,o),
(766,405,cs),
(766,196,o),
(649,70,o),
(460,70,cs)
);
}
);
userData = {
com.schriftgestaltung.Glyphs.category = Letter;
com.schriftgestaltung.Glyphs.script = latin;
com.schriftgestaltung.Glyphs.subCategory = Uppercase;
};
width = 920;
}
);
unicode = 81;
},
{
glyphname = R;
kernLeft = B;
kernRight = R;
lastChange = "2024-05-08 12:15:40 +0000";
layers = (
{
anchors = (
{
name = bottom;
pos = (430,0);
},
{
name = top;
pos = (421,810);
}
);
background = {
shapes = (
{
closed = 1;
nodes = (
(385,368,l),
(578,420,l),
(645,458,o),
(676,518,o),
(676,589,cs),
(676,730,o),
(582,810,o),
(385,810,cs),
(108,810,l),
(108,0,l),
(200,0,l),
(200,340,l),
(544,340,ls),
(585,340,o),
(604,322,o),
(604,280,cs),
(604,-2,l),
(694,-2,l),
(694,288,ls),
(694,374,o),
(644,420,o),
(562,420,cs),
(200,420,l),
(200,730,l),
(379,730,ls),
(515,730,o),
(579,677,o),
(579,574,cs),
(579,472,o),
(515,420,o),
(379,420,c)
);
}
);
};
guides = (
{
angle = 270;
pos = (740,141);
},
{
angle = 90;
pos = (556,140);
}
);
layerId = "3CBDEB72-8799-4680-B3B3-51A575E4F961";
name = "Bold alt";
shapes = (
{
closed = 1;
nodes = (
(268,0,l),
(268,300,l),
(602,300,l),
(602,0,l),
(790,0,l),
(790,282,ls),
(790,366,o),
(746,408,o),
(669,408,c),
(669,412,l),
(743,435,o),
(790,499,o),
(790,590,cs),
(790,726,o),
(684,810,o),
(510,810,cs),
(80,810,l),
(80,0,l)
);
},
{
closed = 1;
nodes = (
(268,646,l),
(498,646,ls),
(567,646,o),
(606,613,o),
(606,555,cs),
(606,497,o),
(567,464,o),
(498,464,cs),
(268,464,l)
);
}
);
userData = {
com.schriftgestaltung.Glyphs.category = Letter;
com.schriftgestaltung.Glyphs.script = latin;
com.schriftgestaltung.Glyphs.subCategory = Uppercase;
};
width = 860;
},
{
anchors = (
{
name = bottom;
pos = (424,0);
},
{
name = top;
pos = (369,810);
}
);
background = {
shapes = (
{
closed = 1;
nodes = (
(385,368,l),
(578,420,l),
(645,458,o),
(676,518,o),
(676,589,cs),
(676,730,o),
(582,810,o),
(385,810,cs),
(108,810,l),
(108,0,l),
(200,0,l),
(200,340,l),
(544,340,ls),
(585,340,o),
(604,322,o),
(604,280,cs),
(604,-2,l),
(694,-2,l),
(694,288,ls),
(694,374,o),
(644,420,o),
(562,420,cs),
(200,420,l),
(200,730,l),
(379,730,ls),
(515,730,o),
(579,677,o),
(579,574,cs),
(579,472,o),
(515,420,o),
(379,420,c)
);
}
);
};
layerId = "A931EBE4-BC38-4F2A-894C-3FB7E511A35E";
shapes = (
{
closed = 1;
nodes = (
(200,0,l),
(200,340,l),
(648,340,l),
(648,0,l),
(744,0,l),
(744,325,ls),
(744,382,o),
(709,415,o),
(649,415,c),
(649,420,l),
(715,460,o),
(744,518,o),
(744,588,cs),
(744,730,o),
(645,810,o),
(482,810,cs),
(104,810,l),
(104,0,l)
);
},
{
closed = 1;
nodes = (
(200,730,l),
(472,730,ls),
(582,730,o),
(648,674,o),
(648,574,cs),
(648,474,o),
(582,418,o),
(472,418,cs),
(200,418,l)
);
}
);
userData = {
com.schriftgestaltung.Glyphs.category = Letter;
com.schriftgestaltung.Glyphs.script = latin;
com.schriftgestaltung.Glyphs.subCategory = Uppercase;
};
width = 830;
}
);
unicode = 82;
},
{
glyphname = S;
kernLeft = S;
kernRight = S;
lastChange = "2024-05-08 12:15:40 +0000";
layers = (
{
anchors = (
{
name = bottom;
pos = (413,0);
},
{
name = top;
pos = (388,810);
}
);
background = {
shapes = (
{
closed = 1;
nodes = (
(550,-12,o),
(656,82,o),
(656,225,cs),
(656,339,o),
(588,412,o),
(454,442,cs),
(324,471,ls),
(222,494,o),
(181,540,o),
(181,605,cs),
(181,687,o),
(249,738,o),
(352,738,cs),
(463,738,o),
(534,684,o),
(552,582,c),
(650,582,l),
(634,726,o),
(524,822,o),
(357,822,cs),
(194,822,o),
(91,727,o),
(91,598,cs),
(91,489,o),
(164,417,o),
(295,389,cs),
(420,362,ls),
(520,340,o),
(566,293,o),
(566,218,cs),
(566,126,o),
(498,72,o),
(375,72,cs),
(247,72,o),
(165,131,o),
(153,240,c),
(55,240,l),
(65,90,o),
(186,-12,o),
(372,-12,cs)
);
}
);
};
guides = (
{
angle = 167.4211;
pos = (356,364);
},
{
angle = -12.5789;
pos = (388,468);
}
);
layerId = "3CBDEB72-8799-4680-B3B3-51A575E4F961";
shapes = (
{
closed = 1;
nodes = (
(627,-12,o),
(748,81,o),
(748,243,cs),
(748,374,o),
(678,447,o),
(517,480,cs),
(338,517,ls),
(281,529,o),
(252,555,o),
(252,595,cs),
(252,648,o),
(301,678,o),
(383,678,cs),
(478,678,o),
(531,641,o),
(550,564,c),
(742,564,l),
(729,726,o),
(597,822,o),
(394,822,cs),
(192,822,o),
(68,730,o),
(68,577,cs),
(68,455,o),
(141,382,o),
(296,349,cs),
(467,313,ls),
(536,298,o),
(564,274,o),
(564,228,cs),
(564,168,o),
(515,138,o),
(417,138,cs),
(308,138,o),
(245,179,o),
(230,263,c),
(38,263,l),
(50,90,o),
(189,-12,o),
(410,-12,cs)
);
}
);
userData = {
com.schriftgestaltung.Glyphs.category = Letter;
com.schriftgestaltung.Glyphs.script = latin;
com.schriftgestaltung.Glyphs.subCategory = Uppercase;
};
width = 780;
},
{
anchors = (
{
name = bottom;
pos = (391,0);
},
{
name = top;
pos = (371,810);
}
);
background = {
shapes = (
{
closed = 1;
nodes = (
(622,340,o),
(543,391,o),
(402,442,cs),
(273,490,o),
(223,522,o),
(223,607,cs),
(223,682,o),
(280,730,o),
(382,730,cs),
(451,730,o),
(517,712,o),
(574,688,c),
(603,768,l),
(542,795,o),
(470,812,o),
(385,812,cs),
(234,812,o),
(129,735,o),
(129,608,cs),
(129,483,o),
(201,421,o),
(337,373,cs),
(481,321,o),
(529,287,o),
(529,205,cs),
(529,120,o),
(462,70,o),
(342,70,cs),
(256,70,o),
(173,93,o),
(118,116,c),
(118,26,l),
(170,3,o),
(247,-11,o),
(339,-11,cs),
(510,-11,o),
(622,70,o),
(622,213,cs)
);
}
);
};
guides = (
{
angle = 167.4211;
pos = (358,364);
},
{
angle = -12.5789;
pos = (390,468);
}
);
layerId = "A931EBE4-BC38-4F2A-894C-3FB7E511A35E";
shapes = (
{
closed = 1;
nodes = (
(578,-12,o),
(694,76,o),
(694,225,cs),
(694,339,o),
(621,414,o),
(484,441,cs),
(327,472,ls),
(230,491,o),
(179,537,o),
(179,605,cs),
(179,690,o),
(248,738,o),
(366,738,cs),
(489,738,o),
(564,687,o),
(585,582,c),
(688,582,l),
(669,733,o),
(549,822,o),
(371,822,cs),
(195,822,o),
(85,735,o),
(85,598,cs),
(85,491,o),
(161,416,o),
(297,390,cs),
(448,361,ls),
(548,342,o),
(600,293,o),
(600,218,cs),
(600,122,o),
(524,72,o),
(390,72,cs),
(237,72,o),
(149,133,o),
(146,240,c),
(43,240,l),
(55,83,o),
(183,-12,o),
(387,-12,cs)
);
}
);
userData = {
com.schriftgestaltung.Glyphs.category = Letter;
com.schriftgestaltung.Glyphs.script = latin;
com.schriftgestaltung.Glyphs.subCategory = Uppercase;
};
width = 760;
}
);
unicode = 83;
},
{
glyphname = Germandbls;
kernLeft = H;
kernRight = B;
lastChange = "2024-05-08 12:15:40 +0000";
layers = (
{
guides = (
{
angle = 90;
pos = (258,366);
},
{
angle = 270;
pos = (74,358);
},
{
angle = 228.6522;
pos = (570,642);
}
);
layerId = "3CBDEB72-8799-4680-B3B3-51A575E4F961";
shapes = (
{
closed = 1;
nodes = (
(585,0,ls),
(749,1,o),
(870,97,o),
(870,245,cs),
(870,375,o),
(775,465,o),
(637,482,c),
(637,487,l),
(834,687,l),
(834,810,l),
(211,810,ls),
(124,810,o),
(80,768,o),
(80,684,cs),
(80,0,l),
(268,0,l),
(268,646,l),
(588,646,l),
(588,642,l),
(414,466,l),
(414,346,l),
(556,346,ls),
(632,346,o),
(682,314,o),
(682,256,cs),
(682,196,o),
(631,163,o),
(555,163,cs),
(346,163,l),
(346,-1,l)
);
}
);
userData = {
com.schriftgestaltung.Glyphs.category = Letter;
com.schriftgestaltung.Glyphs.script = latin;
com.schriftgestaltung.Glyphs.subCategory = Uppercase;
};
width = 900;
},
{
background = {
shapes = (
{
closed = 1;
nodes = (
(206,0,l),
(206,511,ls),
(206,657,o),
(294,740,o),
(450,740,cs),
(519,740,o),
(583,723,o),
(631,702,c),
(631,698,l),
(406,450,l),
(406,388,l),
(512,388,ls),
(617,388,o),
(686,327,o),
(686,235,cs),
(686,142,o),
(617,82,o),
(512,82,cs),
(299,82,l),
(299,0,l),
(516,0,ls),
(674,0,o),
(774,91,o),
(774,235,cs),
(774,374,o),
(670,464,o),
(518,465,c),
(720,687,l),
(720,759,l),
(635,800,o),
(553,822,o),
(455,822,cs),
(240,822,o),
(114,707,o),
(114,512,cs),
(114,0,l)
);
}
);
};
layerId = "A931EBE4-BC38-4F2A-894C-3FB7E511A35E";
shapes = (
{
closed = 1;
nodes = (
(542,0,ls),
(705,1,o),
(832,96,o),
(832,247,cs),
(832,384,o),
(726,475,o),
(584,487,c),
(584,491,l),
(796,728,l),
(796,810,l),
(199,810,ls),
(139,810,o),
(104,777,o),
(104,720,cs),
(104,0,l),
(200,0,l),
(200,728,l),
(690,728,l),
(690,724,l),
(469,474,l),
(469,410,l),
(528,410,ls),
(651,410,o),
(736,355,o),
(736,247,cs),
(736,139,o),
(649,81,o),
(527,81,cs),
(294,81,l),
(294,-1,l)
);
}
);
userData = {
com.schriftgestaltung.Glyphs.category = Letter;
com.schriftgestaltung.Glyphs.script = latin;
com.schriftgestaltung.Glyphs.subCategory = Uppercase;
};
width = 880;
},
{
associatedMasterId = "A931EBE4-BC38-4F2A-894C-3FB7E511A35E";
background = {
anchors = (
{
name = bottom;
pos = (394,0);
},
{
name = top;
pos = (394,810);
}
);
shapes = (
{
closed = 1;
nodes = (
(199,812,o),
(102,688,o),
(102,520,cs),
(102,0,l),
(194,0,l),
(194,520,ls),
(194,646,o),
(257,731,o),
(395,731,cs),
(486,731,o),
(537,695,o),
(563,638,c),
(389,452,l),
(389,384,l),
(454,384,ls),
(585,384,o),
(652,332,o),
(652,232,cs),
(652,128,o),
(596,66,o),
(468,66,cs),
(401,66,o),
(326,85,o),
(269,117,c),
(269,31,l),
(326,1,o),
(394,-10,o),
(472,-10,cs),
(664,-10,o),
(749,90,o),
(749,232,cs),
(749,375,o),
(645,457,o),
(503,461,c),
(664,633,l),
(629,742,o),
(547,812,o),
(400,812,cs)
);
}
);
};
guides = (
{
angle = 47.6507;
pos = (618,696);
}
);
layerId = "E401315D-0497-4CEF-B0BE-4CBB82FADA20";
name = "19 Apr 24 at 13:31";
shapes = (
{
closed = 1;
nodes = (
(194,0,l),
(194,511,ls),
(194,657,o),
(282,740,o),
(438,740,cs),
(507,740,o),
(571,723,o),
(619,702,c),
(619,698,l),
(394,450,l),
(394,388,l),
(500,388,ls),
(605,388,o),
(674,327,o),
(674,235,cs),
(674,142,o),
(605,82,o),
(500,82,cs),
(287,82,l),
(287,0,l),
(504,0,ls),
(662,0,o),
(762,91,o),
(762,235,cs),
(762,374,o),
(658,464,o),
(506,465,c),
(708,687,l),
(708,759,l),
(623,800,o),
(541,822,o),
(443,822,cs),
(228,822,o),
(102,707,o),
(102,512,cs),
(102,0,l)
);
}
);
userData = {
com.schriftgestaltung.Glyphs.category = Letter;
com.schriftgestaltung.Glyphs.script = latin;
com.schriftgestaltung.Glyphs.subCategory = Uppercase;
};
width = 788;
},
{
associatedMasterId = "A931EBE4-BC38-4F2A-894C-3FB7E511A35E";
background = {
shapes = (
{
closed = 1;
nodes = (
(194,0,l),
(194,511,ls),
(194,657,o),
(282,740,o),
(438,740,cs),
(507,740,o),
(571,723,o),
(619,702,c),
(619,698,l),
(394,450,l),
(394,388,l),
(500,388,ls),
(605,388,o),
(674,327,o),
(674,235,cs),
(674,142,o),
(605,82,o),
(500,82,cs),
(287,82,l),
(287,0,l),
(504,0,ls),
(662,0,o),
(762,91,o),
(762,235,cs),
(762,374,o),
(658,464,o),
(506,465,c),
(708,687,l),
(708,759,l),
(623,800,o),
(541,822,o),
(443,822,cs),
(228,822,o),
(102,707,o),
(102,512,cs),
(102,0,l)
);
}
);
};
guides = (
{
angle = 47.6507;
pos = (618,696);
}
);
layerId = "51BAE807-FFA5-4A22-98B6-950B449A82AC";
name = "19 Apr 24 at 13:38";
shapes = (
{
closed = 1;
nodes = (
(453,816,ls),
(580,816,o),
(674,737,o),
(674,606,cs),
(674,509,o),
(609,448,o),
(538,433,c),
(538,429,l),
(615,421,o),
(710,359,o),
(710,227,cs),
(710,88,o),
(605,1,o),
(469,0,cs),
(276,-1,l),
(276,82,l),
(449,82,ls),
(549,82,o),
(618,134,o),
(618,232,cs),
(618,330,o),
(550,380,o),
(450,380,cs),
(306,380,l),
(306,460,l),
(442,460,ls),
(525,460,o),
(582,508,o),
(582,597,cs),
(582,686,o),
(525,734,o),
(442,734,cs),
(349,734,ls),
(254,734,o),
(188,679,o),
(188,577,cs),
(188,0,l),
(96,0,l),
(96,586,ls),
(96,729,o),
(199,816,o),
(338,816,cs)
);
}
);
userData = {
com.schriftgestaltung.Glyphs.category = Letter;
com.schriftgestaltung.Glyphs.script = latin;
com.schriftgestaltung.Glyphs.subCategory = Uppercase;
};
width = 788;
}
);
unicode = 7838;
},
{
glyphname = T;
kernLeft = T;
kernRight = T;
lastChange = "2024-05-10 05:49:55 +0000";
layers = (
{
anchors = (
{
name = bottom;
pos = (370,0);
},
{
name = center;
pos = (370,405);
},
{
name = top;
pos = (370,810);
}
);
layerId = "3CBDEB72-8799-4680-B3B3-51A575E4F961";
shapes = (
{
closed = 1;
nodes = (
(462,646,l),
(716,646,l),
(716,810,l),
(24,810,l),
(24,646,l),
(278,646,l),
(278,0,l),
(462,0,l)
);
}
);
userData = {
com.schriftgestaltung.Glyphs.category = Letter;
com.schriftgestaltung.Glyphs.script = latin;
com.schriftgestaltung.Glyphs.subCategory = Uppercase;
};
width = 740;
},
{
anchors = (
{
name = bottom;
pos = (370,0);
},
{
name = center;
pos = (370,405);
},
{
name = top;
pos = (370,810);
}
);
layerId = "A931EBE4-BC38-4F2A-894C-3FB7E511A35E";
shapes = (
{
closed = 1;
nodes = (
(418,728,l),
(716,728,l),
(716,810,l),
(24,810,l),
(24,728,l),
(322,728,l),
(322,0,l),
(418,0,l)
);
}
);
userData = {
com.schriftgestaltung.Glyphs.category = Letter;
com.schriftgestaltung.Glyphs.script = latin;
com.schriftgestaltung.Glyphs.subCategory = Uppercase;
};
width = 740;
}
);
unicode = 84;
},
{
glyphname = U;
kernLeft = U;
kernRight = U;
lastChange = "2024-05-08 12:15:40 +0000";
layers = (
{
anchors = (
{
name = bottom;
pos = (440,0);
},
{
name = ogonek;
pos = (551,0);
},
{
name = top;
pos = (440,810);
},
{
name = topright;
pos = (878,810);
}
);
layerId = "3CBDEB72-8799-4680-B3B3-51A575E4F961";
shapes = (
{
closed = 1;
nodes = (
(668,-12,o),
(808,92,o),
(808,304,cs),
(808,810,l),
(620,810,l),
(620,335,ls),
(620,237,o),
(571,164,o),
(442,164,cs),
(316,164,o),
(264,229,o),
(264,336,cs),
(264,810,l),
(72,810,l),
(72,306,ls),
(72,84,o),
(218,-12,o),
(437,-12,cs)
);
}
);
userData = {
com.schriftgestaltung.Glyphs.category = Letter;
com.schriftgestaltung.Glyphs.script = latin;
com.schriftgestaltung.Glyphs.subCategory = Uppercase;
};
width = 880;
},
{
anchors = (
{
name = bottom;
pos = (430,0);
},
{
name = ogonek;
pos = (527,0);
},
{
name = top;
pos = (431,810);
},
{
name = topright;
pos = (858,810);
}
);
layerId = "A931EBE4-BC38-4F2A-894C-3FB7E511A35E";
shapes = (
{
closed = 1;
nodes = (
(646,-12,o),
(768,93,o),
(768,284,cs),
(768,810,l),
(674,810,l),
(674,285,ls),
(674,145,o),
(592,74,o),
(432,74,cs),
(267,74,o),
(188,143,o),
(188,286,cs),
(188,810,l),
(92,810,l),
(92,286,ls),
(92,92,o),
(210,-12,o),
(427,-12,cs)
);
}
);
userData = {
com.schriftgestaltung.Glyphs.category = Letter;
com.schriftgestaltung.Glyphs.script = latin;
com.schriftgestaltung.Glyphs.subCategory = Uppercase;
};
width = 860;
}
);
unicode = 85;
},
{
glyphname = V;
kernLeft = V;
kernRight = V;
lastChange = "2024-05-08 12:15:40 +0000";
layers = (
{
anchors = (
{
name = bottom;
pos = (440,0);
},
{
name = top;
pos = (440,810);
}
);
layerId = "3CBDEB72-8799-4680-B3B3-51A575E4F961";
shapes = (
{
closed = 1;
nodes = (
(549,0,l),
(868,810,l),
(665,810,l),
(446,216,l),
(441,216,l),
(219,810,l),
(12,810,l),
(331,0,l)
);
}
);
userData = {
com.schriftgestaltung.Glyphs.category = Letter;
com.schriftgestaltung.Glyphs.script = latin;
com.schriftgestaltung.Glyphs.subCategory = Uppercase;
};
width = 880;
},
{
anchors = (
{
name = bottom;
pos = (409,0);
},
{
name = top;
pos = (409,810);
}
);
background = {
shapes = (
{
closed = 1;
nodes = (
(676,801,l),
(490,275,ls),
(467,210,o),
(450,155,o),
(440,105,c),
(429,155,o),
(413,209,o),
(391,273,cs),
(203,801,l),
(106,801,l),
(393,0,l),
(487,0,l),
(775,801,l)
);
}
);
};
layerId = "A931EBE4-BC38-4F2A-894C-3FB7E511A35E";
shapes = (
{
closed = 1;
nodes = (
(469,0,l),
(808,810,l),
(709,810,l),
(415,96,l),
(410,96,l),
(115,810,l),
(12,810,l),
(351,0,l)
);
}
);
userData = {
com.schriftgestaltung.Glyphs.category = Letter;
com.schriftgestaltung.Glyphs.script = latin;
com.schriftgestaltung.Glyphs.subCategory = Uppercase;
};
width = 820;
}
);
unicode = 86;
},
{
glyphname = W;
kernLeft = V;
kernRight = V;
lastChange = "2024-05-08 12:15:40 +0000";
layers = (
{
anchors = (
{
name = bottom;
pos = (604,0);
},
{
name = top;
pos = (604,810);
}
);
layerId = "3CBDEB72-8799-4680-B3B3-51A575E4F961";
shapes = (
{
closed = 1;
nodes = (
(440,0,l),
(599,532,l),
(603,532,l),
(770,0,l),
(955,0,l),
(1184,810,l),
(985,810,l),
(853,301,l),
(849,301,l),
(681,810,l),
(521,810,l),
(362,301,l),
(357,301,l),
(224,810,l),
(26,810,l),
(255,0,l)
);
}
);
userData = {
com.schriftgestaltung.Glyphs.category = Letter;
com.schriftgestaltung.Glyphs.script = latin;
com.schriftgestaltung.Glyphs.subCategory = Uppercase;
};
width = 1210;
},
{
anchors = (
{
name = bottom;
pos = (589,0);
},
{
name = top;
pos = (585,810);
}
);
layerId = "A931EBE4-BC38-4F2A-894C-3FB7E511A35E";
shapes = (
{
closed = 1;
nodes = (
(382,0,l),
(582,699,l),
(586,699,l),
(798,0,l),
(903,0,l),
(1144,810,l),
(1045,810,l),
(851,114,l),
(847,114,l),
(635,810,l),
(536,810,l),
(335,114,l),
(330,114,l),
(134,810,l),
(36,810,l),
(277,0,l)
);
}
);
userData = {
com.schriftgestaltung.Glyphs.category = Letter;
com.schriftgestaltung.Glyphs.script = latin;
com.schriftgestaltung.Glyphs.subCategory = Uppercase;
};
width = 1180;
}
);
unicode = 87;
},
{
glyphname = X;
kernLeft = X;
kernRight = K;
lastChange = "2024-05-08 12:15:40 +0000";
layers = (
{
anchors = (
{
name = bottom;
pos = (419,0);
},
{
name = top;
pos = (420,810);
}
);
guides = (
{
angle = 125.5505;
pos = (621,0);
},
{
angle = 234.3213;
pos = (210,0);
}
);
layerId = "3CBDEB72-8799-4680-B3B3-51A575E4F961";
shapes = (
{
closed = 1;
nodes = (
(218,0,l),
(415,281,l),
(419,281,l),
(616,0,l),
(836,0,l),
(532,424,l),
(814,810,l),
(604,810,l),
(425,555,l),
(421,555,l),
(242,810,l),
(26,810,l),
(308,422,l),
(4,0,l)
);
}
);
userData = {
com.schriftgestaltung.Glyphs.category = Letter;
com.schriftgestaltung.Glyphs.script = latin;
com.schriftgestaltung.Glyphs.subCategory = Uppercase;
};
width = 840;
},
{
anchors = (
{
name = bottom;
pos = (381,0);
},
{
name = top;
pos = (388,810);
}
);
background = {
shapes = (
{
closed = 1;
nodes = (
(684,810,l),
(592,810,l),
(592,461,l),
(154,461,l),
(154,810,l),
(62,810,l),
(62,0,l),
(154,0,l),
(154,379,l),
(592,379,l),
(592,0,l),
(684,0,l)
);
}
);
};
layerId = "A931EBE4-BC38-4F2A-894C-3FB7E511A35E";
shapes = (
{
closed = 1;
nodes = (
(122,0,l),
(381,357,l),
(386,357,l),
(641,0,l),
(750,0,l),
(444,424,l),
(728,810,l),
(627,810,l),
(391,486,l),
(386,486,l),
(149,810,l),
(42,810,l),
(326,422,l),
(20,0,l)
);
}
);
userData = {
com.schriftgestaltung.Glyphs.category = Letter;
com.schriftgestaltung.Glyphs.script = latin;
com.schriftgestaltung.Glyphs.subCategory = Uppercase;
};
width = 770;
}
);
unicode = 88;
},
{
glyphname = Y;
kernLeft = Y;
kernRight = Y;
lastChange = "2024-05-08 12:15:40 +0000";
layers = (
{
anchors = (
{
name = bottom;
pos = (400,0);
},
{
name = top;
pos = (400,810);
},
{
name = topleft;
pos = (8,810);
}
);
guides = (
{
angle = 59.9891;
pos = (576,810);
},
{
angle = -60.0864;
pos = (211,810);
}
);
layerId = "3CBDEB72-8799-4680-B3B3-51A575E4F961";
shapes = (
{
closed = 1;
nodes = (
(494,0,l),
(494,301,l),
(788,810,l),
(584,810,l),
(405,489,l),
(401,489,l),
(223,810,l),
(12,810,l),
(306,299,l),
(306,0,l)
);
}
);
userData = {
com.schriftgestaltung.Glyphs.category = Letter;
com.schriftgestaltung.Glyphs.script = latin;
com.schriftgestaltung.Glyphs.subCategory = Uppercase;
};
width = 800;
},
{
anchors = (
{
name = bottom;
pos = (370,0);
},
{
name = top;
pos = (373,810);
},
{
name = topleft;
pos = (-14,810);
}
);
layerId = "A931EBE4-BC38-4F2A-894C-3FB7E511A35E";
shapes = (
{
closed = 1;
nodes = (
(418,0,l),
(418,308,l),
(728,810,l),
(624,810,l),
(375,403,l),
(371,403,l),
(124,810,l),
(12,810,l),
(322,306,l),
(322,0,l)
);
}
);
userData = {
com.schriftgestaltung.Glyphs.category = Letter;
com.schriftgestaltung.Glyphs.script = latin;
com.schriftgestaltung.Glyphs.subCategory = Uppercase;
};
width = 740;
}
);
unicode = 89;
},
{
glyphname = Z;
kernLeft = Z;
kernRight = Z;
lastChange = "2024-05-08 12:15:40 +0000";
layers = (
{
anchors = (
{
name = bottom;
pos = (354,0);
},
{
name = center;
pos = (354,405);
},
{
name = top;
pos = (354,810);
}
);
guides = (
{
angle = 55.5915;
pos = (444,415);
},
{
angle = 235.5915;
pos = (224,395);
}
);
layerId = "3CBDEB72-8799-4680-B3B3-51A575E4F961";
shapes = (
{
closed = 1;
nodes = (
(686,0,l),
(686,164,l),
(271,164,l),
(674,686,l),
(674,810,l),
(42,810,l),
(42,646,l),
(428,646,l),
(24,124,l),
(24,0,l)
);
}
);
userData = {
com.schriftgestaltung.Glyphs.category = Letter;
com.schriftgestaltung.Glyphs.script = latin;
com.schriftgestaltung.Glyphs.subCategory = Uppercase;
};
width = 710;
},
{
anchors = (
{
name = bottom;
pos = (357,0);
},
{
name = center;
pos = (357,405);
},
{
name = top;
pos = (357,810);
}
);
layerId = "A931EBE4-BC38-4F2A-894C-3FB7E511A35E";
shapes = (
{
closed = 1;
nodes = (
(676,0,l),
(676,82,l),
(162,82,l),
(664,738,l),
(664,810,l),
(62,810,l),
(62,728,l),
(546,728,l),
(44,72,l),
(44,0,l)
);
}
);
userData = {
com.schriftgestaltung.Glyphs.category = Letter;
com.schriftgestaltung.Glyphs.script = latin;
com.schriftgestaltung.Glyphs.subCategory = Uppercase;
};
width = 720;
}
);
unicode = 90;
},
{
export = 0;
glyphname = J.ss01;
kernLeft = B;
kernRight = H;
lastChange = "2024-06-03 06:01:48 +0000";
layers = (
{
anchors = (
{
name = bottom;
pos = (88,-180);
},
{
name = top;
pos = (155,810);
}
);
layerId = "A931EBE4-BC38-4F2A-894C-3FB7E511A35E";
name = Light;
shapes = (
{
closed = 1;
nodes = (
(109,-180,ls),
(167,-180,o),
(203,-150,o),
(203,-90,cs),
(203,810,l),
(107,810,l),
(107,-100,l),
(-28,-100,l),
(-28,-180,l)
);
}
);
userData = {
com.schriftgestaltung.Glyphs.category = Letter;
com.schriftgestaltung.Glyphs.script = latin;
com.schriftgestaltung.Glyphs.subCategory = Uppercase;
};
width = 310;
},
{
anchors = (
{
name = bottom;
pos = (164,0);
},
{
name = top;
pos = (179,810);
}
);
background = {
shapes = (
{
closed = 1;
nodes = (
(274,0,l),
(274,810,l),
(86,810,l),
(86,0,l)
);
}
);
};
layerId = "3CBDEB72-8799-4680-B3B3-51A575E4F961";
name = Bold;
shapes = (
{
closed = 1;
nodes = (
(126,-210,ls),
(221,-210,o),
(274,-164,o),
(274,-66,cs),
(274,810,l),
(86,810,l),
(86,-60,l),
(-27,-60,l),
(-27,-210,l)
);
}
);
userData = {
com.schriftgestaltung.Glyphs.category = Letter;
com.schriftgestaltung.Glyphs.script = latin;
com.schriftgestaltung.Glyphs.subCategory = Uppercase;
};
width = 360;
}
);
},
{
glyphname = a;
kernLeft = a;
kernRight = a;
lastChange = "2024-05-08 12:15:40 +0000";
layers = (
{
anchors = (
{
name = bottom;
pos = (342,0);
},
{
name = ogonek;
pos = (700,0);
},
{
name = top;
pos = (335,600);
}
);
background = {
shapes = (
{
closed = 1;
nodes = (
(317,-11,o),
(371,19,o),
(404,77,c),
(408,77,l),
(408,0,l),
(574,0,l),
(574,375,ls),
(574,525,o),
(481,612,o),
(319,612,cs),
(170,612,o),
(77,539,o),
(54,406,c),
(232,406,l),
(243,445,o),
(276,468,o),
(320,468,cs),
(371,468,o),
(402,437,o),
(402,386,cs),
(402,241,ls),
(402,175,o),
(350,127,o),
(280,127,cs),
(234,127,o),
(208,148,o),
(208,184,cs),
(208,219,o),
(230,239,o),
(272,244,cs),
(447,265,l),
(447,385,l),
(228,360,ls),
(105,346,o),
(36,280,o),
(36,175,cs),
(36,62,o),
(116,-11,o),
(241,-11,cs)
);
}
);
};
guides = (
{
angle = 90;
pos = (574,193);
},
{
angle = 270;
pos = (402,312);
},
{
angle = 90;
pos = (177,164);
},
{
angle = 90;
pos = (9,163);
},
{
angle = 180;
pos = (143,406);
},
{
pos = (338,373);
},
{
pos = (360,255);
}
);
layerId = "3CBDEB72-8799-4680-B3B3-51A575E4F961";
name = "Bold alt";
shapes = (
{
closed = 1;
nodes = (
(367,-11,o),
(433,28,o),
(474,100,c),
(516,100,l),
(516,0,l),
(700,0,l),
(700,180,l),
(614,180,l),
(614,375,ls),
(614,529,o),
(515,612,o),
(333,612,cs),
(167,612,o),
(68,542,o),
(40,406,c),
(222,406,l),
(236,449,o),
(270,468,o),
(334,468,cs),
(402,468,o),
(438,441,o),
(438,386,cs),
(438,364,l),
(277,364,ls),
(120,364,o),
(32,297,o),
(32,178,cs),
(32,63,o),
(117,-11,o),
(261,-11,cs)
);
},
{
closed = 1;
nodes = (
(238,127,o),
(208,148,o),
(208,187,cs),
(208,224,o),
(236,244,o),
(285,244,cs),
(438,244,l),
(438,241,ls),
(438,177,o),
(376,127,o),
(289,127,cs)
);
}
);
userData = {
com.schriftgestaltung.Glyphs.category = Letter;
com.schriftgestaltung.Glyphs.script = latin;
com.schriftgestaltung.Glyphs.subCategory = Lowercase;
};
width = 720;
},
{
anchors = (
{
name = bottom;
pos = (330,0);
},
{
name = ogonek;
pos = (614,0);
},
{
name = top;
pos = (319,600);
}
);
background = {
shapes = (
{
closed = 1;
nodes = (
(178,-12,o),
(88,34,o),
(36,115,o),
(36,166,qs),
(36,258,o),
(164,344,o),
(254,352,qs),
(420,365,l),
(420,384,ls),
(420,446,o),
(353,516,o),
(295,516,qs),
(286,516,ls),
(236,516,o),
(167,469,o),
(162,426,q),
(48,426,l),
(53,509,o),
(188,612,o),
(290,612,qs),
(367,612,o),
(478,551,o),
(534,446,o),
(534,384,qs),
(534,132,ls),
(534,42,o),
(540,0,q),
(432,0,l),
(426,30,o),
(426,96,q),
(407,52,o),
(302,-12,o),
(234,-12,qs)
);
},
{
closed = 1;
nodes = (
(257,84,ls),
(294,84,o),
(370,120,o),
(420,181,o),
(420,216,qs),
(420,277,l),
(270,265,ls),
(216,260,o),
(150,211,o),
(150,170,qs),
(150,133,o),
(205,84,o),
(247,84,qs)
);
}
);
};
guides = (
{
angle = 186.6135;
pos = (233,263);
}
);
layerId = "A931EBE4-BC38-4F2A-894C-3FB7E511A35E";
name = "Light alt";
shapes = (
{
closed = 1;
nodes = (
(350,-11,o),
(427,29,o),
(468,90,c),
(510,90,l),
(510,0,l),
(614,0,l),
(614,100,l),
(568,100,l),
(568,385,ls),
(568,532,o),
(478,612,o),
(316,612,cs),
(173,612,o),
(75,544,o),
(56,430,c),
(152,430,l),
(170,499,o),
(221,532,o),
(313,532,cs),
(422,532,o),
(478,480,o),
(478,378,cs),
(478,350,l),
(262,350,ls),
(119,350,o),
(42,285,o),
(42,170,cs),
(42,63,o),
(125,-11,o),
(258,-11,cs)
);
},
{
closed = 1;
nodes = (
(183,67,o),
(130,108,o),
(130,174,cs),
(130,242,o),
(177,278,o),
(269,278,cs),
(478,278,l),
(478,245,ls),
(478,147,o),
(384,67,o),
(270,67,cs)
);
}
);
userData = {
com.schriftgestaltung.Glyphs.category = Letter;
com.schriftgestaltung.Glyphs.script = latin;
com.schriftgestaltung.Glyphs.subCategory = Lowercase;
};
width = 670;
}
);
unicode = 97;
},
{
glyphname = ae;
kernLeft = a;
kernRight = e;
lastChange = "2024-05-08 12:15:40 +0000";
layers = (
{
anchors = (
{
name = bottom;
pos = (395,0);
},
{
name = ogonek;
pos = (602,0);
},
{
name = top;
pos = (390,600);
}
);
background = {
shapes = (
{
closed = 1;
nodes = (
(341,-11,o),
(404,20,o),
(439,77,c),
(444,77,l),
(444,0,l),
(614,0,l),
(614,375,ls),
(614,529,o),
(515,612,o),
(333,612,cs),
(167,612,o),
(68,542,o),
(40,406,c),
(222,406,l),
(236,449,o),
(270,468,o),
(334,468,cs),
(402,468,o),
(438,441,o),
(438,386,cs),
(438,241,ls),
(438,177,o),
(376,127,o),
(289,127,cs),
(238,127,o),
(208,148,o),
(208,187,cs),
(208,224,o),
(236,244,o),
(285,244,cs),
(488,244,l),
(488,364,l),
(277,364,ls),
(120,364,o),
(32,297,o),
(32,178,cs),
(32,63,o),
(117,-11,o),
(250,-11,cs)
);
}
);
};
layerId = "3CBDEB72-8799-4680-B3B3-51A575E4F961";
shapes = (
{
closed = 1;
nodes = (
(911,-12,o),
(1027,71,o),
(1052,197,c),
(864,197,l),
(850,157,o),
(810,132,o),
(757,132,cs),
(679,132,o),
(626,173,o),
(613,249,c),
(1052,249,l),
(1052,308,ls),
(1052,492,o),
(930,612,o),
(751,612,cs),
(663,612,o),
(594,585,o),
(544,537,c),
(540,537,l),
(493,590,o),
(417,612,o),
(325,612,cs),
(166,612,o),
(68,541,o),
(40,406,c),
(222,406,l),
(231,445,o),
(272,468,o),
(325,468,cs),
(395,468,o),
(437,437,o),
(437,386,cs),
(437,369,l),
(286,369,ls),
(125,369,o),
(32,301,o),
(32,181,cs),
(32,60,o),
(125,-11,o),
(279,-11,cs),
(381,-11,o),
(462,21,o),
(512,79,c),
(517,79,l),
(572,21,o),
(655,-12,o),
(757,-12,cs)
);
},
{
closed = 1;
nodes = (
(244,127,o),
(208,150,o),
(208,189,cs),
(208,227,o),
(240,249,o),
(285,249,cs),
(437,249,l),
(437,241,ls),
(437,176,o),
(374,127,o),
(290,127,cs)
);
},
{
closed = 1;
nodes = (
(635,433,o),
(683,468,o),
(751,468,cs),
(817,468,o),
(861,433,o),
(873,369,c),
(617,369,l)
);
}
);
userData = {
com.schriftgestaltung.Glyphs.category = Letter;
com.schriftgestaltung.Glyphs.script = latin;
com.schriftgestaltung.Glyphs.subCategory = Lowercase;
};
width = 1080;
},
{
anchors = (
{
name = bottom;
pos = (710,0);
},
{
name = ogonek;
pos = (556,0);
},
{
name = top;
pos = (711,600);
}
);
background = {
shapes = (
{
closed = 1;
nodes = (
(349,-11,o),
(440,39,o),
(473,111,c),
(478,111,l),
(478,0,l),
(568,0,l),
(568,385,ls),
(568,532,o),
(478,612,o),
(316,612,cs),
(173,612,o),
(75,544,o),
(56,430,c),
(152,430,l),
(170,499,o),
(221,532,o),
(313,532,cs),
(422,532,o),
(478,480,o),
(478,378,cs),
(478,245,ls),
(478,147,o),
(384,67,o),
(270,67,cs),
(183,67,o),
(130,108,o),
(130,174,cs),
(130,242,o),
(177,278,o),
(269,278,cs),
(531,278,l),
(531,350,l),
(262,350,ls),
(119,350,o),
(42,285,o),
(42,170,cs),
(42,63,o),
(125,-11,o),
(252,-11,cs)
);
}
);
};
layerId = "A931EBE4-BC38-4F2A-894C-3FB7E511A35E";
shapes = (
{
closed = 1;
nodes = (
(905,-12,o),
(1006,62,o),
(1036,179,c),
(944,179,l),
(922,112,o),
(856,70,o),
(773,70,cs),
(651,70,o),
(567,157,o),
(562,289,c),
(1038,289,l),
(1038,334,ls),
(1038,498,o),
(927,612,o),
(768,612,cs),
(676,612,o),
(593,571,o),
(539,500,c),
(535,500,l),
(499,572,o),
(419,612,o),
(313,612,cs),
(176,612,o),
(74,540,o),
(56,430,c),
(152,430,l),
(169,496,o),
(224,532,o),
(309,532,cs),
(416,532,o),
(477,476,o),
(477,378,cs),
(477,361,l),
(273,361,ls),
(127,361,o),
(42,293,o),
(42,176,cs),
(42,66,o),
(132,-11,o),
(261,-11,cs),
(380,-11,o),
(462,31,o),
(516,119,c),
(521,119,l),
(569,37,o),
(663,-12,o),
(774,-12,cs)
);
},
{
closed = 1;
nodes = (
(187,67,o),
(130,113,o),
(130,180,cs),
(130,249,o),
(182,289,o),
(271,289,cs),
(477,289,l),
(477,245,ls),
(477,140,o),
(392,67,o),
(271,67,cs)
);
},
{
closed = 1;
nodes = (
(588,465,o),
(665,532,o),
(766,532,cs),
(870,532,o),
(942,465,o),
(952,361,c),
(568,361,l)
);
}
);
userData = {
com.schriftgestaltung.Glyphs.category = Letter;
com.schriftgestaltung.Glyphs.script = latin;
com.schriftgestaltung.Glyphs.subCategory = Lowercase;
};
width = 1090;
}
);
unicode = 230;
},
{
glyphname = b;
kernLeft = b;
kernRight = b;
lastChange = "2024-05-08 12:15:40 +0000";
layers = (
{
anchors = (
{
name = bottom;
pos = (354,0);
},
{
name = center;
pos = (354,300);
},
{
name = top;
pos = (354,600);
}
);
background = {
shapes = (
{
closed = 1;
nodes = (
(105,852,l),
(105,0,l),
(171,0,l),
(189,80,l),
(196,80,l),
(229,30,o),
(288,-11,o),
(384,-11,cs),
(536,-11,o),
(633,98,o),
(633,301,cs),
(633,506,o),
(536,611,o),
(386,611,cs),
(289,611,o),
(229,568,o),
(196,514,c),
(191,514,l),
(192,540,o),
(196,590,o),
(196,639,cs),
(196,852,l)
);
},
{
closed = 1;
nodes = (
(484,534,o),
(539,456,o),
(539,301,cs),
(539,149,o),
(483,65,o),
(371,65,cs),
(238,65,o),
(196,147,o),
(196,298,cs),
(196,303,ls),
(196,459,o),
(241,534,o),
(371,534,cs)
);
}
);
};
layerId = "3CBDEB72-8799-4680-B3B3-51A575E4F961";
name = "Bold alt";
shapes = (
{
closed = 1;
nodes = (
(652,-12,o),
(752,115,o),
(752,300,cs),
(752,486,o),
(652,612,o),
(479,612,cs),
(394,612,o),
(332,579,o),
(298,523,c),
(294,523,l),
(294,840,l),
(110,840,l),
(110,180,l),
(20,180,l),
(20,0,l),
(204,0,l),
(204,100,l),
(246,100,l),
(289,29,o),
(362,-12,o),
(463,-12,cs)
);
},
{
closed = 1;
nodes = (
(345,148,o),
(294,197,o),
(294,278,cs),
(294,322,ls),
(294,403,o),
(345,452,o),
(428,452,cs),
(523,452,o),
(568,393,o),
(568,300,cs),
(568,207,o),
(523,148,o),
(428,148,cs)
);
}
);
userData = {
com.schriftgestaltung.Glyphs.category = Letter;
com.schriftgestaltung.Glyphs.script = latin;
com.schriftgestaltung.Glyphs.subCategory = Lowercase;
};
width = 780;
},
{
anchors = (
{
name = bottom;
pos = (377,0);
},
{
name = center;
pos = (377,300);
},
{
name = top;
pos = (377,600);
}
);
background = {
shapes = (
{
closed = 1;
nodes = (
(114,852,l),
(114,0,l),
(180,0,l),
(198,80,l),
(205,80,l),
(238,30,o),
(297,-11,o),
(393,-11,cs),
(545,-11,o),
(642,98,o),
(642,301,cs),
(642,506,o),
(545,611,o),
(395,611,cs),
(298,611,o),
(238,568,o),
(205,514,c),
(200,514,l),
(201,540,o),
(205,590,o),
(205,639,cs),
(205,852,l)
);
},
{
closed = 1;
nodes = (
(493,534,o),
(548,456,o),
(548,301,cs),
(548,149,o),
(492,65,o),
(380,65,cs),
(247,65,o),
(205,147,o),
(205,298,cs),
(205,303,ls),
(205,459,o),
(250,534,o),
(380,534,cs)
);
}
);
};
layerId = "A931EBE4-BC38-4F2A-894C-3FB7E511A35E";
name = "Light alt";
shapes = (
{
closed = 1;
nodes = (
(583,-12,o),
(688,106,o),
(688,300,cs),
(688,494,o),
(584,612,o),
(414,612,cs),
(316,612,o),
(241,572,o),
(204,498,c),
(200,498,l),
(200,840,l),
(106,840,l),
(106,100,l),
(56,100,l),
(56,0,l),
(160,0,l),
(160,90,l),
(202,90,l),
(242,23,o),
(310,-12,o),
(406,-12,cs)
);
},
{
closed = 1;
nodes = (
(277,68,o),
(200,140,o),
(200,251,cs),
(200,349,ls),
(200,460,o),
(277,532,o),
(393,532,cs),
(520,532,o),
(594,447,o),
(594,300,cs),
(594,153,o),
(520,68,o),
(393,68,cs)
);
}
);
userData = {
com.schriftgestaltung.Glyphs.category = Letter;
com.schriftgestaltung.Glyphs.script = latin;
com.schriftgestaltung.Glyphs.subCategory = Lowercase;
};
width = 740;
}
);
unicode = 98;
},
{
glyphname = c;
kernLeft = d;
kernRight = c;
lastChange = "2024-05-08 12:15:40 +0000";
layers = (
{
anchors = (
{
name = bottom;
pos = (349,0);
},
{
name = top;
pos = (349,600);
}
);
guides = (
{
angle = 180;
pos = (143,406);
},
{
pos = (134,204);
}
);
layerId = "3CBDEB72-8799-4680-B3B3-51A575E4F961";
shapes = (
{
closed = 1;
nodes = (
(516,-12,o),
(625,79,o),
(646,227,c),
(462,227,l),
(448,175,o),
(411,148,o),
(346,148,cs),
(268,148,o),
(212,203,o),
(212,300,cs),
(212,397,o),
(267,452,o),
(346,452,cs),
(404,452,o),
(443,426,o),
(459,382,c),
(643,382,l),
(619,523,o),
(509,612,o),
(346,612,cs),
(157,612,o),
(28,490,o),
(28,300,cs),
(28,110,o),
(158,-12,o),
(346,-12,cs)
);
}
);
userData = {
com.schriftgestaltung.Glyphs.category = Letter;
com.schriftgestaltung.Glyphs.script = latin;
com.schriftgestaltung.Glyphs.subCategory = Lowercase;
};
width = 650;
},
{
anchors = (
{
name = bottom;
pos = (354,0);
},
{
name = top;
pos = (354,600);
}
);
background = {
shapes = (
{
closed = 1;
nodes = (
(503,-12,o),
(619,109,o),
(619,300,cs),
(619,492,o),
(504,612,o),
(341,612,cs),
(181,612,o),
(63,491,o),
(63,300,cs),
(63,110,o),
(181,-12,o),
(341,-12,cs)
);
},
{
closed = 1;
nodes = (
(227,70,o),
(153,161,o),
(153,300,cs),
(153,440,o),
(227,530,o),
(341,530,cs),
(457,530,o),
(529,440,o),
(529,300,cs),
(529,161,o),
(457,70,o),
(341,70,cs)
);
}
);
};
guides = (
{
angle = 180;
pos = (463,430);
}
);
layerId = "A931EBE4-BC38-4F2A-894C-3FB7E511A35E";
shapes = (
{
closed = 1;
nodes = (
(496,-12,o),
(598,63,o),
(630,204,c),
(534,204,l),
(511,113,o),
(450,70,o),
(350,70,cs),
(221,70,o),
(146,156,o),
(146,300,cs),
(146,445,o),
(220,530,o),
(350,530,cs),
(446,530,o),
(506,491,o),
(530,406,c),
(626,406,l),
(592,541,o),
(493,612,o),
(350,612,cs),
(166,612,o),
(52,490,o),
(52,300,cs),
(52,110,o),
(167,-12,o),
(350,-12,cs)
);
}
);
userData = {
com.schriftgestaltung.Glyphs.category = Letter;
com.schriftgestaltung.Glyphs.script = latin;
com.schriftgestaltung.Glyphs.subCategory = Lowercase;
};
width = 650;
}
);
unicode = 99;
},
{
glyphname = d;
kernLeft = d;
kernRight = d;
lastChange = "2024-05-08 12:15:40 +0000";
layers = (
{
anchors = (
{
name = bottom;
pos = (332,0);
},
{
name = center;
pos = (349,300);
},
{
name = top;
pos = (578,840);
},
{
name = topright;
pos = (670,840);
}
);
background = {
shapes = (
{
closed = 1;
nodes = (
(364,-11,o),
(422,31,o),
(457,85,c),
(461,85,l),
(474,0,l),
(548,0,l),
(548,852,l),
(457,852,l),
(457,612,ls),
(457,586,o),
(461,539,o),
(463,517,c),
(457,517,l),
(421,570,o),
(364,611,o),
(269,611,cs),
(118,611,o),
(20,504,o),
(20,298,cs),
(20,93,o),
(116,-11,o),
(267,-11,cs)
);
},
{
closed = 1;
nodes = (
(169,65,o),
(115,148,o),
(115,296,cs),
(115,444,o),
(170,536,o),
(282,536,cs),
(415,536,o),
(458,451,o),
(458,298,cs),
(458,282,ls),
(458,138,o),
(410,65,o),
(282,65,cs)
);
}
);
};
layerId = "3CBDEB72-8799-4680-B3B3-51A575E4F961";
shapes = (
{
closed = 1;
nodes = (
(418,-12,o),
(491,29,o),
(534,100,c),
(576,100,l),
(576,0,l),
(760,0,l),
(760,180,l),
(670,180,l),
(670,840,l),
(486,840,l),
(486,523,l),
(482,523,l),
(448,579,o),
(386,612,o),
(301,612,cs),
(128,612,o),
(28,486,o),
(28,300,cs),
(28,115,o),
(128,-12,o),
(317,-12,cs)
);
},
{
closed = 1;
nodes = (
(257,148,o),
(212,207,o),
(212,300,cs),
(212,393,o),
(257,452,o),
(352,452,cs),
(435,452,o),
(486,403,o),
(486,322,cs),
(486,278,ls),
(486,197,o),
(435,148,o),
(352,148,cs)
);
}
);
userData = {
com.schriftgestaltung.Glyphs.category = Letter;
com.schriftgestaltung.Glyphs.script = latin;
com.schriftgestaltung.Glyphs.subCategory = Lowercase;
};
width = 780;
},
{
anchors = (
{
name = bottom;
pos = (360,0);
},
{
name = center;
pos = (360,300);
},
{
name = top;
pos = (587,840);
},
{
name = topright;
pos = (634,840);
}
);
background = {
shapes = (
{
closed = 1;
nodes = (
(431,-11,o),
(489,31,o),
(524,85,c),
(528,85,l),
(541,0,l),
(615,0,l),
(615,852,l),
(524,852,l),
(524,612,ls),
(524,586,o),
(528,539,o),
(530,517,c),
(524,517,l),
(488,570,o),
(431,611,o),
(336,611,cs),
(185,611,o),
(87,504,o),
(87,298,cs),
(87,93,o),
(183,-11,o),
(334,-11,cs)
);
},
{
closed = 1;
nodes = (
(236,65,o),
(182,148,o),
(182,296,cs),
(182,444,o),
(237,536,o),
(349,536,cs),
(482,536,o),
(525,451,o),
(525,298,cs),
(525,282,ls),
(525,138,o),
(477,65,o),
(349,65,cs)
);
}
);
};
layerId = "A931EBE4-BC38-4F2A-894C-3FB7E511A35E";
shapes = (
{
closed = 1;
nodes = (
(430,-12,o),
(498,23,o),
(538,90,c),
(580,90,l),
(580,0,l),
(684,0,l),
(684,100,l),
(634,100,l),
(634,840,l),
(540,840,l),
(540,498,l),
(536,498,l),
(499,572,o),
(424,612,o),
(326,612,cs),
(156,612,o),
(52,494,o),
(52,300,cs),
(52,106,o),
(157,-12,o),
(334,-12,cs)
);
},
{
closed = 1;
nodes = (
(220,68,o),
(146,153,o),
(146,300,cs),
(146,447,o),
(220,532,o),
(347,532,cs),
(463,532,o),
(540,460,o),
(540,349,cs),
(540,251,ls),
(540,140,o),
(463,68,o),
(347,68,cs)
);
}
);
userData = {
com.schriftgestaltung.Glyphs.category = Letter;
com.schriftgestaltung.Glyphs.script = latin;
com.schriftgestaltung.Glyphs.subCategory = Lowercase;
};
width = 740;
}
);
unicode = 100;
},
{
glyphname = eth;
kernLeft = d;
kernRight = b;
lastChange = "2024-05-08 12:15:40 +0000";
layers = (
{
anchors = (
{
name = bottom;
pos = (352,0);
},
{
name = top;
pos = (352,960);
}
);
background = {
shapes = (
{
closed = 1;
nodes = (
(497,-12,o),
(623,109,o),
(623,300,cs),
(623,492,o),
(498,612,o),
(321,612,cs),
(147,612,o),
(19,491,o),
(19,300,cs),
(19,110,o),
(147,-12,o),
(321,-12,cs)
);
},
{
closed = 1;
nodes = (
(250,148,o),
(199,207,o),
(199,300,cs),
(199,394,o),
(250,452,o),
(321,452,cs),
(393,452,o),
(443,394,o),
(443,300,cs),
(443,207,o),
(393,148,o),
(321,148,cs)
);
}
);
};
guides = (
{
angle = 208.2205;
pos = (290,771);
}
);
layerId = "3CBDEB72-8799-4680-B3B3-51A575E4F961";
shapes = (
{
closed = 1;
nodes = (
(547,-12,o),
(682,121,o),
(682,316,cs),
(682,524,o),
(525,734,o),
(291,840,c),
(58,840,l),
(56,836,l),
(240,742,o),
(388,640,o),
(453,562,c),
(450,562,l),
(420,579,o),
(379,588,o),
(327,588,cs),
(154,588,o),
(28,463,o),
(28,290,cs),
(28,112,o),
(160,-12,o),
(351,-12,cs)
);
},
{
closed = 1;
nodes = (
(265,145,o),
(205,201,o),
(205,284,cs),
(205,372,o),
(272,433,o),
(368,433,cs),
(453,433,o),
(506,382,o),
(506,298,cs),
(506,207,o),
(444,145,o),
(352,145,cs)
);
},
{
closed = 1;
nodes = (
(557,786,l),
(516,860,l),
(96,650,l),
(136,576,l)
);
}
);
userData = {
com.schriftgestaltung.Glyphs.category = Letter;
com.schriftgestaltung.Glyphs.script = latin;
com.schriftgestaltung.Glyphs.subCategory = Lowercase;
};
width = 710;
},
{
anchors = (
{
name = bottom;
pos = (352,0);
},
{
name = top;
pos = (352,960);
}
);
background = {
shapes = (
{
closed = 1;
nodes = (
(483,-12,o),
(599,109,o),
(599,300,cs),
(599,492,o),
(484,612,o),
(321,612,cs),
(161,612,o),
(43,491,o),
(43,300,cs),
(43,110,o),
(161,-12,o),
(321,-12,cs)
);
},
{
closed = 1;
nodes = (
(207,70,o),
(133,161,o),
(133,300,cs),
(133,440,o),
(207,530,o),
(321,530,cs),
(437,530,o),
(509,440,o),
(509,300,cs),
(509,161,o),
(437,70,o),
(321,70,cs)
);
}
);
};
guides = (
{
angle = 116.277;
pos = (491,840);
},
{
angle = 208.277;
pos = (144,669);
}
);
layerId = "A931EBE4-BC38-4F2A-894C-3FB7E511A35E";
shapes = (
{
closed = 1;
nodes = (
(545,-12,o),
(668,116,o),
(668,310,cs),
(668,524,o),
(498,742,o),
(257,840,c),
(118,840,l),
(118,836,l),
(325,748,o),
(499,617,o),
(560,502,c),
(553,502,l),
(499,556,o),
(434,582,o),
(352,582,cs),
(176,582,o),
(52,459,o),
(52,283,cs),
(52,108,o),
(177,-12,o),
(358,-12,cs)
);
},
{
closed = 1;
nodes = (
(228,66,o),
(140,154,o),
(140,278,cs),
(140,410,o),
(239,506,o),
(377,506,cs),
(504,506,o),
(581,428,o),
(581,301,cs),
(581,161,o),
(488,66,o),
(353,66,cs)
);
},
{
closed = 1;
nodes = (
(545,798,l),
(514,852,l),
(144,669,l),
(174,615,l)
);
}
);
userData = {
com.schriftgestaltung.Glyphs.category = Letter;
com.schriftgestaltung.Glyphs.script = latin;
com.schriftgestaltung.Glyphs.subCategory = Lowercase;
};
width = 720;
}
);
unicode = 240;
},
{
glyphname = dcroat;
kernLeft = d;
kernRight = d;
lastChange = "2024-05-08 12:15:40 +0000";
layers = (
{
layerId = "3CBDEB72-8799-4680-B3B3-51A575E4F961";
shapes = (
{
closed = 1;
nodes = (
(386,-12,o),
(451,21,o),
(488,82,c),
(492,82,l),
(492,0,l),
(670,0,l),
(670,660,l),
(718,660,l),
(718,780,l),
(670,780,l),
(670,840,l),
(486,840,l),
(486,780,l),
(232,780,l),
(232,660,l),
(486,660,l),
(486,493,l),
(482,493,l),
(448,549,o),
(387,582,o),
(300,582,cs),
(129,582,o),
(28,456,o),
(28,285,cs),
(28,114,o),
(129,-12,o),
(299,-12,cs)
);
},
{
closed = 1;
nodes = (
(257,148,o),
(212,207,o),
(212,285,cs),
(212,363,o),
(257,422,o),
(352,422,cs),
(435,422,o),
(486,373,o),
(486,292,cs),
(486,278,ls),
(486,197,o),
(435,148,o),
(352,148,cs)
);
}
);
userData = {
com.schriftgestaltung.Glyphs.category = Letter;
com.schriftgestaltung.Glyphs.script = latin;
com.schriftgestaltung.Glyphs.subCategory = Lowercase;
};
width = 730;
},
{
layerId = "A931EBE4-BC38-4F2A-894C-3FB7E511A35E";
shapes = (
{
closed = 1;
nodes = (
(425,-12,o),
(498,28,o),
(535,102,c),
(540,102,l),
(540,0,l),
(634,0,l),
(634,687,l),
(708,687,l),
(708,753,l),
(634,753,l),
(634,840,l),
(540,840,l),
(540,753,l),
(252,753,l),
(252,687,l),
(540,687,l),
(540,468,l),
(536,468,l),
(499,542,o),
(424,582,o),
(326,582,cs),
(156,582,o),
(52,464,o),
(52,285,cs),
(52,106,o),
(156,-12,o),
(326,-12,cs)
);
},
{
closed = 1;
nodes = (
(220,68,o),
(146,153,o),
(146,285,cs),
(146,417,o),
(220,502,o),
(347,502,cs),
(463,502,o),
(540,430,o),
(540,319,cs),
(540,251,ls),
(540,140,o),
(463,68,o),
(347,68,cs)
);
}
);
userData = {
com.schriftgestaltung.Glyphs.category = Letter;
com.schriftgestaltung.Glyphs.script = latin;
com.schriftgestaltung.Glyphs.subCategory = Lowercase;
};
width = 720;
}
);
unicode = 273;
},
{
glyphname = e;
kernLeft = d;
kernRight = e;
lastChange = "2024-05-08 12:15:40 +0000";
layers = (
{
anchors = (
{
name = bottom;
pos = (340,0);
},
{
name = ogonek;
pos = (542,0);
},
{
name = top;
pos = (340,600);
}
);
background = {
shapes = (
{
closed = 1;
nodes = (
(168,611,o),
(64,490,o),
(64,296,cs),
(64,97,o),
(178,-11,o),
(351,-11,cs),
(432,-11,o),
(486,1,o),
(546,28,c),
(546,108,l),
(483,80,o),
(430,67,o),
(355,67,cs),
(231,67,o),
(161,142,o),
(159,283,c),
(573,283,l),
(573,340,ls),
(573,503,o),
(482,611,o),
(329,611,cs)
);
},
{
closed = 1;
nodes = (
(430,537,o),
(477,463,o),
(478,356,c),
(160,356,l),
(171,470,o),
(230,537,o),
(328,537,cs)
);
}
);
};
layerId = "3CBDEB72-8799-4680-B3B3-51A575E4F961";
shapes = (
{
closed = 1;
nodes = (
(514,-12,o),
(625,66,o),
(651,197,c),
(467,197,l),
(451,152,o),
(416,132,o),
(351,132,cs),
(269,132,o),
(219,172,o),
(205,249,c),
(652,249,l),
(652,308,ls),
(652,497,o),
(537,612,o),
(345,612,cs),
(150,612,o),
(28,493,o),
(28,302,cs),
(28,110,o),
(153,-12,o),
(352,-12,cs)
);
},
{
closed = 1;
nodes = (
(225,434,o),
(272,468,o),
(346,468,cs),
(421,468,o),
(464,435,o),
(476,369,c),
(208,369,l)
);
}
);
userData = {
com.schriftgestaltung.Glyphs.category = Letter;
com.schriftgestaltung.Glyphs.script = latin;
com.schriftgestaltung.Glyphs.subCategory = Lowercase;
};
width = 680;
},
{
anchors = (
{
name = bottom;
pos = (340,0);
},
{
name = ogonek;
pos = (497,0);
},
{
name = top;
pos = (340,600);
}
);
background = {
shapes = (
{
closed = 1;
nodes = (
(168,611,o),
(64,490,o),
(64,296,cs),
(64,97,o),
(178,-11,o),
(351,-11,cs),
(432,-11,o),
(486,1,o),
(546,28,c),
(546,108,l),
(483,80,o),
(430,67,o),
(355,67,cs),
(231,67,o),
(161,142,o),
(159,283,c),
(573,283,l),
(573,340,ls),
(573,503,o),
(482,611,o),
(329,611,cs)
);
},
{
closed = 1;
nodes = (
(430,537,o),
(477,463,o),
(478,356,c),
(160,356,l),
(171,470,o),
(230,537,o),
(328,537,cs)
);
}
);
};
layerId = "A931EBE4-BC38-4F2A-894C-3FB7E511A35E";
shapes = (
{
closed = 1;
nodes = (
(493,-12,o),
(591,57,o),
(622,179,c),
(526,179,l),
(503,108,o),
(440,70,o),
(353,70,cs),
(227,70,o),
(147,151,o),
(142,289,c),
(628,289,l),
(628,331,ls),
(628,502,o),
(519,612,o),
(350,612,cs),
(170,612,o),
(52,491,o),
(52,302,cs),
(52,111,o),
(170,-12,o),
(354,-12,cs)
);
},
{
closed = 1;
nodes = (
(166,469,o),
(241,532,o),
(349,532,cs),
(457,532,o),
(528,469,o),
(537,361,c),
(147,361,l)
);
}
);
userData = {
com.schriftgestaltung.Glyphs.category = Letter;
com.schriftgestaltung.Glyphs.script = latin;
com.schriftgestaltung.Glyphs.subCategory = Lowercase;
};
width = 680;
}
);
unicode = 101;
},
{
glyphname = f;
kernLeft = f;
kernRight = f;
lastChange = "2024-05-08 12:15:40 +0000";
layers = (
{
anchors = (
{
name = bottom;
pos = (225,0);
},
{
name = top;
pos = (225,960);
}
);
background = {
shapes = (
{
closed = 1;
nodes = (
(401,600,l),
(252,600,l),
(252,644,ls),
(252,740,o),
(284,783,o),
(353,783,cs),
(385,783,o),
(417,774,o),
(443,767,c),
(466,838,l),
(437,848,o),
(398,858,o),
(352,858,cs),
(230,858,o),
(161,794,o),
(161,643,cs),
(161,603,l),
(54,573,l),
(54,529,l),
(161,529,l),
(161,0,l),
(252,0,l),
(252,529,l),
(401,529,l)
);
}
);
};
guides = (
{
angle = 270;
pos = (304,647);
},
{
angle = 90;
pos = (128,647);
}
);
layerId = "3CBDEB72-8799-4680-B3B3-51A575E4F961";
name = Bold;
shapes = (
{
closed = 1;
nodes = (
(304,0,l),
(304,456,l),
(432,456,l),
(432,600,l),
(302,600,l),
(302,696,l),
(444,696,l),
(444,840,l),
(270,840,ls),
(175,840,o),
(122,794,o),
(122,696,cs),
(122,600,l),
(18,600,l),
(18,456,l),
(120,456,l),
(120,0,l)
);
}
);
userData = {
com.schriftgestaltung.Glyphs.category = Letter;
com.schriftgestaltung.Glyphs.script = latin;
com.schriftgestaltung.Glyphs.subCategory = Lowercase;
};
width = 450;
},
{
anchors = (
{
name = bottom;
pos = (205,0);
},
{
name = top;
pos = (205,960);
}
);
background = {
shapes = (
{
closed = 1;
nodes = (
(241,0,l),
(241,528,l),
(380,528,l),
(380,600,l),
(240,600,l),
(240,694,ls),
(240,746,o),
(262,768,o),
(309,768,cs),
(392,768,l),
(392,840,l),
(297,840,ls),
(206,840,o),
(152,790,o),
(152,694,cs),
(152,600,l),
(36,600,l),
(36,528,l),
(151,528,l),
(151,0,l)
);
}
);
};
layerId = "A931EBE4-BC38-4F2A-894C-3FB7E511A35E";
name = Light;
shapes = (
{
closed = 1;
nodes = (
(239,0,l),
(239,528,l),
(392,528,l),
(392,600,l),
(238,600,l),
(238,768,l),
(404,768,l),
(404,840,l),
(240,840,ls),
(182,840,o),
(146,810,o),
(146,750,cs),
(146,600,l),
(18,600,l),
(18,528,l),
(145,528,l),
(145,0,l)
);
}
);
userData = {
com.schriftgestaltung.Glyphs.category = Letter;
com.schriftgestaltung.Glyphs.script = latin;
com.schriftgestaltung.Glyphs.subCategory = Lowercase;
};
width = 410;
}
);
unicode = 102;
},
{
glyphname = g;
kernLeft = g;
kernRight = g;
lastChange = "2024-05-08 12:15:40 +0000";
layers = (
{
anchors = (
{
name = bottom;
pos = (370,-240);
},
{
name = top;
pos = (370,600);
}
);
background = {
shapes = (
{
closed = 1;
nodes = (
(523,-252,o),
(642,-161,o),
(642,19,cs),
(642,600,l),
(468,600,l),
(468,538,l),
(435,585,o),
(380,612,o),
(307,612,cs),
(151,612,o),
(50,487,o),
(50,306,cs),
(50,125,o),
(151,0,o),
(307,0,cs),
(380,0,o),
(434,26,o),
(468,74,c),
(468,19,ls),
(468,-61,o),
(416,-108,o),
(346,-108,cs),
(295,-108,o),
(254,-84,o),
(236,-42,c),
(46,-42,l),
(69,-167,o),
(188,-252,o),
(342,-252,cs)
);
},
{
closed = 1;
nodes = (
(274,160,o),
(230,220,o),
(230,306,cs),
(230,392,o),
(274,452,o),
(348,452,cs),
(419,452,o),
(462,403,o),
(462,322,cs),
(462,292,ls),
(462,208,o),
(419,160,o),
(348,160,cs)
);
}
);
};
layerId = "3CBDEB72-8799-4680-B3B3-51A575E4F961";
name = "Bold alt";
shapes = (
{
closed = 1;
nodes = (
(565,-252,o),
(680,-155,o),
(680,19,cs),
(680,420,l),
(770,420,l),
(770,600,l),
(586,600,l),
(586,500,l),
(544,500,l),
(501,571,o),
(428,612,o),
(327,612,cs),
(144,612,o),
(35,493,o),
(35,306,cs),
(35,119,o),
(144,0,o),
(313,0,cs),
(399,0,o),
(459,31,o),
(497,94,c),
(502,94,l),
(502,19,ls),
(502,-63,o),
(449,-108,o),
(352,-108,cs),
(283,-108,o),
(240,-85,o),
(225,-42,c),
(31,-42,l),
(52,-174,o),
(174,-252,o),
(359,-252,cs)
);
},
{
closed = 1;
nodes = (
(270,160,o),
(219,212,o),
(219,305,cs),
(219,398,o),
(270,452,o),
(359,452,cs),
(444,452,o),
(496,403,o),
(496,322,cs),
(496,292,ls),
(496,209,o),
(445,160,o),
(359,160,cs)
);
}
);
width = 790;
},
{
anchors = (
{
name = bottom;
pos = (360,-240);
},
{
name = top;
pos = (360,600);
}
);
background = {
shapes = (
{
closed = 1;
nodes = (
(474,-269,o),
(585,-197,o),
(585,-64,cs),
(585,42,o),
(513,97,o),
(382,97,c),
(277,97,l),
(220,97,o),
(186,110,o),
(186,145,cs),
(186,176,o),
(205,200,o),
(241,220,c),
(257,217,o),
(275,215,o),
(292,215,cs),
(434,215,o),
(520,291,o),
(520,411,cs),
(520,459,o),
(504,501,o),
(482,529,c),
(592,543,l),
(592,601,l),
(387,601,l),
(364,608,o),
(330,612,o),
(298,612,cs),
(153,612,o),
(70,537,o),
(70,408,cs),
(70,327,o),
(113,262,o),
(176,237,c),
(125,206,o),
(101,175,o),
(101,131,cs),
(101,93,o),
(126,62,o),
(158,48,c),
(73,30,o),
(23,-27,o),
(23,-102,cs),
(23,-208,o),
(112,-269,o),
(269,-269,cs)
);
},
{
closed = 1;
nodes = (
(171,-198,o),
(114,-164,o),
(114,-99,cs),
(114,-25,o),
(165,13,o),
(247,13,c),
(351,13,l),
(443,13,o),
(493,-1,o),
(493,-73,cs),
(493,-151,o),
(421,-198,o),
(272,-198,cs)
);
},
{
closed = 1;
nodes = (
(212,281,o),
(165,326,o),
(165,409,cs),
(165,498,o),
(211,545,o),
(295,545,cs),
(381,545,o),
(427,500,o),
(427,410,cs),
(427,326,o),
(383,281,o),
(296,281,cs)
);
}
);
};
layerId = "A931EBE4-BC38-4F2A-894C-3FB7E511A35E";
name = "Light alt";
shapes = (
{
closed = 1;
nodes = (
(524,-252,o),
(634,-156,o),
(634,5,cs),
(634,500,l),
(684,500,l),
(684,600,l),
(580,600,l),
(580,510,l),
(538,510,l),
(498,577,o),
(430,612,o),
(334,612,cs),
(160,612,o),
(52,494,o),
(52,306,cs),
(52,118,o),
(160,0,o),
(332,0,cs),
(428,0,o),
(504,42,o),
(535,114,c),
(540,114,l),
(540,12,ls),
(540,-106,o),
(467,-170,o),
(335,-170,cs),
(230,-170,o),
(166,-132,o),
(148,-60,c),
(48,-60,l),
(66,-180,o),
(174,-252,o),
(335,-252,cs)
);
},
{
closed = 1;
nodes = (
(224,82,o),
(146,165,o),
(146,306,cs),
(146,447,o),
(224,530,o),
(354,530,cs),
(465,530,o),
(540,459,o),
(540,352,cs),
(540,260,ls),
(540,153,o),
(465,82,o),
(354,82,cs)
);
}
);
width = 740;
}
);
unicode = 103;
},
{
glyphname = h;
kernLeft = b;
kernRight = h;
lastChange = "2024-05-08 12:15:40 +0000";
layers = (
{
anchors = (
{
name = bottom;
pos = (368,0);
},
{
name = center;
pos = (368,480);
},
{
name = top;
pos = (368,960);
}
);
background = {
shapes = (
{
closed = 1;
nodes = (
(250,0,l),
(250,321,ls),
(250,399,o),
(291,447,o),
(357,447,cs),
(423,447,o),
(464,399,o),
(464,321,cs),
(464,0,l),
(644,0,l),
(644,357,ls),
(644,507,o),
(550,611,o),
(413,611,cs),
(344,611,o),
(288,588,o),
(250,543,c),
(250,840,l),
(70,840,l),
(70,0,l)
);
}
);
};
layerId = "3CBDEB72-8799-4680-B3B3-51A575E4F961";
name = "Bold alt";
shapes = (
{
closed = 1;
nodes = (
(244,0,l),
(244,321,ls),
(244,404,o),
(288,447,o),
(372,447,cs),
(456,447,o),
(500,404,o),
(500,321,cs),
(500,0,l),
(684,0,l),
(684,357,ls),
(684,511,o),
(589,611,o),
(439,611,cs),
(350,611,o),
(286,579,o),
(248,518,c),
(244,518,l),
(244,840,l),
(60,840,l),
(60,0,l)
);
}
);
userData = {
com.schriftgestaltung.Glyphs.category = Letter;
com.schriftgestaltung.Glyphs.script = latin;
com.schriftgestaltung.Glyphs.subCategory = Lowercase;
};
width = 740;
},
{
anchors = (
{
name = bottom;
pos = (358,0);
},
{
name = center;
pos = (358,480);
},
{
name = top;
pos = (358,960);
}
);
background = {
shapes = (
{
closed = 1;
nodes = (
(186,0,l),
(186,357,ls),
(186,465,o),
(246,529,o),
(347,529,cs),
(448,529,o),
(508,465,o),
(508,357,cs),
(508,0,l),
(598,0,l),
(598,369,ls),
(598,512,o),
(505,611,o),
(370,611,cs),
(286,611,o),
(219,575,o),
(186,513,c),
(186,840,l),
(96,840,l),
(96,0,l)
);
}
);
};
layerId = "A931EBE4-BC38-4F2A-894C-3FB7E511A35E";
name = "Light alt";
shapes = (
{
closed = 1;
nodes = (
(180,0,l),
(180,355,ls),
(180,468,o),
(244,529,o),
(362,529,cs),
(480,529,o),
(544,468,o),
(544,355,cs),
(544,0,l),
(638,0,l),
(638,369,ls),
(638,516,o),
(541,611,o),
(391,611,cs),
(296,611,o),
(222,572,o),
(184,500,c),
(180,500,l),
(180,840,l),
(86,840,l),
(86,0,l)
);
}
);
userData = {
com.schriftgestaltung.Glyphs.category = Letter;
com.schriftgestaltung.Glyphs.script = latin;
com.schriftgestaltung.Glyphs.subCategory = Lowercase;
};
width = 720;
}
);
unicode = 104;
},
{
glyphname = hbar;
kernLeft = b;
kernRight = h;
lastChange = "2024-05-08 12:15:40 +0000";
layers = (
{
layerId = "3CBDEB72-8799-4680-B3B3-51A575E4F961";
shapes = (
{
closed = 1;
nodes = (
(244,0,l),
(244,291,ls),
(244,374,o),
(288,417,o),
(372,417,cs),
(456,417,o),
(500,374,o),
(500,291,cs),
(500,0,l),
(684,0,l),
(684,327,ls),
(684,481,o),
(589,581,o),
(439,581,cs),
(350,581,o),
(286,549,o),
(248,488,c),
(244,488,l),
(244,660,l),
(498,660,l),
(498,780,l),
(244,780,l),
(244,840,l),
(60,840,l),
(60,780,l),
(12,780,l),
(12,660,l),
(60,660,l),
(60,0,l)
);
}
);
userData = {
com.schriftgestaltung.Glyphs.category = Letter;
com.schriftgestaltung.Glyphs.script = latin;
com.schriftgestaltung.Glyphs.subCategory = Lowercase;
};
width = 740;
},
{
background = {
shapes = (
{
closed = 1;
nodes = (
(96,852,l),
(96,750,l),
(11,750,l),
(11,681,l),
(96,681,l),
(96,0,l),
(187,0,l),
(187,295,ls),
(187,437,o),
(233,515,o),
(367,515,cs),
(462,515,o),
(507,465,o),
(507,365,cs),
(507,0,l),
(596,0,l),
(596,371,ls),
(596,524,o),
(522,591,o),
(379,591,cs),
(296,591,o),
(225,556,o),
(188,493,c),
(182,493,l),
(185,518,o),
(187,548,o),
(187,577,cs),
(187,681,l),
(428,681,l),
(428,750,l),
(187,750,l),
(187,852,l)
);
}
);
};
layerId = "A931EBE4-BC38-4F2A-894C-3FB7E511A35E";
shapes = (
{
closed = 1;
nodes = (
(180,0,l),
(180,325,ls),
(180,438,o),
(244,499,o),
(362,499,cs),
(480,499,o),
(544,438,o),
(544,325,cs),
(544,0,l),
(638,0,l),
(638,339,ls),
(638,486,o),
(541,581,o),
(391,581,cs),
(296,581,o),
(222,542,o),
(184,470,c),
(180,470,l),
(180,687,l),
(468,687,l),
(468,753,l),
(180,753,l),
(180,840,l),
(86,840,l),
(86,753,l),
(12,753,l),
(12,687,l),
(86,687,l),
(86,0,l)
);
}
);
userData = {
com.schriftgestaltung.Glyphs.category = Letter;
com.schriftgestaltung.Glyphs.script = latin;
com.schriftgestaltung.Glyphs.subCategory = Lowercase;
};
width = 720;
}
);
unicode = 295;
},
{
glyphname = idotless;
kernLeft = n;
kernRight = u;
lastChange = "2024-05-08 12:15:40 +0000";
layers = (
{
anchors = (
{
name = bottom;
pos = (155,0);
},
{
name = ogonek;
pos = (247,0);
},
{
name = top;
pos = (155,600);
}
);
layerId = "3CBDEB72-8799-4680-B3B3-51A575E4F961";
shapes = (
{
closed = 1;
nodes = (
(247,0,l),
(247,600,l),
(63,600,l),
(63,0,l)
);
}
);
userData = {
com.schriftgestaltung.Glyphs.category = Letter;
com.schriftgestaltung.Glyphs.script = latin;
com.schriftgestaltung.Glyphs.subCategory = Lowercase;
};
width = 310;
},
{
anchors = (
{
name = bottom;
pos = (140,0);
},
{
name = ogonek;
pos = (185,0);
},
{
name = top;
pos = (140,600);
}
);
layerId = "A931EBE4-BC38-4F2A-894C-3FB7E511A35E";
shapes = (
{
closed = 1;
nodes = (
(187,0,l),
(187,600,l),
(93,600,l),
(93,0,l)
);
}
);
userData = {
com.schriftgestaltung.Glyphs.category = Letter;
com.schriftgestaltung.Glyphs.script = latin;
com.schriftgestaltung.Glyphs.subCategory = Lowercase;
};
width = 280;
}
);
unicode = 305;
},
{
glyphname = j;
kernRight = j;
lastChange = "2024-05-08 12:15:40 +0000";
layers = (
{
background = {
shapes = (
{
closed = 1;
nodes = (
(142,-269,o),
(194,-205,o),
(194,-95,cs),
(194,600,l),
(103,600,l),
(103,-97,ls),
(103,-170,o),
(69,-193,o),
(20,-193,cs),
(-9,-193,o),
(-32,-189,o),
(-54,-182,c),
(-54,-256,l),
(-34,-263,o),
(-7,-269,o),
(31,-269,cs)
);
},
{
closed = 1;
nodes = (
(95,725,o),
(118,705,o),
(149,705,cs),
(179,705,o),
(204,725,o),
(204,765,cs),
(204,806,o),
(179,825,o),
(149,825,cs),
(118,825,o),
(95,806,o),
(95,765,cs)
);
}
);
};
guides = (
{
angle = 90;
pos = (148,600);
}
);
layerId = "3CBDEB72-8799-4680-B3B3-51A575E4F961";
shapes = (
{
ref = jdotless;
},
{
pos = (-142,0);
ref = dotaccentcomb;
}
);
userData = {
com.schriftgestaltung.Glyphs.category = Letter;
com.schriftgestaltung.Glyphs.script = latin;
com.schriftgestaltung.Glyphs.subCategory = Lowercase;
};
width = 310;
},
{
background = {
shapes = (
{
closed = 1;
nodes = (
(142,-269,o),
(194,-205,o),
(194,-95,cs),
(194,600,l),
(103,600,l),
(103,-97,ls),
(103,-170,o),
(69,-193,o),
(20,-193,cs),
(-9,-193,o),
(-32,-189,o),
(-54,-182,c),
(-54,-256,l),
(-34,-263,o),
(-7,-269,o),
(31,-269,cs)
);
},
{
closed = 1;
nodes = (
(95,725,o),
(118,705,o),
(149,705,cs),
(179,705,o),
(204,725,o),
(204,765,cs),
(204,806,o),
(179,825,o),
(149,825,cs),
(118,825,o),
(95,806,o),
(95,765,cs)
);
}
);
};
guides = (
{
angle = 90;
pos = (148,600);
}
);
layerId = "A931EBE4-BC38-4F2A-894C-3FB7E511A35E";
shapes = (
{
ref = jdotless;
},
{
pos = (-158,0);
ref = dotaccentcomb;
}
);
userData = {
com.schriftgestaltung.Glyphs.category = Letter;
com.schriftgestaltung.Glyphs.script = latin;
com.schriftgestaltung.Glyphs.subCategory = Lowercase;
};
width = 268;
}
);
unicode = 106;
},
{
glyphname = jdotless;
kernLeft = n;
kernRight = u;
lastChange = "2024-05-08 12:15:40 +0000";
layers = (
{
anchors = (
{
name = bottom;
pos = (105,-240);
},
{
name = top;
pos = (158,600);
}
);
background = {
shapes = (
{
closed = 1;
nodes = (
(254,0,l),
(254,600,l),
(74,600,l),
(74,0,l)
);
}
);
};
layerId = "3CBDEB72-8799-4680-B3B3-51A575E4F961";
shapes = (
{
closed = 1;
nodes = (
(102,-240,ls),
(197,-240,o),
(250,-194,o),
(250,-96,cs),
(250,600,l),
(66,600,l),
(66,-96,l),
(-24,-96,l),
(-24,-240,l)
);
}
);
userData = {
com.schriftgestaltung.Glyphs.category = Letter;
com.schriftgestaltung.Glyphs.glyph.widthMetricsKey = "=j";
com.schriftgestaltung.Glyphs.script = latin;
com.schriftgestaltung.Glyphs.subCategory = Lowercase;
};
width = 310;
},
{
anchors = (
{
name = bottom;
pos = (75,-240);
},
{
name = top;
pos = (142,600);
}
);
background = {
shapes = (
{
closed = 1;
nodes = (
(-29,-168,l),
(34,-168,ls),
(81,-168,o),
(102,-146,o),
(102,-94,cs),
(103,600,l),
(193,600,l),
(194,-94,ls),
(194,-190,o),
(137,-240,o),
(46,-240,cs),
(-29,-240,l)
);
}
);
};
layerId = "A931EBE4-BC38-4F2A-894C-3FB7E511A35E";
shapes = (
{
closed = 1;
nodes = (
(93,-240,ls),
(151,-240,o),
(187,-210,o),
(187,-150,cs),
(187,600,l),
(97,600,l),
(97,-168,l),
(-39,-168,l),
(-39,-240,l)
);
}
);
userData = {
com.schriftgestaltung.Glyphs.category = Letter;
com.schriftgestaltung.Glyphs.glyph.widthMetricsKey = "=j";
com.schriftgestaltung.Glyphs.script = latin;
com.schriftgestaltung.Glyphs.subCategory = Lowercase;
};
width = 268;
}
);
unicode = 567;
},
{
glyphname = k;
kernLeft = b;
kernRight = k;
lastChange = "2024-05-08 12:15:40 +0000";
layers = (
{
anchors = (
{
name = bottom;
pos = (346,0);
},
{
name = top;
pos = (346,960);
}
);
background = {
shapes = (
{
closed = 1;
nodes = (
(78,0,l),
(234,0,l),
(234,179,l),
(304,250,l),
(471,0,l),
(654,0,l),
(412,361,l),
(642,600,l),
(452,600,l),
(234,377,l),
(234,840,l),
(78,840,l)
);
}
);
};
guides = (
{
angle = 46.4879;
pos = (540,482);
},
{
angle = 222.1032;
pos = (684,600);
},
{
angle = 125.24;
pos = (488,0);
}
);
layerId = "3CBDEB72-8799-4680-B3B3-51A575E4F961";
shapes = (
{
closed = 1;
nodes = (
(244,0,l),
(244,214,l),
(306,264,l),
(488,0,l),
(702,0,l),
(436,376,l),
(684,600,l),
(466,600,l),
(248,403,l),
(244,403,l),
(244,840,l),
(60,840,l),
(60,0,l)
);
}
);
userData = {
com.schriftgestaltung.Glyphs.category = Letter;
com.schriftgestaltung.Glyphs.script = latin;
com.schriftgestaltung.Glyphs.subCategory = Lowercase;
};
width = 710;
},
{
anchors = (
{
name = bottom;
pos = (316,0);
},
{
name = top;
pos = (316,960);
}
);
background = {
shapes = (
{
closed = 1;
nodes = (
(184,0,l),
(184,359,ls),
(184,468,o),
(244,532,o),
(345,532,cs),
(446,532,o),
(506,468,o),
(506,359,cs),
(506,0,l),
(596,0,l),
(596,370,ls),
(596,513,o),
(505,612,o),
(374,612,cs),
(289,612,o),
(222,573,o),
(188,510,c),
(184,510,l),
(184,840,l),
(94,840,l),
(94,0,l)
);
}
);
};
guides = (
{
angle = 226.8117;
pos = (469,600);
},
{
angle = 46.6103;
pos = (554,578);
}
);
layerId = "A931EBE4-BC38-4F2A-894C-3FB7E511A35E";
shapes = (
{
closed = 1;
nodes = (
(180,0,l),
(180,220,l),
(263,288,l),
(516,0,l),
(632,0,l),
(326,346,l),
(608,600,l),
(491,600,l),
(184,312,l),
(180,312,l),
(180,840,l),
(86,840,l),
(86,0,l)
);
}
);
userData = {
com.schriftgestaltung.Glyphs.category = Letter;
com.schriftgestaltung.Glyphs.script = latin;
com.schriftgestaltung.Glyphs.subCategory = Lowercase;
};
width = 650;
}
);
unicode = 107;
},
{
glyphname = l;
kernLeft = b;
kernRight = d;
lastChange = "2024-05-08 12:15:40 +0000";
layers = (
{
anchors = (
{
name = bottom;
pos = (155,0);
},
{
name = center;
pos = (155,480);
},
{
name = top;
pos = (155,840);
},
{
name = topright;
pos = (245,840);
}
);
background = {
shapes = (
{
closed = 1;
nodes = (
(208,852,l),
(117,852,l),
(117,0,l),
(208,0,l)
);
}
);
};
layerId = "3CBDEB72-8799-4680-B3B3-51A575E4F961";
shapes = (
{
closed = 1;
nodes = (
(247,0,l),
(247,840,l),
(63,840,l),
(63,0,l)
);
}
);
userData = {
com.schriftgestaltung.Glyphs.category = Letter;
com.schriftgestaltung.Glyphs.script = latin;
com.schriftgestaltung.Glyphs.subCategory = Lowercase;
};
width = 310;
},
{
anchors = (
{
name = bottom;
pos = (140,0);
},
{
name = center;
pos = (140,480);
},
{
name = top;
pos = (140,840);
},
{
name = topright;
pos = (185,840);
}
);
background = {
shapes = (
{
closed = 1;
nodes = (
(193,852,l),
(102,852,l),
(102,0,l),
(193,0,l)
);
}
);
};
layerId = "A931EBE4-BC38-4F2A-894C-3FB7E511A35E";
shapes = (
{
closed = 1;
nodes = (
(187,0,l),
(187,840,l),
(93,840,l),
(93,0,l)
);
}
);
userData = {
com.schriftgestaltung.Glyphs.category = Letter;
com.schriftgestaltung.Glyphs.script = latin;
com.schriftgestaltung.Glyphs.subCategory = Lowercase;
};
width = 280;
}
);
unicode = 108;
},
{
glyphname = lslash;
kernLeft = b;
kernRight = d;
lastChange = "2024-05-08 12:15:40 +0000";
layers = (
{
guides = (
{
angle = 28.2772;
pos = (168,339);
}
);
layerId = "3CBDEB72-8799-4680-B3B3-51A575E4F961";
shapes = (
{
closed = 1;
nodes = (
(277,0,l),
(277,360,l),
(350,399,l),
(350,553,l),
(277,514,l),
(277,840,l),
(93,840,l),
(93,420,l),
(20,381,l),
(20,227,l),
(93,266,l),
(93,0,l)
);
}
);
userData = {
com.schriftgestaltung.Glyphs.category = Letter;
com.schriftgestaltung.Glyphs.script = latin;
com.schriftgestaltung.Glyphs.subCategory = Lowercase;
};
width = 370;
},
{
guides = (
{
angle = 28.2854;
pos = (25,261);
}
);
layerId = "A931EBE4-BC38-4F2A-894C-3FB7E511A35E";
shapes = (
{
closed = 1;
nodes = (
(217,0,l),
(217,376,l),
(320,430,l),
(320,506,l),
(217,452,l),
(217,840,l),
(123,840,l),
(123,404,l),
(20,350,l),
(20,274,l),
(123,328,l),
(123,0,l)
);
}
);
userData = {
com.schriftgestaltung.Glyphs.category = Letter;
com.schriftgestaltung.Glyphs.script = latin;
com.schriftgestaltung.Glyphs.subCategory = Lowercase;
};
width = 340;
}
);
unicode = 322;
},
{
glyphname = m;
kernLeft = n;
kernRight = h;
lastChange = "2024-05-08 12:15:40 +0000";
layers = (
{
anchors = (
{
name = bottom;
pos = (580,0);
},
{
name = top;
pos = (580,600);
}
);
background = {
shapes = (
{
closed = 1;
nodes = (
(226,0,l),
(226,363,ls),
(226,469,o),
(283,529,o),
(372,529,cs),
(461,529,o),
(517,469,o),
(517,363,cs),
(517,0,l),
(607,0,l),
(607,363,ls),
(607,469,o),
(664,529,o),
(753,529,cs),
(842,529,o),
(898,469,o),
(898,363,cs),
(898,0,l),
(988,0,l),
(988,375,ls),
(988,520,o),
(901,611,o),
(772,611,cs),
(689,611,o),
(618,570,o),
(578,498,c),
(543,570,o),
(477,611,o),
(397,611,cs),
(318,611,o),
(257,576,o),
(226,513,c),
(226,600,l),
(136,600,l),
(136,0,l)
);
}
);
};
guides = (
{
pos = (280,486);
}
);
layerId = "3CBDEB72-8799-4680-B3B3-51A575E4F961";
name = "Bold alt";
shapes = (
{
closed = 1;
nodes = (
(294,0,l),
(294,321,ls),
(294,406,o),
(333,447,o),
(410,447,cs),
(489,447,o),
(530,404,o),
(530,321,cs),
(530,0,l),
(714,0,l),
(714,321,ls),
(714,404,o),
(755,447,o),
(832,447,cs),
(910,447,o),
(950,405,o),
(950,321,cs),
(950,0,l),
(1134,0,l),
(1134,357,ls),
(1134,512,o),
(1035,611,o),
(876,611,cs),
(785,611,o),
(721,581,o),
(672,515,c),
(668,515,l),
(625,577,o),
(557,611,o),
(460,611,cs),
(357,611,o),
(291,571,o),
(246,500,c),
(204,500,l),
(204,600,l),
(20,600,l),
(20,420,l),
(110,420,l),
(110,0,l)
);
}
);
userData = {
com.schriftgestaltung.Glyphs.category = Letter;
com.schriftgestaltung.Glyphs.script = latin;
com.schriftgestaltung.Glyphs.subCategory = Lowercase;
};
width = 1190;
},
{
anchors = (
{
name = bottom;
pos = (572,0);
},
{
name = top;
pos = (572,600);
}
);
background = {
shapes = (
{
closed = 1;
nodes = (
(686,611,o),
(613,577,o),
(574,508,c),
(569,508,l),
(541,578,o),
(478,611,o),
(387,611,cs),
(310,611,o),
(244,577,o),
(208,515,c),
(203,515,l),
(189,600,l),
(116,600,l),
(116,0,l),
(207,0,l),
(207,318,ls),
(207,459,o),
(252,534,o),
(371,534,cs),
(455,534,o),
(496,486,o),
(496,389,cs),
(496,0,l),
(587,0,l),
(587,336,ls),
(587,466,o),
(637,534,o),
(753,534,cs),
(835,534,o),
(878,486,o),
(878,389,cs),
(878,0,l),
(967,0,l),
(967,393,ls),
(967,545,o),
(899,611,o),
(767,611,cs)
);
}
);
};
layerId = "A931EBE4-BC38-4F2A-894C-3FB7E511A35E";
name = "Light alt";
shapes = (
{
closed = 1;
nodes = (
(200,0,l),
(200,363,ls),
(200,471,o),
(257,529,o),
(362,529,cs),
(470,529,o),
(525,472,o),
(525,363,cs),
(525,0,l),
(619,0,l),
(619,363,ls),
(619,472,o),
(675,529,o),
(781,529,cs),
(889,529,o),
(944,473,o),
(944,363,cs),
(944,0,l),
(1038,0,l),
(1038,375,ls),
(1038,523,o),
(953,611,o),
(809,611,cs),
(711,611,o),
(642,572,o),
(601,492,c),
(598,492,l),
(559,573,o),
(493,611,o),
(400,611,cs),
(309,611,o),
(242,575,o),
(210,510,c),
(160,510,l),
(160,600,l),
(56,600,l),
(56,500,l),
(106,500,l),
(106,0,l)
);
}
);
userData = {
com.schriftgestaltung.Glyphs.category = Letter;
com.schriftgestaltung.Glyphs.script = latin;
com.schriftgestaltung.Glyphs.subCategory = Lowercase;
};
width = 1120;
}
);
unicode = 109;
},
{
glyphname = n;
kernLeft = n;
kernRight = h;
lastChange = "2024-05-08 12:15:40 +0000";
layers = (
{
anchors = (
{
name = bottom;
pos = (397,0);
},
{
name = top;
pos = (397,600);
}
);
background = {
shapes = (
{
attr = {
strokeWidth = 90;
};
closed = 0;
nodes = (
(192,600,l),
(192,0,l)
);
},
{
attr = {
strokeWidth = 90;
};
closed = 0;
nodes = (
(602,0,l),
(602,361,ls),
(602,474,o),
(510,566,o),
(397,566,cs),
(284,566,o),
(192,474,o),
(192,361,cs)
);
}
);
};
guides = (
{
angle = 270;
pos = (101,300);
},
{
angle = 90;
pos = (281,178);
},
{
angle = 90;
pos = (693,185);
},
{
angle = 270;
pos = (513,178);
}
);
layerId = "3CBDEB72-8799-4680-B3B3-51A575E4F961";
name = "Bold alt";
shapes = (
{
closed = 1;
nodes = (
(294,0,l),
(294,321,ls),
(294,404,o),
(338,447,o),
(422,447,cs),
(506,447,o),
(550,404,o),
(550,321,cs),
(550,0,l),
(734,0,l),
(734,357,ls),
(734,511,o),
(639,611,o),
(469,611,cs),
(360,611,o),
(294,569,o),
(246,500,c),
(204,500,l),
(204,600,l),
(20,600,l),
(20,420,l),
(110,420,l),
(110,0,l)
);
}
);
userData = {
com.schriftgestaltung.Glyphs.category = Letter;
com.schriftgestaltung.Glyphs.script = latin;
com.schriftgestaltung.Glyphs.subCategory = Lowercase;
};
width = 790;
},
{
anchors = (
{
name = bottom;
pos = (381,0);
},
{
name = top;
pos = (381,600);
}
);
background = {
shapes = (
{
attr = {
strokeWidth = 90;
};
closed = 0;
nodes = (
(152,600,l),
(152,0,l)
);
},
{
attr = {
strokeWidth = 90;
};
closed = 0;
nodes = (
(562,0,l),
(562,361,ls),
(562,474,o),
(470,566,o),
(357,566,cs),
(244,566,o),
(152,474,o),
(152,361,cs)
);
}
);
};
layerId = "A931EBE4-BC38-4F2A-894C-3FB7E511A35E";
name = "Light alt";
shapes = (
{
closed = 1;
nodes = (
(200,0,l),
(200,355,ls),
(200,468,o),
(264,529,o),
(382,529,cs),
(500,529,o),
(564,468,o),
(564,355,cs),
(564,0,l),
(658,0,l),
(658,369,ls),
(658,516,o),
(561,611,o),
(411,611,cs),
(317,611,o),
(242,576,o),
(202,510,c),
(160,510,l),
(160,600,l),
(56,600,l),
(56,500,l),
(106,500,l),
(106,0,l)
);
}
);
userData = {
com.schriftgestaltung.Glyphs.category = Letter;
com.schriftgestaltung.Glyphs.script = latin;
com.schriftgestaltung.Glyphs.subCategory = Lowercase;
};
width = 740;
}
);
unicode = 110;
},
{
glyphname = eng;
kernLeft = n;
kernRight = h;
lastChange = "2024-05-08 12:15:40 +0000";
layers = (
{
anchors = (
{
name = bottom;
pos = (406,-240);
},
{
name = top;
pos = (405,600);
}
);
layerId = "3CBDEB72-8799-4680-B3B3-51A575E4F961";
shapes = (
{
closed = 1;
nodes = (
(590,-240,ls),
(683,-240,o),
(734,-194,o),
(734,-96,cs),
(734,357,ls),
(734,511,o),
(639,611,o),
(469,611,cs),
(360,611,o),
(294,569,o),
(246,500,c),
(204,500,l),
(204,600,l),
(20,600,l),
(20,420,l),
(110,420,l),
(110,0,l),
(294,0,l),
(294,321,ls),
(294,404,o),
(338,447,o),
(422,447,cs),
(506,447,o),
(550,404,o),
(550,321,cs),
(550,-96,l),
(442,-96,l),
(442,-240,l)
);
}
);
userData = {
com.schriftgestaltung.Glyphs.category = Letter;
com.schriftgestaltung.Glyphs.script = latin;
com.schriftgestaltung.Glyphs.subCategory = Lowercase;
};
width = 790;
},
{
anchors = (
{
name = bottom;
pos = (364,-240);
},
{
name = top;
pos = (364,600);
}
);
layerId = "A931EBE4-BC38-4F2A-894C-3FB7E511A35E";
shapes = (
{
closed = 1;
nodes = (
(568,-240,ls),
(624,-240,o),
(658,-210,o),
(658,-150,cs),
(658,369,ls),
(658,516,o),
(561,611,o),
(411,611,cs),
(317,611,o),
(242,576,o),
(202,510,c),
(160,510,l),
(160,600,l),
(56,600,l),
(56,500,l),
(106,500,l),
(106,0,l),
(200,0,l),
(200,355,ls),
(200,468,o),
(264,529,o),
(382,529,cs),
(500,529,o),
(564,468,o),
(564,355,cs),
(564,-168,l),
(431,-168,l),
(431,-240,l)
);
}
);
userData = {
com.schriftgestaltung.Glyphs.category = Letter;
com.schriftgestaltung.Glyphs.script = latin;
com.schriftgestaltung.Glyphs.subCategory = Lowercase;
};
width = 710;
}
);
unicode = 331;
},
{
glyphname = o;
kernLeft = d;
kernRight = b;
lastChange = "2024-05-08 12:15:40 +0000";
layers = (
{
anchors = (
{
name = bottom;
pos = (354,0);
},
{
name = center;
pos = (354,300);
},
{
name = ogonek;
pos = (654,10);
},
{
name = top;
pos = (354,600);
},
{
name = topright;
pos = (706,600);
}
);
layerId = "3CBDEB72-8799-4680-B3B3-51A575E4F961";
shapes = (
{
closed = 1;
nodes = (
(555,-12,o),
(682,109,o),
(682,300,cs),
(682,491,o),
(556,612,o),
(357,612,cs),
(157,612,o),
(28,491,o),
(28,301,cs),
(28,110,o),
(157,-12,o),
(356,-12,cs)
);
},
{
closed = 1;
nodes = (
(263,148,o),
(212,207,o),
(212,301,cs),
(212,394,o),
(263,452,o),
(356,452,cs),
(448,452,o),
(498,394,o),
(498,301,cs),
(498,207,o),
(448,148,o),
(356,148,cs)
);
}
);
userData = {
com.schriftgestaltung.Glyphs.category = Letter;
com.schriftgestaltung.Glyphs.script = latin;
com.schriftgestaltung.Glyphs.subCategory = Lowercase;
};
width = 710;
},
{
anchors = (
{
name = bottom;
pos = (355,0);
},
{
name = center;
pos = (355,300);
},
{
name = ogonek;
pos = (655,10);
},
{
name = top;
pos = (355,600);
},
{
name = topright;
pos = (707,600);
}
);
background = {
shapes = (
{
closed = 1;
nodes = (
(173,-12,o),
(53,122,o),
(53,300,cs),
(53,475,o),
(166,612,o),
(341,612,cs),
(508,612,o),
(629,478,o),
(629,300,cs),
(629,121,o),
(508,-12,o),
(341,-12,cs)
);
},
{
closed = 1;
nodes = (
(346,84,ls),
(445,84,o),
(515,166,o),
(515,300,cs),
(515,434,o),
(445,516,o),
(346,516,cs),
(336,516,ls),
(236,516,o),
(167,434,o),
(167,300,cs),
(167,166,o),
(236,84,o),
(336,84,cs)
);
}
);
};
layerId = "A931EBE4-BC38-4F2A-894C-3FB7E511A35E";
shapes = (
{
closed = 1;
nodes = (
(541,-12,o),
(658,109,o),
(658,300,cs),
(658,492,o),
(542,612,o),
(355,612,cs),
(170,612,o),
(52,490,o),
(52,300,cs),
(52,110,o),
(171,-12,o),
(355,-12,cs)
);
},
{
closed = 1;
nodes = (
(224,70,o),
(146,155,o),
(146,300,cs),
(146,445,o),
(224,530,o),
(355,530,cs),
(487,530,o),
(564,446,o),
(564,300,cs),
(564,154,o),
(487,70,o),
(355,70,cs)
);
}
);
userData = {
com.schriftgestaltung.Glyphs.category = Letter;
com.schriftgestaltung.Glyphs.script = latin;
com.schriftgestaltung.Glyphs.subCategory = Lowercase;
};
width = 710;
}
);
unicode = 111;
},
{
glyphname = oslash;
kernLeft = d;
kernRight = b;
lastChange = "2024-05-08 12:15:40 +0000";
layers = (
{
anchors = (
{
name = top;
pos = (354,600);
}
);
background = {
shapes = (
{
closed = 1;
nodes = (
(516,-12,o),
(642,109,o),
(642,300,cs),
(642,492,o),
(517,612,o),
(340,612,cs),
(166,612,o),
(38,491,o),
(38,300,cs),
(38,110,o),
(166,-12,o),
(340,-12,cs)
);
},
{
closed = 1;
nodes = (
(266,142,o),
(212,203,o),
(212,300,cs),
(212,398,o),
(266,458,o),
(340,458,cs),
(416,458,o),
(468,398,o),
(468,300,cs),
(468,203,o),
(416,142,o),
(340,142,cs)
);
},
{
closed = 1;
nodes = (
(268,123,l),
(255,120,l),
(481,430,l),
(494,440,l),
(600,586,l),
(527,634,l),
(420,488,l),
(427,480,l),
(196,163,l),
(195,172,l),
(78,11,l),
(151,-37,l)
);
}
);
};
guides = (
{
angle = -41.3086;
pos = (144,-37);
},
{
angle = 228.6745;
pos = (329,327);
},
{
angle = 48.6914;
pos = (383,273);
}
);
layerId = "3CBDEB72-8799-4680-B3B3-51A575E4F961";
shapes = (
{
closed = 1;
nodes = (
(178,29,l),
(227,2,o),
(287,-12,o),
(356,-12,cs),
(555,-12,o),
(682,109,o),
(682,300,cs),
(682,389,o),
(655,463,o),
(605,516,c),
(658,575,l),
(591,634,l),
(535,571,l),
(486,598,o),
(426,612,o),
(357,612,cs),
(157,612,o),
(28,491,o),
(28,301,cs),
(28,211,o),
(56,137,o),
(107,83,c),
(52,22,l),
(119,-37,l)
);
},
{
closed = 1;
nodes = (
(211,235,o),
(202,265,o),
(202,300,cs),
(202,398,o),
(266,458,o),
(355,458,cs),
(380,458,o),
(408,454,o),
(431,443,c),
(227,211,l)
);
},
{
closed = 1;
nodes = (
(328,142,o),
(302,147,o),
(281,157,c),
(484,388,l),
(499,365,o),
(508,336,o),
(508,300,cs),
(508,203,o),
(446,142,o),
(354,142,cs)
);
}
);
userData = {
com.schriftgestaltung.Glyphs.category = Letter;
com.schriftgestaltung.Glyphs.script = latin;
com.schriftgestaltung.Glyphs.subCategory = Lowercase;
};
width = 710;
},
{
anchors = (
{
name = top;
pos = (354,600);
}
);
background = {
shapes = (
{
closed = 1;
nodes = (
(502,-12,o),
(618,109,o),
(618,300,cs),
(618,492,o),
(503,612,o),
(340,612,cs),
(180,612,o),
(62,491,o),
(62,300,cs),
(62,110,o),
(180,-12,o),
(340,-12,cs)
);
},
{
closed = 1;
nodes = (
(226,70,o),
(152,161,o),
(152,300,cs),
(152,440,o),
(226,530,o),
(340,530,cs),
(456,530,o),
(528,440,o),
(528,300,cs),
(528,161,o),
(456,70,o),
(340,70,cs)
);
},
{
closed = 1;
nodes = (
(600,594,l),
(539,634,l),
(80,4,l),
(140,-37,l)
);
}
);
};
guides = (
{
angle = -39.7574;
pos = (128,-36);
},
{
angle = 230.5445;
pos = (331,324);
},
{
angle = 50.2426;
pos = (381,277);
}
);
layerId = "A931EBE4-BC38-4F2A-894C-3FB7E511A35E";
shapes = (
{
closed = 1;
nodes = (
(182,34,l),
(229,4,o),
(288,-12,o),
(355,-12,cs),
(541,-12,o),
(658,109,o),
(658,300,cs),
(658,391,o),
(632,466,o),
(584,520,c),
(641,588,l),
(585,634,l),
(530,566,l),
(482,596,o),
(424,612,o),
(355,612,cs),
(170,612,o),
(52,490,o),
(52,300,cs),
(52,209,o),
(79,134,o),
(127,81,c),
(69,10,l),
(125,-36,l)
);
},
{
closed = 1;
nodes = (
(154,187,o),
(138,239,o),
(138,300,cs),
(138,442,o),
(224,533,o),
(355,533,cs),
(401,533,o),
(441,523,o),
(476,501,c),
(184,146,l)
);
},
{
closed = 1;
nodes = (
(310,67,o),
(271,78,o),
(235,101,c),
(527,456,l),
(554,418,o),
(572,361,o),
(572,300,cs),
(572,159,o),
(488,67,o),
(354,67,cs)
);
}
);
userData = {
com.schriftgestaltung.Glyphs.category = Letter;
com.schriftgestaltung.Glyphs.script = latin;
com.schriftgestaltung.Glyphs.subCategory = Lowercase;
};
width = 710;
}
);
unicode = 248;
},
{
glyphname = oe;
kernLeft = d;
kernRight = e;
lastChange = "2024-05-08 12:15:40 +0000";
layers = (
{
anchors = (
{
name = bottom;
pos = (721,0);
},
{
name = top;
pos = (721,600);
}
);
background = {
shapes = (
{
closed = 1;
nodes = (
(555,-12,o),
(682,109,o),
(682,300,cs),
(682,492,o),
(556,612,o),
(355,612,cs),
(157,612,o),
(28,491,o),
(28,300,cs),
(28,110,o),
(157,-12,o),
(355,-12,cs)
);
},
{
closed = 1;
nodes = (
(263,148,o),
(212,207,o),
(212,300,cs),
(212,394,o),
(263,452,o),
(355,452,cs),
(448,452,o),
(498,394,o),
(498,300,cs),
(498,207,o),
(448,148,o),
(355,148,cs)
);
}
);
};
layerId = "3CBDEB72-8799-4680-B3B3-51A575E4F961";
shapes = (
{
closed = 1;
nodes = (
(445,-12,o),
(527,16,o),
(582,78,c),
(587,78,l),
(644,14,o),
(727,-12,o),
(817,-12,cs),
(965,-12,o),
(1086,66,o),
(1112,197,c),
(924,197,l),
(909,155,o),
(867,132,o),
(816,132,cs),
(742,132,o),
(686,171,o),
(673,249,c),
(1112,249,l),
(1112,308,ls),
(1112,504,o),
(980,612,o),
(810,612,cs),
(719,612,o),
(642,586,o),
(588,522,c),
(583,522,l),
(528,584,o),
(446,612,o),
(352,612,cs),
(167,612,o),
(28,491,o),
(28,300,cs),
(28,110,o),
(167,-12,o),
(352,-12,cs)
);
},
{
closed = 1;
nodes = (
(273,148,o),
(212,207,o),
(212,300,cs),
(212,394,o),
(273,452,o),
(352,452,cs),
(433,452,o),
(492,394,o),
(492,300,cs),
(492,207,o),
(433,148,o),
(352,148,cs)
);
},
{
closed = 1;
nodes = (
(696,438,o),
(748,468,o),
(811,468,cs),
(872,468,o),
(921,435,o),
(933,369,c),
(677,369,l)
);
}
);
userData = {
com.schriftgestaltung.Glyphs.category = Letter;
com.schriftgestaltung.Glyphs.script = latin;
com.schriftgestaltung.Glyphs.subCategory = Lowercase;
};
width = 1140;
},
{
anchors = (
{
name = bottom;
pos = (711,0);
},
{
name = top;
pos = (711,600);
}
);
background = {
shapes = (
{
closed = 1;
nodes = (
(541,-12,o),
(658,109,o),
(658,300,cs),
(658,492,o),
(542,612,o),
(355,612,cs),
(170,612,o),
(52,490,o),
(52,300,cs),
(52,110,o),
(171,-12,o),
(355,-12,cs)
);
},
{
closed = 1;
nodes = (
(224,70,o),
(146,155,o),
(146,300,cs),
(146,445,o),
(224,530,o),
(355,530,cs),
(487,530,o),
(564,446,o),
(564,300,cs),
(564,154,o),
(487,70,o),
(355,70,cs)
);
}
);
};
layerId = "A931EBE4-BC38-4F2A-894C-3FB7E511A35E";
shapes = (
{
closed = 1;
nodes = (
(465,-12,o),
(557,36,o),
(607,126,c),
(612,126,l),
(664,35,o),
(756,-12,o),
(864,-12,cs),
(992,-12,o),
(1096,59,o),
(1126,179,c),
(1030,179,l),
(1009,114,o),
(943,70,o),
(859,70,cs),
(736,70,o),
(655,154,o),
(650,289,c),
(1128,289,l),
(1128,334,ls),
(1128,504,o),
(1012,612,o),
(857,612,cs),
(753,612,o),
(662,567,o),
(612,480,c),
(607,480,l),
(557,566,o),
(465,612,o),
(353,612,cs),
(181,612,o),
(52,491,o),
(52,300,cs),
(52,110,o),
(181,-12,o),
(353,-12,cs)
);
},
{
closed = 1;
nodes = (
(230,70,o),
(146,161,o),
(146,300,cs),
(146,440,o),
(230,530,o),
(353,530,cs),
(479,530,o),
(560,439,o),
(560,300,cs),
(560,162,o),
(479,70,o),
(353,70,cs)
);
},
{
closed = 1;
nodes = (
(676,468,o),
(748,532,o),
(852,532,cs),
(953,532,o),
(1028,468,o),
(1038,361,c),
(656,361,l)
);
}
);
userData = {
com.schriftgestaltung.Glyphs.category = Letter;
com.schriftgestaltung.Glyphs.script = latin;
com.schriftgestaltung.Glyphs.subCategory = Lowercase;
};
width = 1180;
}
);
unicode = 339;
},
{
glyphname = p;
kernLeft = n;
kernRight = b;
lastChange = "2024-05-08 12:15:40 +0000";
layers = (
{
anchors = (
{
name = bottom;
pos = (354,0);
},
{
name = top;
pos = (354,600);
}
);
layerId = "3CBDEB72-8799-4680-B3B3-51A575E4F961";
shapes = (
{
closed = 1;
nodes = (
(294,-240,l),
(294,77,l),
(298,77,l),
(332,21,o),
(394,-12,o),
(479,-12,cs),
(652,-12,o),
(752,114,o),
(752,300,cs),
(752,485,o),
(652,612,o),
(463,612,cs),
(362,612,o),
(289,571,o),
(246,500,c),
(204,500,l),
(204,600,l),
(20,600,l),
(20,420,l),
(110,420,l),
(110,-240,l)
);
},
{
closed = 1;
nodes = (
(345,148,o),
(294,197,o),
(294,278,cs),
(294,322,ls),
(294,403,o),
(345,452,o),
(428,452,cs),
(523,452,o),
(568,393,o),
(568,300,cs),
(568,207,o),
(523,148,o),
(428,148,cs)
);
}
);
userData = {
com.schriftgestaltung.Glyphs.category = Letter;
com.schriftgestaltung.Glyphs.script = latin;
com.schriftgestaltung.Glyphs.subCategory = Lowercase;
};
width = 780;
},
{
anchors = (
{
name = bottom;
pos = (379,0);
},
{
name = top;
pos = (379,600);
}
);
layerId = "A931EBE4-BC38-4F2A-894C-3FB7E511A35E";
shapes = (
{
closed = 1;
nodes = (
(200,-240,l),
(200,102,l),
(204,102,l),
(241,28,o),
(316,-12,o),
(414,-12,cs),
(584,-12,o),
(688,106,o),
(688,300,cs),
(688,494,o),
(583,612,o),
(406,612,cs),
(310,612,o),
(242,577,o),
(202,510,c),
(160,510,l),
(160,600,l),
(56,600,l),
(56,500,l),
(106,500,l),
(106,-240,l)
);
},
{
closed = 1;
nodes = (
(277,68,o),
(200,140,o),
(200,251,cs),
(200,349,ls),
(200,460,o),
(277,532,o),
(393,532,cs),
(520,532,o),
(594,447,o),
(594,300,cs),
(594,153,o),
(520,68,o),
(393,68,cs)
);
}
);
userData = {
com.schriftgestaltung.Glyphs.category = Letter;
com.schriftgestaltung.Glyphs.script = latin;
com.schriftgestaltung.Glyphs.subCategory = Lowercase;
};
width = 740;
}
);
unicode = 112;
},
{
glyphname = thorn;
kernLeft = b;
kernRight = b;
lastChange = "2024-05-08 12:15:40 +0000";
layers = (
{
anchors = (
{
name = bottom;
pos = (365,0);
},
{
name = top;
pos = (365,600);
}
);
layerId = "3CBDEB72-8799-4680-B3B3-51A575E4F961";
shapes = (
{
closed = 1;
nodes = (
(244,-240,l),
(244,77,l),
(248,77,l),
(282,21,o),
(344,-12,o),
(429,-12,cs),
(602,-12,o),
(702,114,o),
(702,300,cs),
(702,485,o),
(602,612,o),
(429,612,cs),
(344,612,o),
(284,578,o),
(248,518,c),
(244,518,l),
(244,840,l),
(60,840,l),
(60,-240,l)
);
},
{
closed = 1;
nodes = (
(295,148,o),
(244,197,o),
(244,278,cs),
(244,322,ls),
(244,403,o),
(295,452,o),
(378,452,cs),
(473,452,o),
(518,393,o),
(518,300,cs),
(518,207,o),
(473,148,o),
(378,148,cs)
);
}
);
userData = {
com.schriftgestaltung.Glyphs.category = Letter;
com.schriftgestaltung.Glyphs.script = latin;
com.schriftgestaltung.Glyphs.subCategory = Lowercase;
};
width = 730;
},
{
anchors = (
{
name = bottom;
pos = (343,0);
},
{
name = top;
pos = (343,600);
}
);
layerId = "A931EBE4-BC38-4F2A-894C-3FB7E511A35E";
shapes = (
{
closed = 1;
nodes = (
(180,-240,l),
(180,102,l),
(184,102,l),
(221,28,o),
(296,-12,o),
(394,-12,cs),
(564,-12,o),
(668,106,o),
(668,300,cs),
(668,494,o),
(564,612,o),
(394,612,cs),
(295,612,o),
(222,572,o),
(185,498,c),
(180,498,l),
(180,840,l),
(86,840,l),
(86,-240,l)
);
},
{
closed = 1;
nodes = (
(257,68,o),
(180,140,o),
(180,251,cs),
(180,349,ls),
(180,460,o),
(257,532,o),
(373,532,cs),
(500,532,o),
(574,447,o),
(574,300,cs),
(574,153,o),
(500,68,o),
(373,68,cs)
);
}
);
userData = {
com.schriftgestaltung.Glyphs.category = Letter;
com.schriftgestaltung.Glyphs.script = latin;
com.schriftgestaltung.Glyphs.subCategory = Lowercase;
};
width = 720;
}
);
unicode = 254;
},
{
glyphname = q;
kernLeft = d;
kernRight = g;
lastChange = "2024-05-08 12:32:26 +0000";
layers = (
{
anchors = (
{
name = bottom;
pos = (364,0);
},
{
name = top;
pos = (364,600);
}
);
layerId = "3CBDEB72-8799-4680-B3B3-51A575E4F961";
shapes = (
{
closed = 1;
nodes = (
(670,-240,l),
(670,420,l),
(760,420,l),
(760,600,l),
(576,600,l),
(576,500,l),
(534,500,l),
(491,571,o),
(418,612,o),
(317,612,cs),
(128,612,o),
(28,485,o),
(28,300,cs),
(28,114,o),
(128,-12,o),
(301,-12,cs),
(386,-12,o),
(448,21,o),
(482,77,c),
(486,77,l),
(486,-240,l)
);
},
{
closed = 1;
nodes = (
(257,148,o),
(212,207,o),
(212,300,cs),
(212,393,o),
(257,452,o),
(352,452,cs),
(435,452,o),
(486,403,o),
(486,322,cs),
(486,278,ls),
(486,197,o),
(435,148,o),
(352,148,cs)
);
}
);
userData = {
com.schriftgestaltung.Glyphs.category = Letter;
com.schriftgestaltung.Glyphs.script = latin;
com.schriftgestaltung.Glyphs.subCategory = Lowercase;
};
width = 780;
},
{
anchors = (
{
name = bottom;
pos = (359,0);
},
{
name = top;
pos = (359,600);
}
);
layerId = "A931EBE4-BC38-4F2A-894C-3FB7E511A35E";
shapes = (
{
closed = 1;
nodes = (
(634,-240,l),
(634,500,l),
(684,500,l),
(684,600,l),
(580,600,l),
(580,510,l),
(538,510,l),
(498,577,o),
(430,612,o),
(334,612,cs),
(157,612,o),
(52,494,o),
(52,300,cs),
(52,106,o),
(156,-12,o),
(326,-12,cs),
(424,-12,o),
(499,28,o),
(536,102,c),
(540,102,l),
(540,-240,l)
);
},
{
closed = 1;
nodes = (
(220,68,o),
(146,153,o),
(146,300,cs),
(146,447,o),
(220,532,o),
(347,532,cs),
(463,532,o),
(540,460,o),
(540,349,cs),
(540,251,ls),
(540,140,o),
(463,68,o),
(347,68,cs)
);
}
);
userData = {
com.schriftgestaltung.Glyphs.category = Letter;
com.schriftgestaltung.Glyphs.script = latin;
com.schriftgestaltung.Glyphs.subCategory = Lowercase;
};
width = 740;
}
);
unicode = 113;
},
{
glyphname = r;
kernLeft = n;
kernRight = r;
lastChange = "2024-05-08 12:15:40 +0000";
layers = (
{
anchors = (
{
name = bottom;
pos = (208,0);
},
{
name = top;
pos = (307,600);
}
);
background = {
shapes = (
{
closed = 1;
nodes = (
(338,611,o),
(277,556,o),
(240,490,c),
(236,490,l),
(226,600,l),
(151,600,l),
(151,0,l),
(242,0,l),
(242,322,ls),
(242,446,o),
(321,528,o),
(418,528,cs),
(439,528,o),
(465,525,o),
(485,520,c),
(496,604,l),
(476,608,o),
(448,611,o),
(424,611,cs)
);
}
);
};
guides = (
{
pos = (455,444);
},
{
angle = 180;
pos = (455,604);
},
{
angle = 270;
pos = (298,158);
},
{
angle = 90;
pos = (118,300);
}
);
layerId = "3CBDEB72-8799-4680-B3B3-51A575E4F961";
name = "Bold alt";
shapes = (
{
closed = 1;
nodes = (
(298,0,l),
(298,300,ls),
(298,388,o),
(338,448,o),
(437,448,cs),
(496,448,l),
(496,608,l),
(445,608,ls),
(359,608,o),
(284,566,o),
(254,480,c),
(212,480,l),
(212,600,l),
(28,600,l),
(28,420,l),
(118,420,l),
(118,0,l)
);
}
);
userData = {
com.schriftgestaltung.Glyphs.category = Letter;
com.schriftgestaltung.Glyphs.script = latin;
com.schriftgestaltung.Glyphs.subCategory = Lowercase;
};
width = 520;
},
{
anchors = (
{
name = bottom;
pos = (167,0);
},
{
name = top;
pos = (293,600);
}
);
background = {
shapes = (
{
closed = 1;
nodes = (
(323,611,o),
(262,556,o),
(225,490,c),
(221,490,l),
(211,600,l),
(136,600,l),
(136,0,l),
(227,0,l),
(227,322,ls),
(227,446,o),
(306,528,o),
(403,528,cs),
(424,528,o),
(450,525,o),
(470,520,c),
(481,604,l),
(461,608,o),
(433,611,o),
(409,611,cs)
);
}
);
};
layerId = "A931EBE4-BC38-4F2A-894C-3FB7E511A35E";
name = "Light alt";
shapes = (
{
closed = 1;
nodes = (
(212,0,l),
(212,316,ls),
(212,444,o),
(286,524,o),
(412,524,cs),
(466,524,l),
(466,604,l),
(417,604,ls),
(321,604,o),
(248,560,o),
(214,490,c),
(172,490,l),
(172,600,l),
(68,600,l),
(68,500,l),
(118,500,l),
(118,0,l)
);
}
);
userData = {
com.schriftgestaltung.Glyphs.category = Letter;
com.schriftgestaltung.Glyphs.script = latin;
com.schriftgestaltung.Glyphs.subCategory = Lowercase;
};
width = 490;
}
);
unicode = 114;
},
{
glyphname = s;
kernLeft = s;
kernRight = s;
lastChange = "2024-05-08 12:15:40 +0000";
layers = (
{
anchors = (
{
name = bottom;
pos = (332,0);
},
{
name = top;
pos = (312,600);
}
);
background = {
shapes = (
{
closed = 1;
nodes = (
(527,262,o),
(457,300,o),
(344,342,cs),
(231,384,o),
(188,403,o),
(188,459,cs),
(188,507,o),
(234,537,o),
(318,537,cs),
(376,537,o),
(433,520,o),
(483,499,c),
(514,572,l),
(459,596,o),
(396,611,o),
(324,611,cs),
(190,611,o),
(100,555,o),
(100,453,cs),
(100,353,o),
(172,319,o),
(287,276,cs),
(403,233,o),
(439,206,o),
(439,157,cs),
(439,99,o),
(395,63,o),
(291,63,cs),
(220,63,o),
(148,87,o),
(99,111,c),
(99,27,l),
(145,3,o),
(205,-11,o),
(289,-11,cs),
(436,-11,o),
(527,49,o),
(527,164,cs)
);
}
);
};
guides = (
{
angle = -12.3954;
pos = (285,230);
},
{
angle = 167.6046;
pos = (333,386);
},
{
angle = 180;
pos = (303,480);
},
{
angle = 180;
pos = (307,612);
},
{
angle = 90;
pos = (51,437);
},
{
angle = 90;
pos = (219,444);
},
{
angle = 90;
pos = (402,157);
},
{
angle = 90;
pos = (570,159);
},
{
pos = (313,126);
},
{
pos = (140,204);
}
);
layerId = "3CBDEB72-8799-4680-B3B3-51A575E4F961";
shapes = (
{
closed = 1;
nodes = (
(508,-12,o),
(604,63,o),
(604,188,cs),
(604,285,o),
(546,341,o),
(418,366,cs),
(280,393,ls),
(245,400,o),
(228,414,o),
(228,436,cs),
(228,465,o),
(258,480,o),
(311,480,cs),
(376,480,o),
(408,458,o),
(421,406,c),
(598,406,l),
(590,536,o),
(489,612,o),
(323,612,cs),
(156,612,o),
(56,536,o),
(56,419,cs),
(56,328,o),
(117,271,o),
(240,247,cs),
(374,221,ls),
(415,213,o),
(432,198,o),
(432,173,cs),
(432,141,o),
(403,126,o),
(342,126,cs),
(265,126,o),
(226,150,o),
(215,204,c),
(38,204,l),
(46,68,o),
(154,-12,o),
(334,-12,cs)
);
}
);
userData = {
com.schriftgestaltung.Glyphs.category = Letter;
com.schriftgestaltung.Glyphs.script = latin;
com.schriftgestaltung.Glyphs.subCategory = Lowercase;
};
width = 630;
},
{
anchors = (
{
name = bottom;
pos = (294,0);
},
{
name = top;
pos = (296,600);
}
);
background = {
shapes = (
{
closed = 1;
nodes = (
(521,262,o),
(451,300,o),
(338,342,cs),
(225,384,o),
(182,403,o),
(182,459,cs),
(182,507,o),
(228,537,o),
(312,537,cs),
(370,537,o),
(427,520,o),
(477,499,c),
(508,572,l),
(453,596,o),
(390,611,o),
(318,611,cs),
(184,611,o),
(94,555,o),
(94,453,cs),
(94,353,o),
(166,319,o),
(281,276,cs),
(397,233,o),
(433,206,o),
(433,157,cs),
(433,99,o),
(389,63,o),
(285,63,cs),
(214,63,o),
(142,87,o),
(93,111,c),
(93,27,l),
(139,3,o),
(199,-11,o),
(283,-11,cs),
(430,-11,o),
(521,49,o),
(521,164,cs)
);
}
);
};
guides = (
{
angle = 72.6884;
pos = (339,260);
},
{
angle = 180;
pos = (472,430);
}
);
layerId = "A931EBE4-BC38-4F2A-894C-3FB7E511A35E";
shapes = (
{
closed = 1;
nodes = (
(465,-12,o),
(552,55,o),
(552,171,cs),
(552,261,o),
(500,314,o),
(386,335,cs),
(256,359,ls),
(185,372,o),
(156,396,o),
(156,442,cs),
(156,502,o),
(206,534,o),
(295,534,cs),
(388,534,o),
(439,500,o),
(454,430,c),
(546,430,l),
(532,544,o),
(441,612,o),
(296,612,cs),
(155,612,o),
(68,545,o),
(68,437,cs),
(68,353,o),
(121,301,o),
(231,281,cs),
(362,257,ls),
(436,243,o),
(465,217,o),
(465,164,cs),
(465,98,o),
(416,66,o),
(312,66,cs),
(199,66,o),
(141,103,o),
(132,180,c),
(38,180,l),
(47,59,o),
(146,-12,o),
(309,-12,cs)
);
}
);
userData = {
com.schriftgestaltung.Glyphs.category = Letter;
com.schriftgestaltung.Glyphs.script = latin;
com.schriftgestaltung.Glyphs.subCategory = Lowercase;
};
width = 590;
}
);
unicode = 115;
},
{
glyphname = germandbls;
kernLeft = b;
kernRight = b;
lastChange = "2024-05-08 12:15:40 +0000";
layers = (
{
layerId = "3CBDEB72-8799-4680-B3B3-51A575E4F961";
shapes = (
{
closed = 1;
nodes = (
(406,0,ls),
(581,2,o),
(701,83,o),
(701,243,cs),
(701,383,o),
(611,451,o),
(513,459,c),
(513,463,l),
(585,480,o),
(647,538,o),
(647,637,cs),
(647,760,o),
(554,852,o),
(365,852,cs),
(154,852,o),
(60,737,o),
(60,587,cs),
(60,0,l),
(244,0,l),
(244,581,ls),
(244,665,o),
(283,702,o),
(358,702,cs),
(426,702,o),
(467,671,o),
(467,614,cs),
(467,554,o),
(420,524,o),
(359,524,cs),
(322,524,l),
(322,374,l),
(374,374,ls),
(466,374,o),
(517,334,o),
(517,262,cs),
(517,188,o),
(465,149,o),
(373,149,cs),
(322,149,l),
(322,-1,l)
);
}
);
userData = {
com.schriftgestaltung.Glyphs.category = Letter;
com.schriftgestaltung.Glyphs.script = latin;
com.schriftgestaltung.Glyphs.subCategory = Lowercase;
};
width = 730;
},
{
layerId = "A931EBE4-BC38-4F2A-894C-3FB7E511A35E";
shapes = (
{
closed = 1;
nodes = (
(375,0,l),
(553,0,o),
(668,96,o),
(668,246,cs),
(668,369,o),
(586,456,o),
(461,465,c),
(461,469,l),
(554,488,o),
(614,554,o),
(614,646,cs),
(614,772,o),
(512,852,o),
(361,852,cs),
(190,852,o),
(86,760,o),
(86,609,cs),
(86,0,l),
(180,0,l),
(180,604,ls),
(180,723,o),
(238,780,o),
(361,780,cs),
(462,780,o),
(520,731,o),
(520,637,cs),
(520,548,o),
(453,497,o),
(343,497,cs),
(280,497,l),
(280,419,l),
(354,419,ls),
(496,419,o),
(574,358,o),
(574,248,cs),
(574,137,o),
(496,77,o),
(353,77,cs),
(280,77,l),
(280,-1,l)
);
}
);
userData = {
com.schriftgestaltung.Glyphs.category = Letter;
com.schriftgestaltung.Glyphs.script = latin;
com.schriftgestaltung.Glyphs.subCategory = Lowercase;
};
width = 720;
},
{
anchors = (
{
name = bottom;
pos = (349,0);
},
{
name = top;
pos = (349,960);
}
);
associatedMasterId = "A931EBE4-BC38-4F2A-894C-3FB7E511A35E";
layerId = "DACC8DBA-B375-4A2A-8D61-A5D78FB7B2BD";
name = "18 Apr 24 at 10:33";
shapes = (
{
closed = 1;
nodes = (
(575,802,o),
(482,858,o),
(341,858,cs),
(199,858,o),
(96,802,o),
(96,652,cs),
(96,0,l),
(187,0,l),
(187,652,ls),
(187,751,o),
(256,782,o),
(341,782,cs),
(424,782,o),
(483,753,o),
(483,689,cs),
(483,586,o),
(330,577,o),
(330,458,cs),
(330,397,o),
(361,360,o),
(452,301,cs),
(530,251,o),
(558,221,o),
(558,163,cs),
(558,102,o),
(522,63,o),
(438,63,cs),
(379,63,o),
(319,85,o),
(279,108,c),
(279,26,l),
(319,2,o),
(370,-11,o),
(441,-11,cs),
(564,-11,o),
(647,46,o),
(647,169,cs),
(647,260,o),
(597,307,o),
(518,360,cs),
(437,413,o),
(418,429,o),
(418,463,cs),
(418,536,o),
(575,565,o),
(575,694,cs)
);
}
);
userData = {
com.schriftgestaltung.Glyphs.category = Letter;
com.schriftgestaltung.Glyphs.script = latin;
com.schriftgestaltung.Glyphs.subCategory = Lowercase;
};
width = 698;
}
);
unicode = 223;
},
{
glyphname = t;
kernLeft = t;
kernRight = t;
lastChange = "2024-05-08 12:15:40 +0000";
layers = (
{
anchors = (
{
name = bottom;
pos = (283,0);
},
{
name = center;
pos = (236,300);
},
{
name = top;
pos = (210,780);
},
{
name = topright;
pos = (298,960);
}
);
background = {
shapes = (
{
closed = 1;
nodes = (
(287,0,ls),
(196,0,o),
(141,50,o),
(141,146,cs),
(141,528,l),
(36,528,l),
(36,600,l),
(142,600,l),
(142,780,l),
(230,780,l),
(230,600,l),
(380,600,l),
(380,528,l),
(231,528,l),
(231,146,ls),
(231,94,o),
(252,72,o),
(299,72,cs),
(394,72,l),
(394,0,l)
);
}
);
};
layerId = "3CBDEB72-8799-4680-B3B3-51A575E4F961";
name = Bold;
shapes = (
{
closed = 1;
nodes = (
(446,0,l),
(446,144,l),
(302,144,l),
(302,456,l),
(432,456,l),
(432,600,l),
(300,600,l),
(300,780,l),
(120,780,l),
(120,600,l),
(18,600,l),
(18,456,l),
(118,456,l),
(118,144,ls),
(118,46,o),
(171,0,o),
(265,0,cs)
);
}
);
userData = {
com.schriftgestaltung.Glyphs.category = Letter;
com.schriftgestaltung.Glyphs.script = latin;
com.schriftgestaltung.Glyphs.subCategory = Lowercase;
};
width = 470;
},
{
anchors = (
{
name = bottom;
pos = (272,0);
},
{
name = center;
pos = (216,300);
},
{
name = top;
pos = (180,780);
},
{
name = topright;
pos = (224,960);
}
);
background = {
shapes = (
{
closed = 1;
nodes = (
(250,64,o),
(212,100,o),
(212,176,cs),
(212,529,l),
(388,529,l),
(388,600,l),
(212,600,l),
(212,739,l),
(158,739,l),
(121,609,l),
(36,573,l),
(36,529,l),
(121,529,l),
(121,173,ls),
(121,32,o),
(198,-11,o),
(293,-11,cs),
(328,-11,o),
(371,-3,o),
(392,6,c),
(392,77,l),
(372,69,o),
(338,64,o),
(308,64,cs)
);
}
);
};
layerId = "A931EBE4-BC38-4F2A-894C-3FB7E511A35E";
name = Light;
shapes = (
{
closed = 1;
nodes = (
(406,0,l),
(406,74,l),
(227,74,l),
(227,528,l),
(390,528,l),
(390,600,l),
(226,600,l),
(226,780,l),
(134,780,l),
(134,600,l),
(18,600,l),
(18,528,l),
(133,528,l),
(133,86,ls),
(133,29,o),
(166,0,o),
(222,0,cs)
);
}
);
userData = {
com.schriftgestaltung.Glyphs.category = Letter;
com.schriftgestaltung.Glyphs.script = latin;
com.schriftgestaltung.Glyphs.subCategory = Lowercase;
};
width = 430;
}
);
unicode = 116;
},
{
glyphname = u;
kernLeft = u;
kernRight = u;
lastChange = "2024-05-08 12:15:40 +0000";
layers = (
{
anchors = (
{
name = bottom;
pos = (369,0);
},
{
name = ogonek;
pos = (770,0);
},
{
name = top;
pos = (369,600);
},
{
name = topright;
pos = (735,600);
}
);
background = {
shapes = (
{
closed = 1;
nodes = (
(513,600,l),
(513,284,ls),
(513,142,o),
(465,65,o),
(332,65,cs),
(239,65,o),
(194,113,o),
(194,214,cs),
(194,600,l),
(102,600,l),
(102,207,ls),
(102,56,o),
(176,-11,o),
(319,-11,cs),
(401,-11,o),
(475,21,o),
(512,84,c),
(517,84,l),
(530,0,l),
(604,0,l),
(604,600,l)
);
}
);
};
guides = (
{
angle = 90;
pos = (514,66);
}
);
layerId = "3CBDEB72-8799-4680-B3B3-51A575E4F961";
name = "Bold alt";
shapes = (
{
closed = 1;
nodes = (
(433,-11,o),
(495,28,o),
(544,100,c),
(586,100,l),
(586,0,l),
(770,0,l),
(770,180,l),
(680,180,l),
(680,600,l),
(496,600,l),
(496,279,ls),
(496,197,o),
(449,153,o),
(363,153,cs),
(280,153,o),
(240,192,o),
(240,273,cs),
(240,600,l),
(56,600,l),
(56,237,ls),
(56,83,o),
(147,-11,o),
(319,-11,cs)
);
}
);
userData = {
com.schriftgestaltung.Glyphs.category = Letter;
com.schriftgestaltung.Glyphs.script = latin;
com.schriftgestaltung.Glyphs.subCategory = Lowercase;
};
width = 790;
},
{
anchors = (
{
name = bottom;
pos = (359,0);
},
{
name = ogonek;
pos = (684,0);
},
{
name = top;
pos = (359,600);
},
{
name = topright;
pos = (715,600);
}
);
background = {
shapes = (
{
closed = 1;
nodes = (
(503,600,l),
(503,284,ls),
(503,142,o),
(455,65,o),
(322,65,cs),
(229,65,o),
(184,113,o),
(184,214,cs),
(184,600,l),
(92,600,l),
(92,207,ls),
(92,56,o),
(166,-11,o),
(309,-11,cs),
(391,-11,o),
(465,21,o),
(502,84,c),
(507,84,l),
(520,0,l),
(594,0,l),
(594,600,l)
);
}
);
};
guides = (
{
angle = 90;
pos = (504,66);
}
);
layerId = "A931EBE4-BC38-4F2A-894C-3FB7E511A35E";
name = "Light alt";
shapes = (
{
closed = 1;
nodes = (
(422,-11,o),
(497,25,o),
(538,90,c),
(580,90,l),
(580,0,l),
(684,0,l),
(684,100,l),
(634,100,l),
(634,600,l),
(540,600,l),
(540,245,ls),
(540,136,o),
(469,71,o),
(351,71,cs),
(237,71,o),
(176,131,o),
(176,245,cs),
(176,600,l),
(82,600,l),
(82,225,ls),
(82,81,o),
(176,-11,o),
(326,-11,cs)
);
}
);
userData = {
com.schriftgestaltung.Glyphs.category = Letter;
com.schriftgestaltung.Glyphs.script = latin;
com.schriftgestaltung.Glyphs.subCategory = Lowercase;
};
width = 740;
}
);
unicode = 117;
},
{
glyphname = v;
kernLeft = v;
kernRight = v;
lastChange = "2024-05-08 12:15:40 +0000";
layers = (
{
anchors = (
{
name = bottom;
pos = (355,0);
},
{
name = top;
pos = (355,600);
}
);
guides = (
{
angle = -66.7323;
pos = (197,600);
},
{
angle = 66.7323;
pos = (575,300);
}
);
layerId = "3CBDEB72-8799-4680-B3B3-51A575E4F961";
shapes = (
{
closed = 1;
nodes = (
(446,0,l),
(704,600,l),
(513,600,l),
(361,217,l),
(357,217,l),
(201,600,l),
(6,600,l),
(264,0,l)
);
}
);
userData = {
com.schriftgestaltung.Glyphs.category = Letter;
com.schriftgestaltung.Glyphs.script = latin;
com.schriftgestaltung.Glyphs.subCategory = Lowercase;
};
width = 710;
},
{
anchors = (
{
name = bottom;
pos = (314,0);
},
{
name = top;
pos = (314,600);
}
);
guides = (
{
angle = -66.9745;
pos = (103,600);
},
{
angle = 66.9745;
pos = (497,300);
}
);
layerId = "A931EBE4-BC38-4F2A-894C-3FB7E511A35E";
shapes = (
{
closed = 1;
nodes = (
(369,0,l),
(624,600,l),
(530,600,l),
(320,92,l),
(316,92,l),
(103,600,l),
(6,600,l),
(261,0,l)
);
}
);
userData = {
com.schriftgestaltung.Glyphs.category = Letter;
com.schriftgestaltung.Glyphs.script = latin;
com.schriftgestaltung.Glyphs.subCategory = Lowercase;
};
width = 630;
}
);
unicode = 118;
},
{
glyphname = w;
kernLeft = v;
kernRight = v;
lastChange = "2024-05-08 12:15:40 +0000";
layers = (
{
anchors = (
{
name = bottom;
pos = (540,0);
},
{
name = top;
pos = (540,600);
}
);
guides = (
{
angle = 90;
pos = (316,245);
},
{
pos = (318,232);
}
);
layerId = "3CBDEB72-8799-4680-B3B3-51A575E4F961";
shapes = (
{
closed = 1;
nodes = (
(408,0,l),
(538,352,l),
(542,352,l),
(673,0,l),
(867,0,l),
(1062,600,l),
(876,600,l),
(762,232,l),
(757,232,l),
(626,600,l),
(456,600,l),
(324,232,l),
(319,232,l),
(206,600,l),
(18,600,l),
(214,0,l)
);
}
);
userData = {
com.schriftgestaltung.Glyphs.category = Letter;
com.schriftgestaltung.Glyphs.script = latin;
com.schriftgestaltung.Glyphs.subCategory = Lowercase;
};
width = 1080;
},
{
anchors = (
{
name = bottom;
pos = (490,0);
},
{
name = top;
pos = (490,600);
}
);
guides = (
{
angle = 104.7265;
pos = (186,435);
},
{
angle = 252.2613;
pos = (368,427);
},
{
angle = 107.1375;
pos = (575,427);
},
{
angle = 255.2735;
pos = (755,435);
},
{
angle = 72.1598;
pos = (372,174);
},
{
angle = -73.1052;
pos = (566,175);
}
);
layerId = "A931EBE4-BC38-4F2A-894C-3FB7E511A35E";
shapes = (
{
closed = 1;
nodes = (
(314,0,l),
(488,494,l),
(492,494,l),
(667,0,l),
(775,0,l),
(962,600,l),
(866,600,l),
(721,110,l),
(716,110,l),
(542,600,l),
(440,600,l),
(267,110,l),
(262,110,l),
(116,600,l),
(18,600,l),
(206,0,l)
);
}
);
userData = {
com.schriftgestaltung.Glyphs.category = Letter;
com.schriftgestaltung.Glyphs.script = latin;
com.schriftgestaltung.Glyphs.subCategory = Lowercase;
};
width = 980;
}
);
unicode = 119;
},
{
glyphname = x;
kernLeft = x;
kernRight = k;
lastChange = "2024-05-09 09:00:34 +0000";
layers = (
{
anchors = (
{
name = bottom;
pos = (355,0);
},
{
name = top;
pos = (355,600);
}
);
guides = (
{
angle = 127.0784;
pos = (490,0);
}
);
layerId = "3CBDEB72-8799-4680-B3B3-51A575E4F961";
shapes = (
{
closed = 1;
nodes = (
(222,0,l),
(355,179,l),
(487,0,l),
(692,0,l),
(460,307,l),
(680,600,l),
(476,600,l),
(355,438,l),
(236,600,l),
(30,600,l),
(251,307,l),
(18,0,l)
);
}
);
userData = {
com.schriftgestaltung.Glyphs.category = Letter;
com.schriftgestaltung.Glyphs.script = latin;
com.schriftgestaltung.Glyphs.subCategory = Lowercase;
};
width = 710;
},
{
anchors = (
{
name = bottom;
pos = (315,0);
},
{
name = top;
pos = (315,600);
}
);
guides = (
{
angle = 127.9008;
pos = (136,600);
},
{
angle = 52.0992;
pos = (497,600);
}
);
layerId = "A931EBE4-BC38-4F2A-894C-3FB7E511A35E";
shapes = (
{
closed = 1;
nodes = (
(122,0,l),
(313,246,l),
(504,0,l),
(612,0,l),
(373,308,l),
(600,600,l),
(498,600,l),
(316,368,l),
(134,600,l),
(30,600,l),
(257,308,l),
(18,0,l)
);
}
);
userData = {
com.schriftgestaltung.Glyphs.category = Letter;
com.schriftgestaltung.Glyphs.script = latin;
com.schriftgestaltung.Glyphs.subCategory = Lowercase;
};
width = 630;
}
);
unicode = 120;
},
{
glyphname = y;
kernLeft = v;
kernRight = v;
lastChange = "2024-05-08 12:15:40 +0000";
layers = (
{
anchors = (
{
name = bottom;
pos = (330,0);
},
{
name = top;
pos = (330,600);
}
);
associatedMasterId = "3CBDEB72-8799-4680-B3B3-51A575E4F961";
guides = (
{
angle = 69.694;
pos = (654,600);
},
{
angle = 251.45;
pos = (471,600);
}
);
layerId = "ADB5955C-3B51-4597-B8E2-4A1A6E6F83BD";
name = "18 Apr 24 at 15:18";
shapes = (
{
closed = 1;
nodes = (
(288,-240,ls),
(381,-240,o),
(432,-194,o),
(432,-96,cs),
(432,0,l),
(654,600,l),
(471,600,l),
(347,217,l),
(343,217,l),
(193,600,l),
(6,600,l),
(252,0,l),
(252,-96,l),
(84,-96,l),
(84,-240,l)
);
}
);
userData = {
com.schriftgestaltung.Glyphs.category = Letter;
com.schriftgestaltung.Glyphs.script = latin;
com.schriftgestaltung.Glyphs.subCategory = Lowercase;
};
width = 660;
},
{
anchors = (
{
name = bottom;
pos = (355,0);
},
{
name = top;
pos = (355,600);
}
);
background = {
shapes = (
{
closed = 1;
nodes = (
(446,0,l),
(704,600,l),
(513,600,l),
(361,217,l),
(357,217,l),
(201,600,l),
(6,600,l),
(264,0,l)
);
}
);
};
guides = (
{
angle = 66.7323;
pos = (703,600);
}
);
layerId = "3CBDEB72-8799-4680-B3B3-51A575E4F961";
name = Bold;
shapes = (
{
closed = 1;
nodes = (
(226,-240,ls),
(323,-240,o),
(365,-193,o),
(401,-107,cs),
(446,0,l),
(704,600,l),
(514,600,l),
(361,217,l),
(357,217,l),
(201,600,l),
(6,600,l),
(261,7,l),
(220,-92,l),
(92,-92,l),
(92,-240,l)
);
}
);
userData = {
com.schriftgestaltung.Glyphs.category = Letter;
com.schriftgestaltung.Glyphs.script = latin;
com.schriftgestaltung.Glyphs.subCategory = Lowercase;
};
width = 710;
},
{
anchors = (
{
name = bottom;
pos = (315,0);
},
{
name = top;
pos = (315,600);
}
);
background = {
shapes = (
{
closed = 1;
nodes = (
(369,0,l),
(624,600,l),
(530,600,l),
(320,92,l),
(316,92,l),
(103,600,l),
(6,600,l),
(261,0,l)
);
}
);
};
guides = (
{
angle = 66.9745;
pos = (624,600);
}
);
layerId = "A931EBE4-BC38-4F2A-894C-3FB7E511A35E";
shapes = (
{
closed = 1;
nodes = (
(213,-240,ls),
(271,-240,o),
(281,-205,o),
(305,-150,cs),
(369,0,l),
(624,600,l),
(534,600,l),
(327,110,l),
(322,110,l),
(104,600,l),
(7,600,l),
(280,-4,l),
(212,-166,l),
(63,-166,l),
(63,-240,l)
);
}
);
userData = {
com.schriftgestaltung.Glyphs.category = Letter;
com.schriftgestaltung.Glyphs.script = latin;
com.schriftgestaltung.Glyphs.subCategory = Lowercase;
};
width = 630;
},
{
anchors = (
{
name = bottom;
pos = (290,0);
},
{
name = top;
pos = (290,600);
}
);
associatedMasterId = "A931EBE4-BC38-4F2A-894C-3FB7E511A35E";
guides = (
{
angle = 69.281;
pos = (574,600);
},
{
angle = 249.908;
pos = (484,600);
}
);
layerId = "873A2F55-D8E2-4831-B4BA-91DDBBD191DD";
name = "18 Apr 24 at 15:22";
shapes = (
{
closed = 1;
nodes = (
(257,-240,ls),
(313,-240,o),
(347,-210,o),
(347,-150,cs),
(347,0,l),
(574,600,l),
(484,600,l),
(306,110,l),
(302,110,l),
(99,600,l),
(6,600,l),
(257,0,l),
(257,-168,l),
(84,-168,l),
(84,-240,l)
);
}
);
userData = {
com.schriftgestaltung.Glyphs.category = Letter;
com.schriftgestaltung.Glyphs.script = latin;
com.schriftgestaltung.Glyphs.subCategory = Lowercase;
};
width = 580;
}
);
unicode = 121;
},
{
glyphname = z;
kernLeft = z;
kernRight = z;
lastChange = "2024-05-08 12:15:40 +0000";
layers = (
{
anchors = (
{
name = bottom;
pos = (291,0);
},
{
name = center;
pos = (291,300);
},
{
name = top;
pos = (291,600);
}
);
guides = (
{
angle = 233.2099;
pos = (178,292);
},
{
angle = 53.2099;
pos = (382,308);
}
);
layerId = "3CBDEB72-8799-4680-B3B3-51A575E4F961";
shapes = (
{
closed = 1;
nodes = (
(564,0,l),
(564,146,l),
(262,146,l),
(558,492,l),
(558,600,l),
(44,600,l),
(44,454,l),
(322,454,l),
(26,108,l),
(26,0,l)
);
}
);
userData = {
com.schriftgestaltung.Glyphs.category = Letter;
com.schriftgestaltung.Glyphs.script = latin;
com.schriftgestaltung.Glyphs.subCategory = Lowercase;
};
width = 590;
},
{
anchors = (
{
name = bottom;
pos = (291,0);
},
{
name = center;
pos = (291,300);
},
{
name = top;
pos = (291,600);
}
);
guides = (
{
angle = 233.2958;
pos = (503,533);
}
);
layerId = "A931EBE4-BC38-4F2A-894C-3FB7E511A35E";
shapes = (
{
closed = 1;
nodes = (
(536,0,l),
(536,76,l),
(152,76,l),
(530,532,l),
(530,600,l),
(62,600,l),
(62,524,l),
(422,524,l),
(44,68,l),
(44,0,l)
);
}
);
userData = {
com.schriftgestaltung.Glyphs.category = Letter;
com.schriftgestaltung.Glyphs.script = latin;
com.schriftgestaltung.Glyphs.subCategory = Lowercase;
};
width = 580;
}
);
unicode = 122;
},
{
glyphname = f_f;
kernLeft = f;
kernRight = f;
lastChange = "2024-09-25 08:47:02 +0000";
layers = (
{
anchors = (
{
name = caret_1;
pos = (410,0);
}
);
layerId = "A931EBE4-BC38-4F2A-894C-3FB7E511A35E";
shapes = (
{
closed = 1;
nodes = (
(239,0,l),
(239,528,l),
(555,528,l),
(555,0,l),
(649,0,l),
(649,528,l),
(802,528,l),
(802,600,l),
(648,600,l),
(648,768,l),
(814,768,l),
(814,840,l),
(650,840,ls),
(592,840,o),
(556,810,o),
(556,750,cs),
(556,600,l),
(238,600,l),
(238,768,l),
(404,768,l),
(404,840,l),
(240,840,ls),
(182,840,o),
(146,810,o),
(146,750,cs),
(146,600,l),
(18,600,l),
(18,528,l),
(145,528,l),
(145,0,l)
);
}
);
width = 820;
},
{
anchors = (
{
name = caret_1;
pos = (450,0);
}
);
layerId = "3CBDEB72-8799-4680-B3B3-51A575E4F961";
shapes = (
{
closed = 1;
nodes = (
(304,0,l),
(304,456,l),
(570,456,l),
(570,0,l),
(754,0,l),
(754,456,l),
(882,456,l),
(882,600,l),
(752,600,l),
(752,696,l),
(894,696,l),
(894,840,l),
(720,840,ls),
(625,840,o),
(572,794,o),
(572,696,cs),
(572,600,l),
(302,600,l),
(302,696,l),
(444,696,l),
(444,840,l),
(270,840,ls),
(175,840,o),
(122,794,o),
(122,696,cs),
(122,600,l),
(18,600,l),
(18,456,l),
(120,456,l),
(120,0,l)
);
}
);
width = 900;
}
);
metricLeft = f;
metricRight = f;
},
{
glyphname = ordfeminine;
lastChange = "2024-05-08 12:15:40 +0000";
layers = (
{
background = {
shapes = (
{
closed = 1;
nodes = (
(328,-11,o),
(382,19,o),
(415,77,c),
(419,77,l),
(419,0,l),
(585,0,l),
(585,375,ls),
(585,525,o),
(492,612,o),
(330,612,cs),
(181,612,o),
(88,539,o),
(65,406,c),
(243,406,l),
(254,445,o),
(287,468,o),
(331,468,cs),
(382,468,o),
(413,437,o),
(413,386,cs),
(413,241,ls),
(413,175,o),
(361,127,o),
(291,127,cs),
(245,127,o),
(219,148,o),
(219,184,cs),
(219,219,o),
(241,239,o),
(283,244,cs),
(458,265,l),
(458,385,l),
(239,360,ls),
(116,346,o),
(47,280,o),
(47,175,cs),
(47,62,o),
(127,-11,o),
(252,-11,cs)
);
}
);
};
layerId = "3CBDEB72-8799-4680-B3B3-51A575E4F961";
name = "Bold alt";
shapes = (
{
closed = 1;
nodes = (
(207,384,o),
(244,407,o),
(267,448,c),
(297,448,l),
(297,390,l),
(410,390,l),
(410,498,l),
(358,498,l),
(358,598,ls),
(358,683,o),
(299,732,o),
(197,732,cs),
(108,732,o),
(42,694,o),
(25,614,c),
(141,614,l),
(148,636,o),
(170,648,o),
(197,648,cs),
(227,648,o),
(250,630,o),
(250,607,cs),
(250,596,l),
(168,596,ls),
(74,596,o),
(21,558,o),
(21,491,cs),
(21,426,o),
(71,384,o),
(148,384,cs)
);
},
{
closed = 1;
nodes = (
(147,468,o),
(129,479,o),
(129,500,cs),
(129,517,o),
(145,529,o),
(172,529,cs),
(250,529,l),
(250,525,ls),
(250,492,o),
(216,468,o),
(175,468,cs)
);
}
);
userData = {
com.schriftgestaltung.Glyphs.category = Letter;
com.schriftgestaltung.Glyphs.script = latin;
com.schriftgestaltung.Glyphs.subCategory = Lowercase;
};
width = 430;
},
{
background = {
shapes = (
{
closed = 1;
nodes = (
(195,-12,o),
(105,34,o),
(53,115,o),
(53,166,qs),
(53,258,o),
(181,344,o),
(271,352,qs),
(437,365,l),
(437,384,ls),
(437,446,o),
(370,516,o),
(312,516,qs),
(303,516,ls),
(253,516,o),
(184,469,o),
(179,426,q),
(65,426,l),
(70,509,o),
(205,612,o),
(307,612,qs),
(384,612,o),
(495,551,o),
(551,446,o),
(551,384,qs),
(551,132,ls),
(551,42,o),
(557,0,q),
(449,0,l),
(443,30,o),
(443,96,q),
(424,52,o),
(319,-12,o),
(251,-12,qs)
);
},
{
closed = 1;
nodes = (
(274,84,ls),
(311,84,o),
(387,120,o),
(437,181,o),
(437,216,qs),
(437,277,l),
(287,265,ls),
(233,260,o),
(167,211,o),
(167,170,qs),
(167,133,o),
(222,84,o),
(264,84,qs)
);
}
);
};
layerId = "A931EBE4-BC38-4F2A-894C-3FB7E511A35E";
name = "Light alt";
shapes = (
{
closed = 1;
nodes = (
(214,384,o),
(256,411,o),
(280,452,c),
(310,452,l),
(310,390,l),
(382,390,l),
(382,462,l),
(346,462,l),
(346,604,ls),
(346,685,o),
(289,732,o),
(198,732,cs),
(116,732,o),
(55,694,o),
(42,625,c),
(117,625,l),
(126,659,o),
(158,674,o),
(197,674,cs),
(247,674,o),
(277,648,o),
(277,604,cs),
(277,588,l),
(171,588,ls),
(85,588,o),
(36,551,o),
(36,487,cs),
(36,425,o),
(87,384,o),
(162,384,cs)
);
},
{
closed = 1;
nodes = (
(131,442,o),
(103,461,o),
(103,490,cs),
(103,519,o),
(127,536,o),
(175,536,cs),
(277,536,l),
(277,526,ls),
(277,478,o),
(234,442,o),
(176,442,cs)
);
}
);
userData = {
com.schriftgestaltung.Glyphs.category = Letter;
com.schriftgestaltung.Glyphs.script = latin;
com.schriftgestaltung.Glyphs.subCategory = Lowercase;
};
width = 410;
}
);
unicode = 170;
},
{
glyphname = ordmasculine;
lastChange = "2024-05-08 12:15:40 +0000";
layers = (
{
layerId = "3CBDEB72-8799-4680-B3B3-51A575E4F961";
shapes = (
{
closed = 1;
nodes = (
(334,378,o),
(414,446,o),
(414,555,cs),
(414,664,o),
(336,732,o),
(221,732,cs),
(107,732,o),
(26,664,o),
(26,555,cs),
(26,448,o),
(106,378,o),
(221,378,cs)
);
},
{
closed = 1;
nodes = (
(178,478,o),
(144,508,o),
(144,555,cs),
(144,602,o),
(178,632,o),
(221,632,cs),
(266,632,o),
(297,602,o),
(297,555,cs),
(297,509,o),
(266,478,o),
(221,478,cs)
);
}
);
userData = {
com.schriftgestaltung.Glyphs.category = Letter;
com.schriftgestaltung.Glyphs.script = latin;
com.schriftgestaltung.Glyphs.subCategory = Lowercase;
};
width = 440;
},
{
background = {
shapes = (
{
closed = 1;
nodes = (
(183,-12,o),
(63,122,o),
(63,300,cs),
(63,475,o),
(176,612,o),
(351,612,cs),
(518,612,o),
(639,478,o),
(639,300,cs),
(639,121,o),
(518,-12,o),
(351,-12,cs)
);
},
{
closed = 1;
nodes = (
(356,84,ls),
(455,84,o),
(525,166,o),
(525,300,cs),
(525,434,o),
(455,516,o),
(356,516,cs),
(346,516,ls),
(246,516,o),
(177,434,o),
(177,300,cs),
(177,166,o),
(246,84,o),
(346,84,cs)
);
}
);
};
layerId = "A931EBE4-BC38-4F2A-894C-3FB7E511A35E";
shapes = (
{
closed = 1;
nodes = (
(312,378,o),
(388,446,o),
(388,555,cs),
(388,664,o),
(314,732,o),
(211,732,cs),
(108,732,o),
(32,662,o),
(32,555,cs),
(32,448,o),
(108,378,o),
(211,378,cs)
);
},
{
closed = 1;
nodes = (
(149,442,o),
(106,487,o),
(106,555,cs),
(106,625,o),
(149,668,o),
(211,668,cs),
(272,668,o),
(315,625,o),
(315,555,cs),
(315,487,o),
(272,442,o),
(211,442,cs)
);
}
);
userData = {
com.schriftgestaltung.Glyphs.category = Letter;
com.schriftgestaltung.Glyphs.script = latin;
com.schriftgestaltung.Glyphs.subCategory = Lowercase;
};
width = 420;
}
);
unicode = 186;
},
{
glyphname = mu;
lastChange = "2024-05-08 12:15:40 +0000";
layers = (
{
layerId = "3CBDEB72-8799-4680-B3B3-51A575E4F961";
shapes = (
{
closed = 1;
nodes = (
(240,-240,l),
(240,17,l),
(244,17,l),
(264,7,o),
(297,0,o),
(335,0,cs),
(398,0,o),
(462,27,o),
(497,90,c),
(501,90,l),
(501,0,l),
(680,0,l),
(680,600,l),
(496,600,l),
(496,279,ls),
(496,202,o),
(444,153,o),
(364,153,cs),
(289,153,o),
(244,197,o),
(244,273,cs),
(244,600,l),
(60,600,l),
(60,-240,l)
);
}
);
width = 740;
},
{
layerId = "A931EBE4-BC38-4F2A-894C-3FB7E511A35E";
shapes = (
{
closed = 1;
nodes = (
(178,-240,l),
(178,42,l),
(182,42,l),
(224,7,o),
(272,-11,o),
(333,-11,cs),
(424,-11,o),
(499,32,o),
(535,107,c),
(539,107,l),
(539,0,l),
(634,0,l),
(634,600,l),
(540,600,l),
(540,245,ls),
(540,141,o),
(464,71,o),
(354,71,cs),
(245,71,o),
(180,137,o),
(180,245,cs),
(180,600,l),
(86,600,l),
(86,-240,l)
);
}
);
width = 720;
}
);
unicode = 956;
},
{
glyphname = zero;
lastChange = "2024-05-08 12:15:40 +0000";
layers = (
{
layerId = "3CBDEB72-8799-4680-B3B3-51A575E4F961";
shapes = (
{
closed = 1;
nodes = (
(550,-12,o),
(658,133,o),
(658,405,cs),
(658,677,o),
(550,822,o),
(345,822,cs),
(140,822,o),
(32,677,o),
(32,405,cs),
(32,133,o),
(140,-12,o),
(345,-12,cs)
);
},
{
closed = 1;
nodes = (
(258,142,o),
(216,220,o),
(216,405,cs),
(216,590,o),
(258,668,o),
(345,668,cs),
(433,668,o),
(474,588,o),
(474,405,cs),
(474,222,o),
(433,142,o),
(345,142,cs)
);
}
);
userData = {
com.schriftgestaltung.Glyphs.category = Number;
com.schriftgestaltung.Glyphs.subCategory = "Decimal Digit";
};
width = 690;
},
{
layerId = "A931EBE4-BC38-4F2A-894C-3FB7E511A35E";
shapes = (
{
closed = 1;
nodes = (
(536,-12,o),
(636,133,o),
(636,405,cs),
(636,677,o),
(536,822,o),
(345,822,cs),
(154,822,o),
(54,677,o),
(54,405,cs),
(54,133,o),
(154,-12,o),
(345,-12,cs)
);
},
{
closed = 1;
nodes = (
(212,70,o),
(144,181,o),
(144,405,cs),
(144,629,o),
(212,740,o),
(345,740,cs),
(479,740,o),
(546,627,o),
(546,405,cs),
(546,183,o),
(479,70,o),
(345,70,cs)
);
}
);
userData = {
com.schriftgestaltung.Glyphs.category = Number;
com.schriftgestaltung.Glyphs.subCategory = "Decimal Digit";
};
width = 690;
}
);
unicode = 48;
},
{
glyphname = one;
lastChange = "2024-05-08 12:15:40 +0000";
layers = (
{
guides = (
{
angle = 270;
pos = (274,366);
},
{
angle = 90;
pos = (454,471);
}
);
layerId = "3CBDEB72-8799-4680-B3B3-51A575E4F961";
shapes = (
{
closed = 1;
nodes = (
(644,0,l),
(644,144,l),
(473,144,l),
(473,810,l),
(315,810,l),
(69,644,l),
(69,460,l),
(73,460,l),
(289,607,l),
(289,144,l),
(87,144,l),
(87,0,l)
);
}
);
userData = {
com.schriftgestaltung.Glyphs.category = Number;
com.schriftgestaltung.Glyphs.subCategory = "Decimal Digit";
};
width = 690;
},
{
background = {
shapes = (
{
closed = 1;
nodes = (
(419,801,l),
(343,801,l),
(126,634,l),
(174,572,l),
(265,645,ls),
(294,669,o),
(311,682,o),
(334,705,c),
(331,664,o),
(330,631,o),
(330,567,cs),
(330,0,l),
(419,0,l)
);
}
);
};
layerId = "A931EBE4-BC38-4F2A-894C-3FB7E511A35E";
shapes = (
{
closed = 1;
nodes = (
(614,0,l),
(614,80,l),
(428,80,l),
(428,810,l),
(348,810,l),
(99,641,l),
(99,546,l),
(103,546,l),
(334,705,l),
(334,80,l),
(117,80,l),
(117,0,l)
);
}
);
userData = {
com.schriftgestaltung.Glyphs.category = Number;
com.schriftgestaltung.Glyphs.subCategory = "Decimal Digit";
};
width = 690;
}
);
unicode = 49;
},
{
glyphname = two;
lastChange = "2024-05-08 12:15:40 +0000";
layers = (
{
background = {
shapes = (
{
ref = zero;
}
);
};
guides = (
{
angle = 223.9488;
pos = (495,333);
}
);
layerId = "3CBDEB72-8799-4680-B3B3-51A575E4F961";
shapes = (
{
closed = 1;
nodes = (
(646,0,l),
(646,156,l),
(307,156,l),
(307,160,l),
(492,328,ls),
(595,422,o),
(639,491,o),
(639,578,cs),
(639,727,o),
(526,822,o),
(348,822,cs),
(164,822,o),
(49,720,o),
(38,547,c),
(213,547,l),
(223,629,o),
(269,672,o),
(346,672,cs),
(417,672,o),
(459,636,o),
(459,575,cs),
(459,532,o),
(440,501,o),
(371,436,cs),
(38,120,l),
(38,0,l)
);
}
);
userData = {
com.schriftgestaltung.Glyphs.category = Number;
com.schriftgestaltung.Glyphs.subCategory = "Decimal Digit";
};
width = 690;
},
{
background = {
shapes = (
{
pos = (2,0);
ref = zero;
}
);
};
guides = (
{
angle = 180;
pos = (118,570);
},
{
angle = 224.4838;
pos = (483,368);
}
);
layerId = "A931EBE4-BC38-4F2A-894C-3FB7E511A35E";
shapes = (
{
closed = 1;
nodes = (
(628,0,l),
(628,82,l),
(190,82,l),
(188,86,l),
(481,368,ls),
(572,456,o),
(611,525,o),
(611,599,cs),
(611,733,o),
(506,822,o),
(347,822,cs),
(179,822,o),
(72,728,o),
(62,570,c),
(154,570,l),
(167,683,o),
(232,740,o),
(346,740,cs),
(453,740,o),
(516,686,o),
(516,595,cs),
(516,536,o),
(488,490,o),
(398,402,cs),
(62,72,l),
(62,0,l)
);
}
);
userData = {
com.schriftgestaltung.Glyphs.category = Number;
com.schriftgestaltung.Glyphs.subCategory = "Decimal Digit";
};
width = 690;
},
{
associatedMasterId = "A931EBE4-BC38-4F2A-894C-3FB7E511A35E";
background = {
shapes = (
{
closed = 1;
nodes = (
(590,83,l),
(181,83,l),
(181,87,l),
(355,261,ls),
(477,380,o),
(557,473,o),
(557,600,cs),
(557,731,o),
(465,812,o),
(317,812,cs),
(220,812,o),
(139,773,o),
(76,720,c),
(124,658,l),
(186,706,o),
(241,734,o),
(317,734,cs),
(405,734,o),
(463,685,o),
(463,594,cs),
(463,484,o),
(398,414,o),
(279,294,cs),
(65,76,l),
(65,0,l),
(590,0,l)
);
}
);
};
layerId = "70175BEE-47B0-4960-A348-3D793068720E";
name = "17 Apr 24 at 09:31";
shapes = (
{
closed = 1;
nodes = (
(588,0,l),
(588,82,l),
(188,82,l),
(467,373,ls),
(548,457,o),
(582,524,o),
(582,599,cs),
(582,731,o),
(483,822,o),
(341,822,cs),
(191,822,o),
(87,722,o),
(78,570,c),
(166,570,l),
(177,677,o),
(242,740,o),
(340,740,cs),
(434,740,o),
(492,683,o),
(492,592,cs),
(492,536,o),
(469,495,o),
(387,407,cs),
(72,72,l),
(72,0,l)
);
}
);
userData = {
com.schriftgestaltung.Glyphs.category = Number;
com.schriftgestaltung.Glyphs.subCategory = "Decimal Digit";
};
width = 660;
}
);
unicode = 50;
},
{
glyphname = three;
lastChange = "2024-05-08 12:15:40 +0000";
layers = (
{
background = {
shapes = (
{
closed = 1;
nodes = (
(499,-12,o),
(628,82,o),
(628,235,cs),
(628,329,o),
(569,396,o),
(500,428,c),
(500,432,l),
(559,462,o),
(604,522,o),
(604,594,cs),
(604,731,o),
(491,822,o),
(334,822,cs),
(177,822,o),
(64,731,o),
(64,594,cs),
(64,522,o),
(109,457,o),
(168,426,c),
(168,422,l),
(99,391,o),
(40,329,o),
(40,235,cs),
(40,82,o),
(169,-12,o),
(334,-12,cs)
);
},
{
closed = 1;
nodes = (
(270,138,o),
(214,180,o),
(214,245,cs),
(214,310,o),
(270,352,o),
(334,352,cs),
(398,352,o),
(454,310,o),
(454,245,cs),
(454,180,o),
(398,138,o),
(334,138,cs)
);
},
{
closed = 1;
nodes = (
(278,498,o),
(232,532,o),
(232,587,cs),
(232,642,o),
(278,676,o),
(334,676,cs),
(390,676,o),
(436,642,o),
(436,587,cs),
(436,532,o),
(390,498,o),
(334,498,cs)
);
}
);
};
layerId = "3CBDEB72-8799-4680-B3B3-51A575E4F961";
shapes = (
{
closed = 1;
nodes = (
(539,-12,o),
(664,89,o),
(664,242,cs),
(664,330,o),
(610,401,o),
(518,431,c),
(518,437,l),
(593,473,o),
(638,536,o),
(638,603,cs),
(638,735,o),
(526,822,o),
(352,822,cs),
(168,822,o),
(47,728,o),
(40,580,c),
(217,580,l),
(227,645,o),
(269,676,o),
(347,676,cs),
(416,676,o),
(460,640,o),
(460,581,cs),
(460,526,o),
(421,493,o),
(357,493,cs),
(229,493,l),
(229,349,l),
(356,349,ls),
(432,349,o),
(480,310,o),
(480,248,cs),
(480,178,o),
(431,138,o),
(346,138,cs),
(265,138,o),
(220,168,o),
(211,228,c),
(26,228,l),
(40,73,o),
(153,-12,o),
(348,-12,cs)
);
}
);
userData = {
com.schriftgestaltung.Glyphs.category = Number;
com.schriftgestaltung.Glyphs.subCategory = "Decimal Digit";
};
width = 690;
},
{
background = {
shapes = (
{
pos = (2,0);
ref = zero;
},
{
closed = 1;
nodes = (
(540,729,o),
(458,812,o),
(295,812,cs),
(188,812,o),
(104,774,o),
(45,729,c),
(91,666,l),
(152,707,o),
(210,735,o),
(296,735,cs),
(389,735,o),
(447,689,o),
(447,608,cs),
(447,513,o),
(373,452,o),
(243,452,cs),
(162,452,l),
(162,375,l),
(242,375,ls),
(384,375,o),
(469,332,o),
(469,228,cs),
(469,128,o),
(408,66,o),
(262,66,cs),
(189,66,o),
(107,85,o),
(40,118,c),
(40,33,l),
(106,1,o),
(176,-11,o),
(261,-11,cs),
(470,-11,o),
(565,87,o),
(565,227,cs),
(565,333,o),
(501,401,o),
(374,417,c),
(374,422,l),
(474,441,o),
(540,507,o),
(540,614,cs)
);
}
);
};
guides = (
{
angle = 95.3051;
pos = (153,208);
},
{
pos = (421,461);
}
);
layerId = "A931EBE4-BC38-4F2A-894C-3FB7E511A35E";
shapes = (
{
closed = 1;
nodes = (
(510,-12,o),
(622,78,o),
(622,221,cs),
(622,326,o),
(567,397,o),
(463,423,c),
(463,427,l),
(555,460,o),
(604,526,o),
(604,614,cs),
(604,738,o),
(499,822,o),
(344,822,cs),
(186,822,o),
(78,736,o),
(64,600,c),
(153,600,l),
(171,690,o),
(237,740,o),
(338,740,cs),
(444,740,o),
(512,684,o),
(512,599,cs),
(512,516,o),
(448,459,o),
(353,459,cs),
(217,459,l),
(217,383,l),
(345,383,ls),
(456,383,o),
(530,321,o),
(530,227,cs),
(530,131,o),
(453,70,o),
(331,70,cs),
(218,70,o),
(149,121,o),
(141,210,c),
(50,210,l),
(63,68,o),
(164,-12,o),
(333,-12,cs)
);
}
);
userData = {
com.schriftgestaltung.Glyphs.category = Number;
com.schriftgestaltung.Glyphs.subCategory = "Decimal Digit";
};
width = 690;
},
{
associatedMasterId = "A931EBE4-BC38-4F2A-894C-3FB7E511A35E";
background = {
shapes = (
{
closed = 1;
nodes = (
(538,729,o),
(456,812,o),
(293,812,cs),
(186,812,o),
(102,774,o),
(43,729,c),
(89,666,l),
(150,707,o),
(208,735,o),
(294,735,cs),
(387,735,o),
(445,689,o),
(445,608,cs),
(445,513,o),
(371,452,o),
(241,452,cs),
(160,452,l),
(160,375,l),
(240,375,ls),
(382,375,o),
(467,332,o),
(467,228,cs),
(467,128,o),
(406,66,o),
(260,66,cs),
(187,66,o),
(105,85,o),
(38,118,c),
(38,33,l),
(104,1,o),
(174,-11,o),
(259,-11,cs),
(468,-11,o),
(563,87,o),
(563,227,cs),
(563,333,o),
(499,401,o),
(372,417,c),
(372,422,l),
(472,441,o),
(538,507,o),
(538,614,cs)
);
}
);
};
layerId = "9A59463C-9420-42A8-AEB6-8FC6F8E8666D";
name = "17 Apr 24 at 09:38";
shapes = (
{
closed = 1;
nodes = (
(468,-12,o),
(594,64,o),
(594,215,cs),
(594,316,o),
(529,381,o),
(453,405,c),
(529,436,o),
(589,509,o),
(589,600,cs),
(589,741,o),
(475,822,o),
(326,822,cs),
(183,822,o),
(77,728,o),
(71,600,c),
(160,600,l),
(168,679,o),
(231,740,o),
(320,740,cs),
(332,740,ls),
(427,740,o),
(500,683,o),
(500,589,cs),
(500,510,o),
(440,446,o),
(342,446,cs),
(282,446,l),
(282,363,l),
(335,363,ls),
(430,363,o),
(506,310,o),
(506,220,cs),
(506,126,o),
(428,70,o),
(330,70,cs),
(318,70,ls),
(224,70,o),
(161,121,o),
(145,208,c),
(57,208,l),
(70,68,o),
(167,-12,o),
(324,-12,cs)
);
}
);
userData = {
com.schriftgestaltung.Glyphs.category = Number;
com.schriftgestaltung.Glyphs.subCategory = "Decimal Digit";
};
width = 660;
}
);
unicode = 51;
},
{
glyphname = four;
lastChange = "2024-05-08 12:15:40 +0000";
layers = (
{
guides = (
{
angle = 270;
pos = (552,100);
},
{
angle = 270;
pos = (376,100);
},
{
angle = 231.5423;
pos = (208,310);
}
);
layerId = "3CBDEB72-8799-4680-B3B3-51A575E4F961";
shapes = (
{
closed = 1;
nodes = (
(586,0,l),
(586,170,l),
(682,170,l),
(682,310,l),
(586,310,l),
(586,810,l),
(421,810,l),
(8,290,l),
(8,170,l),
(408,170,l),
(408,0,l)
);
},
{
closed = 1;
nodes = (
(410,564,l),
(414,564,l),
(414,310,l),
(208,310,l)
);
}
);
userData = {
com.schriftgestaltung.Glyphs.category = Number;
com.schriftgestaltung.Glyphs.subCategory = "Decimal Digit";
};
width = 690;
},
{
guides = (
{
pos = (624,269);
},
{
angle = 231.4049;
pos = (114,280);
}
);
layerId = "A931EBE4-BC38-4F2A-894C-3FB7E511A35E";
shapes = (
{
closed = 1;
nodes = (
(542,0,l),
(542,200,l),
(670,200,l),
(670,280,l),
(542,280,l),
(542,810,l),
(451,810,l),
(20,270,l),
(20,200,l),
(450,200,l),
(450,0,l)
);
},
{
closed = 1;
nodes = (
(450,694,l),
(454,694,l),
(454,280,l),
(120,280,l)
);
}
);
userData = {
com.schriftgestaltung.Glyphs.category = Number;
com.schriftgestaltung.Glyphs.subCategory = "Decimal Digit";
};
width = 690;
}
);
unicode = 52;
},
{
glyphname = five;
lastChange = "2024-05-08 12:15:40 +0000";
layers = (
{
guides = (
{
angle = 262.86;
pos = (242,498);
}
);
layerId = "3CBDEB72-8799-4680-B3B3-51A575E4F961";
shapes = (
{
closed = 1;
nodes = (
(551,-12,o),
(664,97,o),
(664,276,cs),
(664,447,o),
(560,542,o),
(396,542,cs),
(336,542,o),
(288,528,o),
(250,498,c),
(244,498,l),
(263,652,l),
(622,652,l),
(622,810,l),
(117,810,l),
(58,339,l),
(217,339,l),
(244,378,o),
(290,398,o),
(346,398,cs),
(432,398,o),
(486,357,o),
(486,270,cs),
(486,187,o),
(439,138,o),
(350,138,cs),
(270,138,o),
(219,168,o),
(211,228,c),
(26,228,l),
(39,74,o),
(156,-12,o),
(346,-12,cs)
);
}
);
userData = {
com.schriftgestaltung.Glyphs.category = Number;
com.schriftgestaltung.Glyphs.subCategory = "Decimal Digit";
};
width = 690;
},
{
background = {
shapes = (
{
pos = (1,0);
ref = zero;
},
{
closed = 1;
nodes = (
(254,490,o),
(209,481,o),
(181,476,c),
(201,717,l),
(522,717,l),
(522,801,l),
(124,801,l),
(93,425,l),
(139,395,l),
(174,404,o),
(235,412,o),
(280,412,cs),
(421,412,o),
(484,352,o),
(484,245,cs),
(484,125,o),
(402,67,o),
(281,67,cs),
(209,67,o),
(126,87,o),
(73,119,c),
(73,33,l),
(122,4,o),
(196,-11,o),
(280,-11,cs),
(466,-11,o),
(578,89,o),
(578,254,cs),
(578,404,o),
(472,490,o),
(309,490,cs)
);
},
{
closed = 1;
nodes = (
(464,-12,o),
(583,70,o),
(583,226,cs),
(583,332,o),
(518,401,o),
(430,423,c),
(430,427,l),
(508,455,o),
(565,523,o),
(565,608,cs),
(565,742,o),
(459,822,o),
(330,822,cs),
(186,822,o),
(86,728,o),
(75,600,c),
(161,600,l),
(175,679,o),
(230,740,o),
(327,740,cs),
(409,740,o),
(477,684,o),
(477,597,cs),
(477,524,o),
(426,459,o),
(328,459,cs),
(245,459,l),
(245,383,l),
(321,383,ls),
(422,383,o),
(495,326,o),
(495,230,cs),
(495,132,o),
(420,70,o),
(321,70,cs),
(223,70,o),
(157,121,o),
(149,210,c),
(61,210,l),
(74,68,o),
(172,-12,o),
(325,-12,cs)
);
}
);
};
guides = (
{
angle = 262.8428;
pos = (179,473);
}
);
layerId = "A931EBE4-BC38-4F2A-894C-3FB7E511A35E";
shapes = (
{
closed = 1;
nodes = (
(515,-12,o),
(622,97,o),
(622,261,cs),
(622,422,o),
(514,523,o),
(347,523,cs),
(278,523,o),
(222,505,o),
(183,473,c),
(179,473,l),
(211,728,l),
(574,728,l),
(574,810,l),
(132,810,l),
(77,372,l),
(158,372,l),
(195,416,o),
(263,443,o),
(336,443,cs),
(454,443,o),
(530,371,o),
(530,255,cs),
(530,142,o),
(461,70,o),
(332,70,cs),
(221,70,o),
(148,123,o),
(141,210,c),
(50,210,l),
(62,73,o),
(163,-12,o),
(329,-12,cs)
);
}
);
userData = {
com.schriftgestaltung.Glyphs.category = Number;
com.schriftgestaltung.Glyphs.subCategory = "Decimal Digit";
};
width = 690;
}
);
unicode = 53;
},
{
glyphname = six;
lastChange = "2024-05-08 12:15:40 +0000";
layers = (
{
background = {
shapes = (
{
closed = 1;
nodes = (
(528,-12,o),
(628,132,o),
(628,405,cs),
(628,678,o),
(528,822,o),
(340,822,cs),
(152,822,o),
(52,678,o),
(52,405,cs),
(52,132,o),
(152,-12,o),
(340,-12,cs)
);
},
{
closed = 1;
nodes = (
(265,142,o),
(232,221,o),
(232,405,cs),
(232,589,o),
(265,668,o),
(340,668,cs),
(415,668,o),
(448,589,o),
(448,405,cs),
(448,221,o),
(415,142,o),
(340,142,cs)
);
}
);
};
layerId = "3CBDEB72-8799-4680-B3B3-51A575E4F961";
shapes = (
{
closed = 1;
nodes = (
(556,-12,o),
(673,99,o),
(673,272,cs),
(673,434,o),
(573,535,o),
(409,535,cs),
(337,535,o),
(268,505,o),
(228,453,c),
(224,453,l),
(231,606,o),
(279,678,o),
(371,678,cs),
(430,678,o),
(462,655,o),
(477,600,c),
(667,600,l),
(643,744,o),
(538,822,o),
(372,822,cs),
(156,822,o),
(32,666,o),
(32,395,cs),
(32,130,o),
(149,-12,o),
(369,-12,cs)
);
},
{
closed = 1;
nodes = (
(282,132,o),
(224,189,o),
(224,276,cs),
(224,344,o),
(279,391,o),
(354,391,cs),
(442,391,o),
(495,342,o),
(495,261,cs),
(495,180,o),
(447,132,o),
(365,132,cs)
);
}
);
userData = {
com.schriftgestaltung.Glyphs.category = Number;
com.schriftgestaltung.Glyphs.subCategory = "Decimal Digit";
};
width = 690;
},
{
background = {
shapes = (
{
closed = 1;
nodes = (
(169,256,l),
(169,366,o),
(239,443,o),
(337,443,cs),
(435,443,o),
(505,366,o),
(505,256,cs),
(505,146,o),
(441,70,o),
(345,70,cs),
(227,70,o),
(158,172,o),
(158,375,cs),
(158,618,o),
(227,740,o),
(345,740,cs),
(421,740,o),
(473,693,o),
(495,600,c),
(587,600,l),
(555,746,o),
(472,822,o),
(345,822,cs),
(170,822,o),
(68,668,o),
(68,375,cs),
(68,122,o),
(170,-12,o),
(345,-12,cs),
(493,-12,o),
(593,101,o),
(593,261,cs),
(593,417,o),
(494,523,o),
(348,523,cs),
(202,523,o),
(103,417,o),
(103,261,c)
);
}
);
};
guides = (
{
angle = 180;
pos = (491,630);
},
{
pos = (505,256);
}
);
layerId = "A931EBE4-BC38-4F2A-894C-3FB7E511A35E";
shapes = (
{
closed = 1;
nodes = (
(528,-12,o),
(638,97,o),
(638,261,cs),
(638,417,o),
(528,523,o),
(366,523,cs),
(268,523,o),
(193,483,o),
(152,408,c),
(148,408,l),
(155,633,o),
(227,740,o),
(372,740,cs),
(459,740,o),
(518,702,o),
(542,630,c),
(632,630,l),
(601,753,o),
(508,822,o),
(372,822,cs),
(167,822,o),
(57,666,o),
(57,375,cs),
(57,128,o),
(168,-12,o),
(363,-12,cs)
);
},
{
closed = 1;
nodes = (
(239,70,o),
(157,157,o),
(157,286,cs),
(157,378,o),
(234,443,o),
(343,443,cs),
(463,443,o),
(546,366,o),
(546,256,cs),
(546,144,o),
(471,70,o),
(359,70,cs)
);
}
);
userData = {
com.schriftgestaltung.Glyphs.category = Number;
com.schriftgestaltung.Glyphs.subCategory = "Decimal Digit";
};
width = 690;
},
{
associatedMasterId = "A931EBE4-BC38-4F2A-894C-3FB7E511A35E";
background = {
shapes = (
{
closed = 1;
nodes = (
(64,109,o),
(178,-11,o),
(334,-11,cs),
(490,-11,o),
(587,91,o),
(587,257,cs),
(587,411,o),
(495,500,o),
(355,500,cs),
(255,500,o),
(194,456,o),
(160,402,c),
(154,402,l),
(162,591,o),
(225,737,o),
(428,737,cs),
(463,737,o),
(499,733,o),
(527,723,c),
(527,802,l),
(502,809,o),
(459,812,o),
(427,812,cs),
(137,812,o),
(64,584,o),
(64,342,cs)
);
},
{
closed = 1;
nodes = (
(212,66,o),
(156,182,o),
(156,278,cs),
(156,349,o),
(227,428,o),
(337,428,cs),
(444,428,o),
(497,363,o),
(497,257,cs),
(497,129,o),
(432,66,o),
(333,66,cs)
);
}
);
};
guides = (
{
angle = 180;
pos = (116,570);
}
);
layerId = "2B4175F2-E5CD-4639-A952-52DE5E585B04";
name = "17 Apr 24 at 10:31";
shapes = (
{
closed = 1;
nodes = (
(152,256,l),
(152,366,o),
(224,443,o),
(326,443,cs),
(428,443,o),
(500,366,o),
(500,256,cs),
(500,146,o),
(436,70,o),
(340,70,cs),
(222,70,o),
(153,172,o),
(153,375,cs),
(153,618,o),
(222,740,o),
(340,740,cs),
(416,740,o),
(468,693,o),
(490,600,c),
(582,600,l),
(550,746,o),
(467,822,o),
(340,822,cs),
(165,822,o),
(63,668,o),
(63,375,cs),
(63,122,o),
(165,-12,o),
(340,-12,cs),
(488,-12,o),
(588,101,o),
(588,261,cs),
(588,417,o),
(487,523,o),
(337,523,cs),
(187,523,o),
(86,417,o),
(86,261,c)
);
}
);
userData = {
com.schriftgestaltung.Glyphs.category = Number;
com.schriftgestaltung.Glyphs.subCategory = "Decimal Digit";
};
width = 642;
}
);
unicode = 54;
},
{
glyphname = seven;
lastChange = "2024-05-08 12:15:40 +0000";
layers = (
{
guides = (
{
angle = 62.382;
pos = (99,0);
}
);
layerId = "3CBDEB72-8799-4680-B3B3-51A575E4F961";
shapes = (
{
closed = 1;
nodes = (
(303,0,l),
(664,690,l),
(664,810,l),
(26,810,l),
(26,642,l),
(441,642,l),
(99,0,l)
);
}
);
userData = {
com.schriftgestaltung.Glyphs.category = Number;
com.schriftgestaltung.Glyphs.subCategory = "Decimal Digit";
};
width = 690;
},
{
layerId = "A931EBE4-BC38-4F2A-894C-3FB7E511A35E";
shapes = (
{
closed = 1;
nodes = (
(260,0,l),
(640,733,l),
(640,810,l),
(50,810,l),
(50,726,l),
(542,726,l),
(154,0,l)
);
}
);
userData = {
com.schriftgestaltung.Glyphs.category = Number;
com.schriftgestaltung.Glyphs.subCategory = "Decimal Digit";
};
width = 690;
}
);
unicode = 55;
},
{
glyphname = eight;
lastChange = "2024-05-08 12:15:40 +0000";
layers = (
{
layerId = "3CBDEB72-8799-4680-B3B3-51A575E4F961";
shapes = (
{
closed = 1;
nodes = (
(533,-12,o),
(664,85,o),
(664,230,cs),
(664,329,o),
(602,393,o),
(520,428,c),
(520,432,l),
(594,467,o),
(638,522,o),
(638,601,cs),
(638,727,o),
(525,822,o),
(345,822,cs),
(166,822,o),
(52,728,o),
(52,601,cs),
(52,522,o),
(97,461,o),
(169,426,c),
(169,422,l),
(87,388,o),
(26,329,o),
(26,230,cs),
(26,84,o),
(157,-12,o),
(345,-12,cs)
);
},
{
closed = 1;
nodes = (
(264,138,o),
(210,180,o),
(210,245,cs),
(210,310,o),
(264,352,o),
(345,352,cs),
(426,352,o),
(480,310,o),
(480,245,cs),
(480,180,o),
(426,138,o),
(345,138,cs)
);
},
{
closed = 1;
nodes = (
(273,498,o),
(230,532,o),
(230,587,cs),
(230,642,o),
(273,676,o),
(345,676,cs),
(417,676,o),
(460,642,o),
(460,587,cs),
(460,532,o),
(417,498,o),
(345,498,cs)
);
}
);
userData = {
com.schriftgestaltung.Glyphs.category = Number;
com.schriftgestaltung.Glyphs.subCategory = "Decimal Digit";
};
width = 690;
},
{
background = {
shapes = (
{
closed = 1;
nodes = (
(195,812,o),
(94,743,o),
(94,622,cs),
(94,522,o),
(159,463,o),
(239,419,c),
(147,378,o),
(68,313,o),
(68,203,cs),
(68,69,o),
(164,-11,o),
(334,-11,cs),
(491,-11,o),
(595,72,o),
(595,207,cs),
(595,317,o),
(516,377,o),
(413,424,c),
(499,467,o),
(569,524,o),
(569,622,cs),
(569,745,o),
(471,812,o),
(332,812,cs)
);
},
{
closed = 1;
nodes = (
(158,288,o),
(215,340,o),
(316,382,c),
(336,375,ls),
(440,335,o),
(506,285,o),
(506,206,cs),
(506,119,o),
(442,62,o),
(332,62,cs),
(215,62,o),
(158,121,o),
(158,203,cs)
);
},
{
closed = 1;
nodes = (
(420,738,o),
(479,695,o),
(479,618,cs),
(479,537,o),
(418,494,o),
(336,460,c),
(250,495,o),
(184,534,o),
(184,618,cs),
(184,695,o),
(244,738,o),
(331,738,cs)
);
},
{
pos = (2,0);
ref = zero;
}
);
};
layerId = "A931EBE4-BC38-4F2A-894C-3FB7E511A35E";
shapes = (
{
closed = 1;
nodes = (
(522,-12,o),
(634,80,o),
(634,223,cs),
(634,313,o),
(573,392,o),
(477,427,c),
(477,431,l),
(558,464,o),
(610,533,o),
(610,606,cs),
(610,738,o),
(509,822,o),
(345,822,cs),
(182,822,o),
(80,738,o),
(80,606,cs),
(80,531,o),
(134,457,o),
(212,425,c),
(212,421,l),
(114,385,o),
(56,312,o),
(56,223,cs),
(56,80,o),
(168,-12,o),
(345,-12,cs)
);
},
{
closed = 1;
nodes = (
(226,68,o),
(148,132,o),
(148,227,cs),
(148,322,o),
(226,386,o),
(345,386,cs),
(464,386,o),
(542,322,o),
(542,227,cs),
(542,132,o),
(464,68,o),
(345,68,cs)
);
},
{
closed = 1;
nodes = (
(238,464,o),
(173,518,o),
(173,603,cs),
(173,688,o),
(238,742,o),
(345,742,cs),
(453,742,o),
(518,688,o),
(518,603,cs),
(518,518,o),
(453,464,o),
(345,464,cs)
);
}
);
userData = {
com.schriftgestaltung.Glyphs.category = Number;
com.schriftgestaltung.Glyphs.subCategory = "Decimal Digit";
};
width = 690;
},
{
associatedMasterId = "A931EBE4-BC38-4F2A-894C-3FB7E511A35E";
layerId = "2572E2D1-8A0A-441F-A64A-C9B87F86CC60";
name = "17 Apr 24 at 10:08";
shapes = (
{
closed = 1;
nodes = (
(183,812,o),
(82,743,o),
(82,622,cs),
(82,522,o),
(147,463,o),
(227,419,c),
(135,378,o),
(56,313,o),
(56,203,cs),
(56,69,o),
(152,-11,o),
(322,-11,cs),
(479,-11,o),
(583,72,o),
(583,207,cs),
(583,317,o),
(504,377,o),
(401,424,c),
(487,467,o),
(557,524,o),
(557,622,cs),
(557,745,o),
(459,812,o),
(320,812,cs)
);
},
{
closed = 1;
nodes = (
(146,288,o),
(203,340,o),
(304,382,c),
(324,375,ls),
(428,335,o),
(494,285,o),
(494,206,cs),
(494,119,o),
(430,62,o),
(320,62,cs),
(203,62,o),
(146,121,o),
(146,203,cs)
);
},
{
closed = 1;
nodes = (
(408,738,o),
(467,695,o),
(467,618,cs),
(467,537,o),
(406,494,o),
(324,460,c),
(238,495,o),
(172,534,o),
(172,618,cs),
(172,695,o),
(232,738,o),
(319,738,cs)
);
}
);
userData = {
com.schriftgestaltung.Glyphs.category = Number;
com.schriftgestaltung.Glyphs.subCategory = "Decimal Digit";
};
width = 642;
}
);
unicode = 56;
},
{
glyphname = nine;
lastChange = "2024-05-08 12:15:40 +0000";
layers = (
{
background = {
shapes = (
{
closed = 1;
nodes = (
(477,-12,o),
(574,148,o),
(574,440,cs),
(574,684,o),
(475,822,o),
(300,822,cs),
(158,822,o),
(55,712,o),
(55,558,cs),
(55,404,o),
(152,299,o),
(295,299,cs),
(377,299,o),
(447,342,o),
(482,411,c),
(486,411,l),
(480,187,o),
(418,70,o),
(301,70,cs),
(219,70,o),
(159,113,o),
(139,198,c),
(49,198,l),
(75,62,o),
(169,-12,o),
(301,-12,cs)
);
},
{
closed = 1;
nodes = (
(213,377,o),
(141,452,o),
(141,560,cs),
(141,667,o),
(209,742,o),
(304,742,cs),
(403,742,o),
(478,650,o),
(478,531,cs),
(478,442,o),
(410,377,o),
(316,377,cs)
);
}
);
};
layerId = "3CBDEB72-8799-4680-B3B3-51A575E4F961";
shapes = (
{
closed = 1;
nodes = (
(539,-12,o),
(658,145,o),
(658,424,cs),
(658,682,o),
(541,822,o),
(326,822,cs),
(141,822,o),
(24,712,o),
(24,544,cs),
(24,388,o),
(126,287,o),
(288,287,cs),
(361,287,o),
(425,316,o),
(464,367,c),
(469,367,l),
(462,205,o),
(417,132,o),
(327,132,cs),
(263,132,o),
(230,155,o),
(215,210,c),
(26,210,l),
(49,66,o),
(153,-12,o),
(326,-12,cs)
);
},
{
closed = 1;
nodes = (
(254,431,o),
(202,478,o),
(202,555,cs),
(202,633,o),
(249,678,o),
(331,678,cs),
(412,678,o),
(468,624,o),
(468,541,cs),
(468,476,o),
(414,431,o),
(341,431,cs)
);
}
);
userData = {
com.schriftgestaltung.Glyphs.category = Number;
com.schriftgestaltung.Glyphs.subCategory = "Decimal Digit";
};
width = 690;
},
{
background = {
shapes = (
{
closed = 1;
nodes = (
(596,691,o),
(483,812,o),
(325,812,cs),
(171,812,o),
(71,708,o),
(71,543,cs),
(71,389,o),
(163,301,o),
(302,301,cs),
(403,301,o),
(465,345,o),
(497,398,c),
(504,398,l),
(497,209,o),
(434,64,o),
(230,64,cs),
(195,64,o),
(155,69,o),
(128,79,c),
(128,0,l),
(154,-8,o),
(200,-11,o),
(231,-11,cs),
(522,-11,o),
(596,217,o),
(596,459,cs)
);
},
{
closed = 1;
nodes = (
(447,735,o),
(503,618,o),
(503,522,cs),
(503,450,o),
(432,372,o),
(321,372,cs),
(213,372,o),
(162,438,o),
(162,544,cs),
(162,671,o),
(228,735,o),
(325,735,cs)
);
}
);
};
layerId = "A931EBE4-BC38-4F2A-894C-3FB7E511A35E";
shapes = (
{
closed = 1;
nodes = (
(526,-12,o),
(622,124,o),
(622,408,c),
(622,674,o),
(515,821,o),
(320,821,cs),
(161,821,o),
(51,710,o),
(51,548,cs),
(51,398,o),
(155,297,o),
(312,297,cs),
(413,297,o),
(485,339,o),
(529,424,c),
(533,424,l),
(535,175,o),
(473,70,o),
(325,70,cs),
(231,70,o),
(175,111,o),
(150,198,c),
(57,198,l),
(88,60,o),
(181,-12,o),
(326,-12,cs)
);
},
{
closed = 1;
nodes = (
(216,377,o),
(140,446,o),
(140,551,cs),
(140,662,o),
(215,739,o),
(323,739,cs),
(435,739,o),
(513,660,o),
(517,543,c),
(521,444,o),
(446,377,o),
(333,377,cs)
);
}
);
userData = {
com.schriftgestaltung.Glyphs.category = Number;
com.schriftgestaltung.Glyphs.subCategory = "Decimal Digit";
};
width = 690;
}
);
unicode = 57;
},
{
glyphname = zero.lf;
lastChange = "2024-05-08 12:15:40 +0000";
layers = (
{
layerId = "3CBDEB72-8799-4680-B3B3-51A575E4F961";
shapes = (
{
closed = 1;
nodes = (
(583,-12,o),
(698,133,o),
(698,405,cs),
(698,677,o),
(583,822,o),
(365,822,cs),
(147,822,o),
(32,677,o),
(32,405,cs),
(32,133,o),
(147,-12,o),
(365,-12,cs)
);
},
{
closed = 1;
nodes = (
(265,142,o),
(216,220,o),
(216,405,cs),
(216,590,o),
(265,668,o),
(365,668,cs),
(466,668,o),
(514,588,o),
(514,405,cs),
(514,222,o),
(466,142,o),
(365,142,cs)
);
}
);
userData = {
com.schriftgestaltung.Glyphs.category = Number;
com.schriftgestaltung.Glyphs.subCategory = "Decimal Digit";
};
width = 730;
},
{
layerId = "A931EBE4-BC38-4F2A-894C-3FB7E511A35E";
shapes = (
{
closed = 1;
nodes = (
(569,-12,o),
(676,133,o),
(676,405,cs),
(676,677,o),
(569,822,o),
(365,822,cs),
(161,822,o),
(54,677,o),
(54,405,cs),
(54,133,o),
(161,-12,o),
(365,-12,cs)
);
},
{
closed = 1;
nodes = (
(219,70,o),
(144,181,o),
(144,405,cs),
(144,629,o),
(219,740,o),
(365,740,cs),
(512,740,o),
(586,627,o),
(586,405,cs),
(586,183,o),
(512,70,o),
(365,70,cs)
);
}
);
userData = {
com.schriftgestaltung.Glyphs.category = Number;
com.schriftgestaltung.Glyphs.subCategory = "Decimal Digit";
};
width = 730;
}
);
},
{
glyphname = one.lf;
lastChange = "2024-05-08 12:15:40 +0000";
layers = (
{
guides = (
{
angle = 270;
pos = (260,366);
},
{
angle = 90;
pos = (440,471);
}
);
layerId = "3CBDEB72-8799-4680-B3B3-51A575E4F961";
shapes = (
{
closed = 1;
nodes = (
(442,0,l),
(442,810,l),
(286,810,l),
(44,644,l),
(44,460,l),
(48,460,l),
(258,607,l),
(258,0,l)
);
}
);
userData = {
com.schriftgestaltung.Glyphs.category = Number;
com.schriftgestaltung.Glyphs.subCategory = "Decimal Digit";
};
width = 550;
},
{
background = {
shapes = (
{
closed = 1;
nodes = (
(398,801,l),
(322,801,l),
(105,634,l),
(153,572,l),
(244,645,ls),
(273,669,o),
(290,682,o),
(313,705,c),
(310,664,o),
(309,631,o),
(309,567,cs),
(309,0,l),
(398,0,l)
);
}
);
};
guides = (
{
angle = 214.9284;
pos = (52,546);
}
);
layerId = "A931EBE4-BC38-4F2A-894C-3FB7E511A35E";
shapes = (
{
closed = 1;
nodes = (
(370,0,l),
(370,810,l),
(290,810,l),
(48,641,l),
(48,546,l),
(52,546,l),
(276,705,l),
(276,0,l)
);
}
);
userData = {
com.schriftgestaltung.Glyphs.category = Number;
com.schriftgestaltung.Glyphs.subCategory = "Decimal Digit";
};
width = 510;
}
);
},
{
glyphname = two.lf;
lastChange = "2024-05-08 12:15:40 +0000";
layers = (
{
background = {
shapes = (
{
pos = (-30,0);
ref = zero;
}
);
};
guides = (
{
angle = 227.2648;
pos = (132,229);
},
{
angle = 46.8241;
pos = (328,205);
}
);
layerId = "3CBDEB72-8799-4680-B3B3-51A575E4F961";
shapes = (
{
closed = 1;
nodes = (
(626,0,l),
(626,156,l),
(297,156,l),
(297,160,l),
(475,328,ls),
(579,426,o),
(620,494,o),
(620,578,cs),
(620,727,o),
(508,822,o),
(333,822,cs),
(151,822,o),
(39,719,o),
(28,547,c),
(203,547,l),
(213,631,o),
(259,672,o),
(331,672,cs),
(399,672,o),
(440,636,o),
(440,575,cs),
(440,533,o),
(424,503,o),
(355,436,cs),
(28,120,l),
(28,0,l)
);
}
);
userData = {
com.schriftgestaltung.Glyphs.category = Number;
com.schriftgestaltung.Glyphs.subCategory = "Decimal Digit";
};
width = 660;
},
{
background = {
shapes = (
{
pos = (-40,0);
ref = zero;
}
);
};
guides = (
{
angle = 180;
pos = (76,570);
}
);
layerId = "A931EBE4-BC38-4F2A-894C-3FB7E511A35E";
shapes = (
{
closed = 1;
nodes = (
(598,0,l),
(598,82,l),
(170,82,l),
(168,86,l),
(454,368,ls),
(542,455,o),
(582,524,o),
(582,599,cs),
(582,733,o),
(478,822,o),
(322,822,cs),
(156,822,o),
(52,727,o),
(42,570,c),
(134,570,l),
(147,687,o),
(214,740,o),
(321,740,cs),
(425,740,o),
(487,686,o),
(487,595,cs),
(487,536,o),
(460,490,o),
(372,402,cs),
(42,72,l),
(42,0,l)
);
}
);
userData = {
com.schriftgestaltung.Glyphs.category = Number;
com.schriftgestaltung.Glyphs.subCategory = "Decimal Digit";
};
width = 640;
},
{
associatedMasterId = "A931EBE4-BC38-4F2A-894C-3FB7E511A35E";
background = {
shapes = (
{
closed = 1;
nodes = (
(590,83,l),
(181,83,l),
(181,87,l),
(355,261,ls),
(477,380,o),
(557,473,o),
(557,600,cs),
(557,731,o),
(465,812,o),
(317,812,cs),
(220,812,o),
(139,773,o),
(76,720,c),
(124,658,l),
(186,706,o),
(241,734,o),
(317,734,cs),
(405,734,o),
(463,685,o),
(463,594,cs),
(463,484,o),
(398,414,o),
(279,294,cs),
(65,76,l),
(65,0,l),
(590,0,l)
);
}
);
};
layerId = "C5FC5B71-BE97-43E9-A248-D83A4B8BB863";
name = "17 Apr 24 at 09:31";
shapes = (
{
closed = 1;
nodes = (
(588,0,l),
(588,82,l),
(188,82,l),
(467,373,ls),
(548,457,o),
(582,524,o),
(582,599,cs),
(582,731,o),
(483,822,o),
(341,822,cs),
(191,822,o),
(87,722,o),
(78,570,c),
(166,570,l),
(177,677,o),
(242,740,o),
(340,740,cs),
(434,740,o),
(492,683,o),
(492,592,cs),
(492,536,o),
(469,495,o),
(387,407,cs),
(72,72,l),
(72,0,l)
);
}
);
userData = {
com.schriftgestaltung.Glyphs.category = Number;
com.schriftgestaltung.Glyphs.subCategory = "Decimal Digit";
};
width = 660;
}
);
},
{
glyphname = three.lf;
lastChange = "2024-05-08 12:15:40 +0000";
layers = (
{
background = {
shapes = (
{
closed = 1;
nodes = (
(495,-12,o),
(624,82,o),
(624,235,cs),
(624,329,o),
(565,396,o),
(496,428,c),
(496,432,l),
(555,462,o),
(600,522,o),
(600,594,cs),
(600,731,o),
(487,822,o),
(330,822,cs),
(173,822,o),
(60,731,o),
(60,594,cs),
(60,522,o),
(105,457,o),
(164,426,c),
(164,422,l),
(95,391,o),
(36,329,o),
(36,235,cs),
(36,82,o),
(165,-12,o),
(330,-12,cs)
);
},
{
closed = 1;
nodes = (
(266,138,o),
(210,180,o),
(210,245,cs),
(210,310,o),
(266,352,o),
(330,352,cs),
(394,352,o),
(450,310,o),
(450,245,cs),
(450,180,o),
(394,138,o),
(330,138,cs)
);
},
{
closed = 1;
nodes = (
(274,498,o),
(228,532,o),
(228,587,cs),
(228,642,o),
(274,676,o),
(330,676,cs),
(386,676,o),
(432,642,o),
(432,587,cs),
(432,532,o),
(386,498,o),
(330,498,cs)
);
}
);
};
layerId = "3CBDEB72-8799-4680-B3B3-51A575E4F961";
shapes = (
{
closed = 1;
nodes = (
(539,-12,o),
(664,89,o),
(664,242,cs),
(664,330,o),
(610,401,o),
(518,431,c),
(518,437,l),
(593,473,o),
(638,536,o),
(638,603,cs),
(638,735,o),
(526,822,o),
(352,822,cs),
(168,822,o),
(47,728,o),
(40,580,c),
(217,580,l),
(227,645,o),
(269,676,o),
(347,676,cs),
(416,676,o),
(460,640,o),
(460,581,cs),
(460,526,o),
(421,493,o),
(357,493,cs),
(229,493,l),
(229,349,l),
(356,349,ls),
(432,349,o),
(480,310,o),
(480,248,cs),
(480,178,o),
(431,138,o),
(346,138,cs),
(265,138,o),
(220,168,o),
(211,228,c),
(26,228,l),
(40,73,o),
(153,-12,o),
(348,-12,cs)
);
}
);
userData = {
com.schriftgestaltung.Glyphs.category = Number;
com.schriftgestaltung.Glyphs.subCategory = "Decimal Digit";
};
width = 690;
},
{
background = {
shapes = (
{
ref = zero;
},
{
closed = 1;
nodes = (
(538,729,o),
(456,812,o),
(293,812,cs),
(186,812,o),
(102,774,o),
(43,729,c),
(89,666,l),
(150,707,o),
(208,735,o),
(294,735,cs),
(387,735,o),
(445,689,o),
(445,608,cs),
(445,513,o),
(371,452,o),
(241,452,cs),
(160,452,l),
(160,375,l),
(240,375,ls),
(382,375,o),
(467,332,o),
(467,228,cs),
(467,128,o),
(406,66,o),
(260,66,cs),
(187,66,o),
(105,85,o),
(38,118,c),
(38,33,l),
(104,1,o),
(174,-11,o),
(259,-11,cs),
(468,-11,o),
(563,87,o),
(563,227,cs),
(563,333,o),
(499,401,o),
(372,417,c),
(372,422,l),
(472,441,o),
(538,507,o),
(538,614,cs)
);
}
);
};
guides = (
{
angle = 95.3051;
pos = (151,208);
},
{
pos = (419,461);
}
);
layerId = "A931EBE4-BC38-4F2A-894C-3FB7E511A35E";
shapes = (
{
closed = 1;
nodes = (
(510,-12,o),
(622,78,o),
(622,221,cs),
(622,326,o),
(567,397,o),
(463,423,c),
(463,427,l),
(555,460,o),
(604,526,o),
(604,614,cs),
(604,738,o),
(499,822,o),
(344,822,cs),
(186,822,o),
(78,736,o),
(64,600,c),
(153,600,l),
(171,690,o),
(237,740,o),
(338,740,cs),
(444,740,o),
(512,684,o),
(512,599,cs),
(512,516,o),
(448,459,o),
(353,459,cs),
(217,459,l),
(217,383,l),
(345,383,ls),
(456,383,o),
(530,321,o),
(530,227,cs),
(530,131,o),
(453,70,o),
(331,70,cs),
(218,70,o),
(149,121,o),
(141,210,c),
(50,210,l),
(63,68,o),
(164,-12,o),
(333,-12,cs)
);
}
);
userData = {
com.schriftgestaltung.Glyphs.category = Number;
com.schriftgestaltung.Glyphs.subCategory = "Decimal Digit";
};
width = 690;
},
{
associatedMasterId = "A931EBE4-BC38-4F2A-894C-3FB7E511A35E";
background = {
shapes = (
{
closed = 1;
nodes = (
(538,729,o),
(456,812,o),
(293,812,cs),
(186,812,o),
(102,774,o),
(43,729,c),
(89,666,l),
(150,707,o),
(208,735,o),
(294,735,cs),
(387,735,o),
(445,689,o),
(445,608,cs),
(445,513,o),
(371,452,o),
(241,452,cs),
(160,452,l),
(160,375,l),
(240,375,ls),
(382,375,o),
(467,332,o),
(467,228,cs),
(467,128,o),
(406,66,o),
(260,66,cs),
(187,66,o),
(105,85,o),
(38,118,c),
(38,33,l),
(104,1,o),
(174,-11,o),
(259,-11,cs),
(468,-11,o),
(563,87,o),
(563,227,cs),
(563,333,o),
(499,401,o),
(372,417,c),
(372,422,l),
(472,441,o),
(538,507,o),
(538,614,cs)
);
}
);
};
layerId = "291D9543-9E9A-4590-9AFC-899CDD8F7BBC";
name = "17 Apr 24 at 09:38";
shapes = (
{
closed = 1;
nodes = (
(468,-12,o),
(594,64,o),
(594,215,cs),
(594,316,o),
(529,381,o),
(453,405,c),
(529,436,o),
(589,509,o),
(589,600,cs),
(589,741,o),
(475,822,o),
(326,822,cs),
(183,822,o),
(77,728,o),
(71,600,c),
(160,600,l),
(168,679,o),
(231,740,o),
(320,740,cs),
(332,740,ls),
(427,740,o),
(500,683,o),
(500,589,cs),
(500,510,o),
(440,446,o),
(342,446,cs),
(282,446,l),
(282,363,l),
(335,363,ls),
(430,363,o),
(506,310,o),
(506,220,cs),
(506,126,o),
(428,70,o),
(330,70,cs),
(318,70,ls),
(224,70,o),
(161,121,o),
(145,208,c),
(57,208,l),
(70,68,o),
(167,-12,o),
(324,-12,cs)
);
}
);
userData = {
com.schriftgestaltung.Glyphs.category = Number;
com.schriftgestaltung.Glyphs.subCategory = "Decimal Digit";
};
width = 660;
}
);
},
{
glyphname = four.lf;
lastChange = "2024-05-08 12:15:40 +0000";
layers = (
{
guides = (
{
angle = 270;
pos = (582,100);
},
{
angle = 270;
pos = (406,100);
},
{
angle = 234.4207;
pos = (223,310);
}
);
layerId = "3CBDEB72-8799-4680-B3B3-51A575E4F961";
shapes = (
{
closed = 1;
nodes = (
(606,0,l),
(606,170,l),
(702,170,l),
(702,310,l),
(606,310,l),
(606,810,l),
(441,810,l),
(28,290,l),
(28,170,l),
(428,170,l),
(428,0,l)
);
},
{
closed = 1;
nodes = (
(430,564,l),
(434,564,l),
(434,310,l),
(228,310,l)
);
}
);
userData = {
com.schriftgestaltung.Glyphs.category = Number;
com.schriftgestaltung.Glyphs.subCategory = "Decimal Digit";
};
width = 730;
},
{
guides = (
{
pos = (649,269);
}
);
layerId = "A931EBE4-BC38-4F2A-894C-3FB7E511A35E";
shapes = (
{
closed = 1;
nodes = (
(557,0,l),
(557,200,l),
(685,200,l),
(685,280,l),
(557,280,l),
(557,810,l),
(466,810,l),
(35,270,l),
(35,200,l),
(465,200,l),
(465,0,l)
);
},
{
closed = 1;
nodes = (
(465,694,l),
(469,694,l),
(469,280,l),
(135,280,l)
);
}
);
userData = {
com.schriftgestaltung.Glyphs.category = Number;
com.schriftgestaltung.Glyphs.subCategory = "Decimal Digit";
};
width = 720;
}
);
},
{
glyphname = five.lf;
lastChange = "2024-05-08 12:15:40 +0000";
layers = (
{
guides = (
{
angle = 263.4944;
pos = (261,646);
},
{
angle = 263.4944;
pos = (84,582);
}
);
layerId = "3CBDEB72-8799-4680-B3B3-51A575E4F961";
shapes = (
{
closed = 1;
nodes = (
(551,-12,o),
(664,97,o),
(664,276,cs),
(664,447,o),
(560,542,o),
(396,542,cs),
(336,542,o),
(288,528,o),
(250,498,c),
(244,498,l),
(263,652,l),
(622,652,l),
(622,810,l),
(117,810,l),
(58,339,l),
(217,339,l),
(244,378,o),
(290,398,o),
(346,398,cs),
(432,398,o),
(486,357,o),
(486,270,cs),
(486,187,o),
(439,138,o),
(350,138,cs),
(270,138,o),
(219,168,o),
(211,228,c),
(26,228,l),
(39,74,o),
(156,-12,o),
(346,-12,cs)
);
}
);
userData = {
com.schriftgestaltung.Glyphs.category = Number;
com.schriftgestaltung.Glyphs.subCategory = "Decimal Digit";
};
width = 690;
},
{
background = {
shapes = (
{
ref = zero;
},
{
closed = 1;
nodes = (
(253,490,o),
(208,481,o),
(180,476,c),
(200,717,l),
(521,717,l),
(521,801,l),
(123,801,l),
(92,425,l),
(138,395,l),
(173,404,o),
(234,412,o),
(279,412,cs),
(420,412,o),
(483,352,o),
(483,245,cs),
(483,125,o),
(401,67,o),
(280,67,cs),
(208,67,o),
(125,87,o),
(72,119,c),
(72,33,l),
(121,4,o),
(195,-11,o),
(279,-11,cs),
(465,-11,o),
(577,89,o),
(577,254,cs),
(577,404,o),
(471,490,o),
(308,490,cs)
);
},
{
closed = 1;
nodes = (
(463,-12,o),
(582,70,o),
(582,226,cs),
(582,332,o),
(517,401,o),
(429,423,c),
(429,427,l),
(507,455,o),
(564,523,o),
(564,608,cs),
(564,742,o),
(458,822,o),
(329,822,cs),
(185,822,o),
(85,728,o),
(74,600,c),
(160,600,l),
(174,679,o),
(229,740,o),
(326,740,cs),
(408,740,o),
(476,684,o),
(476,597,cs),
(476,524,o),
(425,459,o),
(327,459,cs),
(244,459,l),
(244,383,l),
(320,383,ls),
(421,383,o),
(494,326,o),
(494,230,cs),
(494,132,o),
(419,70,o),
(320,70,cs),
(222,70,o),
(156,121,o),
(148,210,c),
(60,210,l),
(73,68,o),
(171,-12,o),
(324,-12,cs)
);
}
);
};
guides = (
{
angle = 263.7769;
pos = (113,613);
},
{
angle = 263.7769;
pos = (210,717);
}
);
layerId = "A931EBE4-BC38-4F2A-894C-3FB7E511A35E";
shapes = (
{
closed = 1;
nodes = (
(515,-12,o),
(622,97,o),
(622,261,cs),
(622,422,o),
(514,523,o),
(347,523,cs),
(278,523,o),
(222,505,o),
(183,473,c),
(179,473,l),
(211,728,l),
(574,728,l),
(574,810,l),
(132,810,l),
(77,372,l),
(158,372,l),
(195,416,o),
(263,443,o),
(336,443,cs),
(454,443,o),
(530,371,o),
(530,255,cs),
(530,142,o),
(461,70,o),
(332,70,cs),
(221,70,o),
(148,123,o),
(141,210,c),
(50,210,l),
(62,73,o),
(163,-12,o),
(329,-12,cs)
);
}
);
userData = {
com.schriftgestaltung.Glyphs.category = Number;
com.schriftgestaltung.Glyphs.subCategory = "Decimal Digit";
};
width = 690;
}
);
},
